<svg width="45" height="45" viewBox="0 0 45 45" fill="none" xmlns="http://www.w3.org/2000/svg">
<path d="M5.625 26.25C5.12772 26.25 4.65081 26.4475 4.29918 26.7992C3.94754 27.1508 3.75 27.6277 3.75 28.125C3.75 28.6223 3.94754 29.0992 4.29918 29.4508C4.65081 29.8025 5.12772 30 5.625 30C7.11684 30 8.54758 30.5926 9.60248 31.6475C10.6574 32.7024 11.25 34.1332 11.25 35.625C11.25 36.1223 11.4475 36.5992 11.7992 36.9508C12.1508 37.3025 12.6277 37.5 13.125 37.5C13.6223 37.5 14.0992 37.3025 14.4508 36.9508C14.8025 36.5992 15 36.1223 15 35.625C15 33.1386 14.0123 30.754 12.2541 28.9959C10.496 27.2377 8.11141 26.25 5.625 26.25ZM4.29375 34.2938C4.03307 34.5566 3.85602 34.8907 3.78491 35.254C3.71381 35.6173 3.75184 35.9935 3.8942 36.3352C4.03657 36.6769 4.2769 36.9689 4.5849 37.1742C4.89291 37.3795 5.25482 37.4891 5.625 37.4891C5.99519 37.4891 6.35709 37.3795 6.6651 37.1742C6.9731 36.9689 7.21344 36.6769 7.3558 36.3352C7.49816 35.9935 7.53619 35.6173 7.46509 35.254C7.39399 34.8907 7.21694 34.5566 6.95625 34.2938C6.78195 34.118 6.57457 33.9785 6.34608 33.8833C6.1176 33.7881 5.87252 33.7391 5.625 33.7391C5.37748 33.7391 5.13241 33.7881 4.90392 33.8833C4.67543 33.9785 4.46806 34.118 4.29375 34.2938ZM35.625 7.5H9.375C7.88316 7.5 6.45242 8.09263 5.39753 9.14752C4.34263 10.2024 3.75 11.6332 3.75 13.125C3.75 13.6223 3.94754 14.0992 4.29918 14.4508C4.65081 14.8025 5.12772 15 5.625 15C6.12228 15 6.5992 14.8025 6.95083 14.4508C7.30246 14.0992 7.5 13.6223 7.5 13.125C7.5 12.6277 7.69755 12.1508 8.04918 11.7992C8.40081 11.4475 8.87772 11.25 9.375 11.25H35.625C36.1223 11.25 36.5992 11.4475 36.9508 11.7992C37.3025 12.1508 37.5 12.6277 37.5 13.125V31.875C37.5 32.3723 37.3025 32.8492 36.9508 33.2008C36.5992 33.5525 36.1223 33.75 35.625 33.75H28.125C27.6277 33.75 27.1508 33.9475 26.7992 34.2992C26.4475 34.6508 26.25 35.1277 26.25 35.625C26.25 36.1223 26.4475 36.5992 26.7992 36.9508C27.1508 37.3025 27.6277 37.5 28.125 37.5H35.625C37.1168 37.5 38.5476 36.9074 39.6025 35.8525C40.6574 34.7976 41.25 33.3668 41.25 31.875V13.125C41.25 11.6332 40.6574 10.2024 39.6025 9.14752C38.5476 8.09263 37.1168 7.5 35.625 7.5ZM5.625 18.75C5.12772 18.75 4.65081 18.9475 4.29918 19.2992C3.94754 19.6508 3.75 20.1277 3.75 20.625C3.75 21.1223 3.94754 21.5992 4.29918 21.9508C4.65081 22.3025 5.12772 22.5 5.625 22.5C9.10597 22.5 12.4444 23.8828 14.9058 26.3442C17.3672 28.8056 18.75 32.144 18.75 35.625C18.75 36.1223 18.9475 36.5992 19.2992 36.9508C19.6508 37.3025 20.1277 37.5 20.625 37.5C21.1223 37.5 21.5992 37.3025 21.9508 36.9508C22.3025 36.5992 22.5 36.1223 22.5 35.625C22.5 31.1495 20.7221 26.8572 17.5574 23.6926C14.3928 20.5279 10.1005 18.75 5.625 18.75Z" fill="#3A77DC"/>
</svg>
