<svg width="34" height="41" viewBox="0 0 34 41" fill="none" xmlns="http://www.w3.org/2000/svg">
<path d="M0.383184 19.5488C0.439016 19.2912 0.54503 19.0471 0.695176 18.8306C0.845321 18.614 1.03666 18.4291 1.25826 18.2864C1.47986 18.1438 1.72739 18.0462 1.98671 17.9992C2.24603 17.9522 2.51206 17.9568 2.76962 18.0126C3.02718 18.0684 3.27123 18.1745 3.48782 18.3246C3.70441 18.4747 3.8893 18.6661 4.03194 18.8877C4.17459 19.1093 4.27219 19.3568 4.31917 19.6161C4.36616 19.8755 4.3616 20.1415 4.30577 20.399C4.10588 21.2998 4.00634 22.2198 4.00897 23.1425C4.00897 25.692 4.765 28.1843 6.18146 30.3042C7.59792 32.4241 9.61118 34.0763 11.9667 35.052C14.3221 36.0277 16.9141 36.2829 19.4146 35.7855C21.9152 35.2882 24.2121 34.0604 26.0149 32.2576C27.8177 30.4548 29.0455 28.1579 29.5428 25.6573C30.0402 23.1567 29.785 20.5648 28.8093 18.2094C27.8336 15.8539 26.1814 13.8406 24.0615 12.4242C21.9416 11.0077 19.4493 10.2517 16.8998 10.2517V15.0647C16.9222 15.2384 16.9081 15.4148 16.8585 15.5828C16.8089 15.7508 16.7247 15.9065 16.6115 16.0401C16.4983 16.1738 16.3584 16.2823 16.2009 16.3588C16.0433 16.4353 15.8715 16.4781 15.6965 16.4845C15.3307 16.471 14.9813 16.329 14.7098 16.0834L6.94489 9.62598C6.74404 9.46434 6.58198 9.25974 6.47063 9.02722C6.35929 8.79469 6.30149 8.54016 6.30149 8.28235C6.30149 8.02454 6.35929 7.77001 6.47063 7.53748C6.58198 7.30496 6.74404 7.10035 6.94489 6.93872L14.7098 0.401082C14.9813 0.155501 15.3307 0.0134837 15.6965 0C15.8711 0.0075616 16.0423 0.0511594 16.1993 0.128054C16.3562 0.204948 16.4956 0.313476 16.6086 0.446819C16.7216 0.580161 16.8058 0.735436 16.8559 0.902884C16.906 1.07033 16.9209 1.24633 16.8998 1.41983V6.23282C20.3944 6.23409 23.8026 7.3191 26.6549 9.33833C29.5071 11.3576 31.6629 14.2116 32.8253 17.5073C33.9877 20.803 34.0994 24.378 33.1451 27.7398C32.1907 31.1016 30.2173 34.0847 27.4967 36.2781C24.7761 38.4715 21.4423 39.7672 17.9545 39.9866C14.4668 40.2061 10.9968 39.3386 8.02275 37.5035C5.04868 35.6685 2.71688 32.9563 1.34865 29.7406C-0.0195819 26.525 -0.356895 22.9641 0.383184 19.5488Z" fill="#3A77DC"/>
</svg>
