<svg width="40" height="41" viewBox="0 0 40 41" fill="none" xmlns="http://www.w3.org/2000/svg">
<path d="M39.1973 16.6887H35.0231C34.6429 14.9803 33.9693 13.3507 33.0323 11.8724L36.0265 8.87819C36.176 8.72778 36.2599 8.52433 36.2599 8.31226C36.2599 8.10019 36.176 7.89674 36.0265 7.74634L32.4704 4.18222C32.32 4.03271 32.1165 3.94879 31.9045 3.94879C31.6924 3.94879 31.489 4.03271 31.3386 4.18222L28.3524 7.16034C26.8553 6.19871 25.2005 5.5085 23.4638 5.12141V0.802729C23.4638 0.589832 23.3792 0.385655 23.2287 0.235114C23.0781 0.084573 22.8739 0 22.661 0L17.66 0C17.4471 0 17.243 0.084573 17.0924 0.235114C16.9419 0.385655 16.8573 0.589832 16.8573 0.802729V5.12141C15.0857 5.51853 13.3999 6.23091 11.8804 7.22456L8.77383 4.07786C8.69921 4.00263 8.61042 3.94291 8.5126 3.90215C8.41478 3.8614 8.30986 3.84042 8.20389 3.84042C8.09792 3.84042 7.993 3.8614 7.89518 3.90215C7.79736 3.94291 7.70858 4.00263 7.63396 4.07786L4.07786 7.63396C4.00263 7.70858 3.94291 7.79736 3.90215 7.89518C3.8614 7.993 3.84042 8.09792 3.84042 8.20389C3.84042 8.30986 3.8614 8.41478 3.90215 8.5126C3.94291 8.61042 4.00263 8.69921 4.07786 8.77383L7.22456 11.9205C6.30587 13.3873 5.64352 14.9997 5.2659 16.6887H0.802729C0.589832 16.6887 0.385655 16.7733 0.235114 16.9239C0.084573 17.0744 0 17.2786 0 17.4915L0 22.5166C0 22.7295 0.084573 22.9336 0.235114 23.0842C0.385655 23.2347 0.589832 23.3193 0.802729 23.3193H5.2659C5.65299 25.056 6.3432 26.7108 7.30484 28.2079L4.18222 31.3064C4.10698 31.3811 4.04726 31.4698 4.00651 31.5677C3.96576 31.6655 3.94477 31.7704 3.94477 31.8764C3.94477 31.9823 3.96576 32.0873 4.00651 32.1851C4.04726 32.2829 4.10698 32.3717 4.18222 32.4463L7.73831 36.0024C7.88871 36.1519 8.09216 36.2358 8.30423 36.2358C8.5163 36.2358 8.71976 36.1519 8.87016 36.0024L12.0409 32.9119C13.5196 33.8483 15.149 34.5219 16.8573 34.9027V39.2213C16.8573 39.4342 16.9419 39.6384 17.0924 39.789C17.243 39.9395 17.4471 40.0241 17.66 40.0241H22.6932C22.9061 40.0241 23.1102 39.9395 23.2608 39.789C23.4113 39.6384 23.4959 39.4342 23.4959 39.2213V34.8786C25.1751 34.4977 26.7769 33.8326 28.232 32.9119L31.2342 35.9141C31.3846 36.0636 31.5881 36.1475 31.8001 36.1475C32.0122 36.1475 32.2156 36.0636 32.366 35.9141L35.9221 32.358C36.0716 32.2076 36.1556 32.0042 36.1556 31.7921C36.1556 31.58 36.0716 31.3766 35.9221 31.2262L32.952 28.2561C33.9323 26.7448 34.6337 25.07 35.0231 23.3113H39.1973C39.4102 23.3113 39.6143 23.2267 39.7649 23.0761C39.9154 22.9256 40 22.7214 40 22.5085V17.4915C40 17.2786 39.9154 17.0744 39.7649 16.9239C39.6143 16.7733 39.4102 16.6887 39.1973 16.6887ZM20.1485 27.4614C18.6713 27.463 17.2268 27.0263 15.9979 26.2066C14.769 25.3869 13.8109 24.221 13.2449 22.8566C12.6789 21.4921 12.5304 19.9904 12.8182 18.5415C13.106 17.0926 13.8171 15.7617 14.8617 14.7172C15.9062 13.6726 17.2371 12.9615 18.686 12.6737C20.1349 12.3859 21.6366 12.5344 23.0011 13.1004C24.3655 13.6664 25.5314 14.6245 26.3511 15.8534C27.1708 17.0824 27.6074 18.5268 27.6059 20.004C27.6059 21.9818 26.8202 23.8786 25.4216 25.2772C24.0231 26.6757 22.1263 27.4614 20.1485 27.4614Z" fill="#3A77DC"/>
</svg>
