<svg width="60" height="31" viewBox="0 0 60 31" fill="none" xmlns="http://www.w3.org/2000/svg">
<path fill-rule="evenodd" clip-rule="evenodd" d="M54.5938 17.7079C56.6933 16.7116 58.22 15.1313 59.1739 12.9667C59.4771 12.2801 59.6291 11.6752 59.7972 11.0063L59.8048 10.9759C60.0715 9.91726 60.0571 8.75411 59.8091 7.69388C59.711 7.27506 59.634 6.97054 59.5782 6.78032C58.6268 3.53939 56.0951 1.10749 52.827 0.324587C52.6201 0.275167 52.4131 0.226102 52.2062 0.177393C51.1903 -0.0604642 50.1695 -0.0567309 49.153 0.174193C48.9127 0.228946 48.6728 0.28619 48.4336 0.345921C46.7767 0.760126 45.3453 1.56809 44.1393 2.76982C42.9842 3.9207 42.1922 5.25754 41.7634 6.78032C40.2424 12.1844 43.806 17.7063 49.377 18.4956C51.1391 18.7452 52.9763 18.4758 54.5938 17.7079ZM51.6686 1.81733C53.0142 1.95439 54.4035 2.61676 55.4285 3.44659C55.9607 3.87786 56.4391 4.38913 56.8636 4.9804C57.3585 5.67103 57.7575 6.56006 58.0028 7.3531C58.0845 7.61655 58.1443 7.94116 58.182 8.32692C58.2785 9.31302 58.2588 10.4218 57.967 11.3737C57.6588 12.378 57.1612 13.3529 56.4812 14.1566C55.5127 15.3014 54.2909 16.112 52.8158 16.5885C51.8308 16.9068 50.7449 16.9095 49.6965 16.8226C49.3342 16.7924 49.0053 16.7339 48.7098 16.6471C46.2225 15.9159 44.3719 14.1624 43.4914 11.754C43.0679 10.5951 43.0375 9.22289 43.2114 8.01547C43.2626 7.65922 43.346 7.3147 43.4615 6.98191C43.9689 5.51886 44.8273 4.30736 46.0369 3.3474C46.3057 3.13372 46.6004 2.93568 46.9211 2.75329C47.5337 2.40415 48.1255 2.15064 48.6965 1.99278C49.5941 1.74479 50.7263 1.72133 51.6686 1.81733ZM7.54594 25.5128C7.53864 25.5092 7.53225 25.5041 7.52725 25.4978C7.50591 25.4697 7.50307 25.4343 7.51871 25.3917C8.12135 23.7363 9.33464 22.3689 10.7058 21.227C11.5449 20.5284 12.2433 19.9736 12.8012 19.5626C13.9734 18.699 15.0308 17.8571 15.9733 17.0368C16.8698 16.2566 17.665 15.3921 18.3284 14.4119C19.2389 13.0672 19.683 11.5729 19.6606 9.92885C19.6503 9.14772 19.5321 8.39291 19.306 7.66441C18.9497 6.51708 18.3136 5.54947 17.3978 4.76159C16.8385 4.28019 16.2721 3.91327 15.6986 3.66084C14.5047 3.13464 13.2285 2.82656 11.87 2.73661C8.42694 2.50889 4.99775 3.23579 1.84695 4.6C1.57958 4.71555 1.3115 4.82914 1.04271 4.94078C1.00218 4.95785 0.988847 4.98718 1.00271 5.02878L2.43839 9.29847C2.4403 9.30419 2.4434 9.30944 2.44748 9.31387C2.45157 9.3183 2.45655 9.32182 2.46209 9.32418C2.46763 9.32655 2.47361 9.32772 2.47964 9.32761C2.48567 9.32749 2.4916 9.32611 2.49705 9.32354C3.56545 8.82116 4.66372 8.39504 5.79185 8.04519C7.11908 7.63347 8.51867 7.44433 9.99061 7.47775C10.7191 7.4941 11.389 7.64094 12.0001 7.91826C13.0566 8.39718 13.6614 9.35607 13.7051 10.4958C13.7558 11.8146 13.0188 12.9319 12.0833 13.7938C11.6115 14.2282 11.2375 14.5475 10.9612 14.7516C10.6074 15.0128 10.2521 15.2717 9.89688 15.5303C8.206 16.7619 6.51927 17.9905 5.02121 19.4634C2.61385 21.8295 1.07809 24.6738 0.413938 27.9964C0.275632 28.6897 0.138749 29.4432 0.0032882 30.2571C-0.0123556 30.3517 0.0278202 30.3989 0.123816 30.3989L19.9651 30.3995C20.0135 30.3995 20.0377 30.3753 20.0377 30.3269L20.0366 25.5655C20.0366 25.5342 20.0208 25.5186 19.9891 25.5186L7.56938 25.5181C7.56125 25.5181 7.55323 25.5163 7.54594 25.5128ZM31.5341 23.8313C31.5296 23.8251 31.5238 23.8202 31.5172 23.8167C31.5105 23.8133 31.5031 23.8115 31.4957 23.8115L19.2834 23.8142C19.2589 23.8142 19.2466 23.8019 19.2466 23.7774C19.2501 22.6152 19.2501 21.4476 19.2466 20.2746C19.2461 20.1958 19.359 20.0634 19.4269 19.9838C19.4422 19.9658 19.4553 19.9505 19.4642 19.9392C23.9536 14.2452 28.4423 8.55083 32.9303 2.85613C33.0073 2.7583 33.0995 2.75897 33.2346 2.75995L33.2652 2.76014C34.5334 2.76369 35.8018 2.76671 37.0704 2.7692C37.0878 2.7692 37.0965 2.77809 37.0965 2.79587V19.208C37.0965 19.2162 37.0992 19.2241 37.1041 19.2306C37.109 19.2372 37.1159 19.242 37.1237 19.2443C37.1657 19.256 37.2101 19.2619 37.257 19.2619C38.5516 19.2594 39.844 19.2564 41.1342 19.2528C41.1426 19.2528 41.1506 19.2562 41.1565 19.2622C41.1624 19.2682 41.1657 19.2763 41.1657 19.2848L41.1641 23.8019L41.1639 23.8041C41.1638 23.8047 41.1637 23.8053 41.1635 23.8059C41.1634 23.8063 41.1632 23.8068 41.1631 23.8072C41.1624 23.8088 41.1614 23.8103 41.1601 23.8116C41.1589 23.8128 41.1574 23.8138 41.1558 23.8144C41.1542 23.8151 41.1525 23.8153 41.1508 23.8153L37.1413 23.8115C37.1381 23.8115 37.1349 23.8119 37.1318 23.8125C37.1291 23.8131 37.1264 23.8139 37.1238 23.815C37.1182 23.8173 37.1131 23.8206 37.1089 23.8248C37.1046 23.829 37.1012 23.834 37.0989 23.8395C37.0966 23.845 37.0955 23.8509 37.0955 23.8569L37.0965 30.3505C37.0965 30.3633 37.0913 30.3757 37.0821 30.3848C37.0729 30.3939 37.0605 30.399 37.0475 30.399L31.6045 30.3985C31.5686 30.3985 31.5506 30.3805 31.5506 30.3446C31.5503 28.1875 31.5513 26.0397 31.5538 23.9011C31.5538 23.8723 31.5472 23.8491 31.5341 23.8313ZM31.5213 11.5608C29.5761 14.1438 27.6217 16.7215 25.6581 19.2939C25.6529 19.3007 25.6498 19.309 25.6491 19.3175C25.6484 19.3261 25.6502 19.3347 25.6542 19.3423C25.6582 19.3499 25.6644 19.3562 25.6718 19.3605C25.6793 19.3648 25.6879 19.3668 25.6965 19.3664C26.7556 19.3035 27.8206 19.2592 28.8841 19.2571C29.7537 19.2549 30.6203 19.2548 31.4839 19.2565C31.5298 19.2565 31.5526 19.2338 31.5522 19.1883C31.5519 17.9304 31.5504 16.6881 31.5479 15.4615C31.5469 14.93 31.5984 13.8095 31.7026 12.1C31.7128 11.9349 31.7396 11.77 31.7666 11.6038L31.7666 11.6038L31.7666 11.6037C31.7792 11.5263 31.7919 11.4486 31.8029 11.3705C31.8042 11.3612 31.8029 11.3518 31.7992 11.3433C31.7954 11.3347 31.7892 11.3275 31.7814 11.3223C31.7736 11.3172 31.7645 11.3144 31.7552 11.3142C31.7459 11.314 31.7367 11.3165 31.7287 11.3214C31.6567 11.3645 31.608 11.4358 31.5637 11.5008L31.5636 11.5009C31.5493 11.5219 31.5354 11.5423 31.5213 11.5608ZM54.7778 10.0891L54.782 8.31694C54.782 8.30605 54.7777 8.29561 54.77 8.2879C54.7623 8.2802 54.7519 8.27588 54.741 8.27588L51.6024 8.27641C51.5915 8.27641 51.5811 8.27208 51.5734 8.26438C51.5657 8.25668 51.5614 8.24624 51.5614 8.23534L51.5624 4.84722C51.5624 4.83633 51.5581 4.82588 51.5504 4.81818C51.5427 4.81048 51.5323 4.80615 51.5214 4.80615H49.6729C49.662 4.80615 49.6516 4.81048 49.6439 4.81818C49.6362 4.82588 49.6318 4.83633 49.6318 4.84722L49.6324 10.0886C49.6324 10.0995 49.6367 10.1099 49.6444 10.1176C49.6521 10.1253 49.6625 10.1297 49.6734 10.1297L54.7367 10.1302C54.7476 10.1302 54.758 10.1259 54.7657 10.1182C54.7734 10.1105 54.7778 10.1 54.7778 10.0891Z" fill="#3A77DC"/>
</svg>
