<svg width="19" height="27" viewBox="0 0 19 27" fill="none" xmlns="http://www.w3.org/2000/svg">
<path fill-rule="evenodd" clip-rule="evenodd" d="M9.33333 2.66667C5.65144 2.66667 2.66667 5.65144 2.66667 9.33333C2.66667 13.0505 4.81559 18.4897 9.33333 23.4071C13.8511 18.4897 16 13.0505 16 9.33333C16 5.65144 13.0152 2.66667 9.33333 2.66667ZM0 9.33333C0 4.17868 4.17868 0 9.33333 0C14.488 0 18.6667 4.17868 18.6667 9.33333C18.6667 14.2029 15.7807 20.7715 10.2761 26.2761C9.75544 26.7968 8.91122 26.7968 8.39052 26.2761C2.88593 20.7715 0 14.2029 0 9.33333Z" fill="#A0ABBB"/>
<path fill-rule="evenodd" clip-rule="evenodd" d="M9.33333 10.6667C10.0697 10.6667 10.6667 10.0697 10.6667 9.33333C10.6667 8.59695 10.0697 8 9.33333 8C8.59695 8 8 8.59695 8 9.33333C8 10.0697 8.59695 10.6667 9.33333 10.6667ZM9.33333 13.3333C11.5425 13.3333 13.3333 11.5425 13.3333 9.33333C13.3333 7.12419 11.5425 5.33333 9.33333 5.33333C7.12419 5.33333 5.33333 7.12419 5.33333 9.33333C5.33333 11.5425 7.12419 13.3333 9.33333 13.3333Z" fill="#A0ABBB"/>
</svg>
