<svg width="34" height="40" viewBox="0 0 34 40" fill="none" xmlns="http://www.w3.org/2000/svg">
<path d="M27.2 31.2V2.4C27.2 1.76348 26.9471 1.15303 26.4971 0.702944C26.047 0.252856 25.4365 0 24.8 0L2.4 0C1.76348 0 1.15303 0.252856 0.702944 0.702944C0.252856 1.15303 0 1.76348 0 2.4V31.2C0 31.8365 0.252856 32.447 0.702944 32.8971C1.15303 33.3471 1.76348 33.6 2.4 33.6H24.8C25.4365 33.6 26.047 33.3471 26.4971 32.8971C26.9471 32.447 27.2 31.8365 27.2 31.2ZM2.4 32C2.18783 32 1.98434 31.9157 1.83431 31.7657C1.68429 31.6157 1.6 31.4122 1.6 31.2V2.4C1.6 2.18783 1.68429 1.98434 1.83431 1.83431C1.98434 1.68429 2.18783 1.6 2.4 1.6H24.8C25.0122 1.6 25.2157 1.68429 25.3657 1.83431C25.5157 1.98434 25.6 2.18783 25.6 2.4V31.2C25.6 31.4122 25.5157 31.6157 25.3657 31.7657C25.2157 31.9157 25.0122 32 24.8 32H2.4ZM31.2 40H7.2C6.98783 40 6.78434 39.9157 6.63431 39.7657C6.48429 39.6157 6.4 39.4122 6.4 39.2C6.4 38.9878 6.48429 38.7843 6.63431 38.6343C6.78434 38.4843 6.98783 38.4 7.2 38.4H31.2C31.4122 38.4 31.6157 38.3157 31.7657 38.1657C31.9157 38.0157 32 37.8122 32 37.6V7.2C32 6.98783 32.0843 6.78434 32.2343 6.63431C32.3843 6.48429 32.5878 6.4 32.8 6.4C33.0122 6.4 33.2157 6.48429 33.3657 6.63431C33.5157 6.78434 33.6 6.98783 33.6 7.2V37.6C33.6 38.2365 33.3471 38.847 32.8971 39.2971C32.447 39.7471 31.8365 40 31.2 40Z" fill="black"/>
<path d="M17.5359 7.48185C17.6063 7.42407 17.6922 7.38817 17.7828 7.37857C17.8734 7.36898 17.9649 7.38611 18.0459 7.42785L17.5359 7.48185ZM21.0039 18.5318C20.9207 18.6319 20.8792 18.76 20.8879 18.8898C20.895 19.0198 20.9515 19.1422 21.0459 19.2318C21.0924 19.2757 21.1474 19.3094 21.2076 19.3311C21.2677 19.3527 21.3316 19.3617 21.3954 19.3576C21.4592 19.3535 21.5215 19.3363 21.5783 19.3071C21.6351 19.2779 21.6854 19.2373 21.7259 19.1878C22.2579 18.5478 22.5499 17.7258 22.5499 16.8748C22.5515 16.0335 22.2601 15.2178 21.7259 14.5678L21.7229 14.5638C21.6815 14.5175 21.6313 14.4799 21.5752 14.4532C21.5191 14.4266 21.4582 14.4114 21.3962 14.4086C21.3341 14.4058 21.2722 14.4155 21.2139 14.437C21.1556 14.4585 21.1022 14.4914 21.0569 14.5338C20.9653 14.6212 20.909 14.7391 20.8987 14.8652C20.8883 14.9913 20.9247 15.1168 21.0009 15.2178L21.0039 15.2218C21.3819 15.6788 21.5919 16.2668 21.5919 16.8768C21.5919 17.4868 21.3819 18.0758 21.0039 18.5318ZM21.0039 18.5318L21.0999 18.6118L21.0039 18.5318ZM21.0039 18.5318L21.0999 18.6118L21.0039 18.5318ZM21.0999 18.6118C21.0367 18.6871 21.0052 18.7839 21.0119 18.8818C21.0179 18.9818 21.0609 19.0748 21.1319 19.1408C21.166 19.1729 21.2063 19.1976 21.2504 19.2134C21.2945 19.2292 21.3413 19.2358 21.388 19.2327C21.4348 19.2296 21.4803 19.2169 21.522 19.1954C21.5636 19.174 21.6003 19.1441 21.6299 19.1078L21.0999 15.1428C21.5008 15.6316 21.7189 16.2447 21.7169 16.8768C21.7189 17.509 21.5008 18.1231 21.0999 18.6118ZM7.00686 19.8738V13.8738C7.00686 13.8048 7.03187 13.7408 7.07587 13.6938C7.11887 13.6478 7.17587 13.6238 7.23487 13.6238H10.9949V20.1238H7.23487C7.20498 20.1237 7.17544 20.1174 7.14809 20.1054C7.12074 20.0933 7.09615 20.0758 7.07587 20.0538C7.03046 20.0049 7.00643 19.9406 7.00686 19.8738ZM17.3539 8.91085V24.8428L11.9519 20.3788V13.3698L17.3539 8.90985V8.91085Z" fill="black"/>
<path d="M17.5359 7.48185C17.6063 7.42407 17.6922 7.38817 17.7828 7.37857C17.8734 7.36898 17.9649 7.38611 18.0459 7.42785L17.5359 7.48185ZM17.5359 7.48185L11.3079 12.6248M21.0039 18.5318C20.9207 18.6319 20.8792 18.76 20.8879 18.8898C20.895 19.0198 20.9515 19.1422 21.0459 19.2318C21.0924 19.2757 21.1474 19.3094 21.2076 19.3311C21.2677 19.3527 21.3317 19.3617 21.3954 19.3576C21.4592 19.3535 21.5214 19.3363 21.5783 19.3071C21.6351 19.2779 21.6854 19.2373 21.7259 19.1878C22.2579 18.5478 22.5499 17.7258 22.5499 16.8748C22.5515 16.0335 22.2601 15.2178 21.7259 14.5678L21.7229 14.5638C21.6815 14.5175 21.6313 14.4799 21.5752 14.4532C21.5191 14.4266 21.4582 14.4114 21.3962 14.4086C21.3341 14.4058 21.2722 14.4155 21.2139 14.437C21.1556 14.4585 21.1022 14.4914 21.0569 14.5338C20.9653 14.6212 20.909 14.7391 20.8987 14.8652C20.8883 14.9913 20.9247 15.1168 21.0009 15.2178L21.0039 15.2218C21.3819 15.6788 21.5919 16.2668 21.5919 16.8768C21.5919 17.4868 21.3819 18.0758 21.0039 18.5318ZM21.0039 18.5318L21.0999 18.6118M21.0999 18.6118C21.0367 18.6871 21.0052 18.7839 21.0119 18.8818C21.0179 18.9818 21.0609 19.0748 21.1319 19.1408C21.166 19.1729 21.2063 19.1976 21.2504 19.2134C21.2945 19.2292 21.3413 19.2358 21.388 19.2327C21.4348 19.2296 21.4803 19.2169 21.522 19.1954C21.5636 19.174 21.6003 19.1441 21.6299 19.1078L21.0999 15.1428C21.5008 15.6316 21.7189 16.2447 21.7169 16.8768C21.7189 17.509 21.5008 18.1231 21.0999 18.6118ZM7.00686 19.8738V13.8738C7.00686 13.8048 7.03187 13.7408 7.07587 13.6938C7.11887 13.6478 7.17587 13.6238 7.23487 13.6238H10.9949V20.1238H7.23487C7.20498 20.1237 7.17544 20.1174 7.14809 20.1054C7.12074 20.0933 7.09615 20.0758 7.07587 20.0538C7.03046 20.0049 7.00643 19.9406 7.00686 19.8738ZM17.3539 8.91085V24.8428L11.9519 20.3788V13.3698L17.3539 8.90985V8.91085Z" stroke="black" stroke-width="0.25"/>
</svg>
