<svg width="651" height="486" viewBox="0 0 651 486" fill="none" xmlns="http://www.w3.org/2000/svg">
<path d="M114.397 27.4516C117.47 14.9652 112.017 3.19724 102.218 1.16744C92.4192 -0.86237 81.9843 7.61428 78.9111 20.1007C75.838 32.587 81.2909 44.3547 91.0898 46.3848C100.889 48.4146 111.324 39.9379 114.397 27.4516Z" fill="#74DAEE"/>
<path d="M596.828 484.824C596.828 484.824 666.818 390.214 610.312 278.231C584.946 227.962 531.274 269.182 466.813 257.975C440.477 253.396 349.567 230.155 297.018 133.195C225.355 0.969063 -23.0552 81.1647 22.2377 284.599C44.1564 383.046 -44.469 386.624 0.688843 485.032L596.828 484.824Z" fill="#74DAEE"/>
<path d="M-34.3345 485.878H637.889C638.254 485.878 638.554 485.603 638.554 485.268V484.797C638.554 484.461 638.254 484.187 637.889 484.187H-34.3352C-34.7009 484.187 -34.9998 484.461 -34.9998 484.797V485.268C-34.9995 485.603 -34.7002 485.878 -34.3345 485.878Z" fill="#4A2C6A"/>
<path d="M268.192 484.034L268.346 484.031C269.603 484.009 270.573 483.01 270.455 481.862L262.07 400.507L254.754 401.142L266.793 482.934C266.888 483.573 267.489 484.046 268.192 484.034Z" fill="#FFC22A"/>
<path d="M187.457 484.034L187.304 484.031C186.047 484.009 185.076 483.01 185.194 481.862L193.579 400.507L200.896 401.142L188.856 482.934C188.762 483.573 188.16 484.046 187.457 484.034Z" fill="#FFC22A"/>
<path d="M327.344 484.034L327.498 484.031C328.754 484.009 329.725 483.01 329.606 481.862L321.222 400.507L313.906 401.142L325.945 482.934C326.039 483.573 326.641 484.046 327.344 484.034Z" fill="#FFC22A"/>
<path d="M189.954 392.59L155.669 279.67H231.402L263.854 388.673L189.954 392.59Z" fill="#FFC22A"/>
<path d="M194.521 401.697H307.247C309.758 401.697 311.812 399.812 311.812 397.508V392.862C311.812 390.558 309.758 388.673 307.247 388.673H194.521C192.01 388.673 189.955 390.558 189.955 392.862V397.508C189.955 399.812 192.009 401.697 194.521 401.697Z" fill="#FFC22A"/>
<path d="M264.104 401.697H342.805C344.92 401.697 346.649 400.11 346.649 398.17V392.2C346.649 390.26 344.92 388.673 342.805 388.673H264.104C261.99 388.673 260.26 390.261 260.26 392.2V398.17C260.26 400.11 261.99 401.697 264.104 401.697Z" fill="#FFC22A"/>
<path d="M165.955 325.693C166.938 330.862 169.702 335.396 169.88 335.805C171.38 339.217 179.609 320.499 179.609 320.499L180.838 313.288L182.835 301.576L183.396 298.288L185.632 285.181L185.08 283.189L182.393 273.508L182.635 271.3C182.635 271.3 174.34 275.512 172.082 283.503C171.282 286.333 170.127 292.332 169.03 299.046C168.859 300.097 167.894 300.532 167.727 301.609C166.314 310.748 165.097 321.179 165.955 325.693Z" fill="#E8A489"/>
<path d="M317.662 336.81C317.662 336.81 315.358 335.681 313.336 335.522C301.93 334.621 277.199 326.856 274.581 325.077C269.75 321.796 249.563 306.216 241.606 298.353C241.599 298.348 234.941 291.166 234.941 291.166C227.411 283.729 234.24 270.746 234.24 270.746C234.24 270.746 247.172 275.784 251.85 280.742C254.904 283.978 278.278 310.533 281.195 311.838C290.699 316.089 317.645 330.599 320.457 331.737C320.456 331.737 324.107 334.063 317.662 336.81Z" fill="#FFB792"/>
<path d="M388.763 465.224C388.763 465.224 387.198 483.83 390.679 484.077C391.142 484.11 408.33 484.11 408.33 484.11L430.271 483.988C430.271 483.988 430.128 478.927 423.714 477.857C417.301 476.787 404.606 471.621 400.721 463.506C396.634 454.968 388.763 465.224 388.763 465.224Z" fill="#4A2C76"/>
<path d="M236.055 350.958C236.055 350.958 237.987 384.691 241.354 390.567C241.354 390.567 242.858 390.081 253.841 389.991C267.132 389.882 330.6 389.649 338.212 393.183C340.592 394.288 347.418 420.578 388.189 465.815C388.189 465.815 392.247 468.319 398.445 467.906C404.36 467.511 404.857 466.506 404.857 466.506C404.857 466.506 366.07 375.551 357.481 368.059C344.361 356.613 277.19 344.84 267.362 344.576C257.534 344.313 236.055 350.958 236.055 350.958Z" fill="#FF4A1E"/>
<path d="M343.274 466.011C343.274 466.011 341.71 483.842 345.19 484.079C345.653 484.11 362.841 484.11 362.841 484.11L384.783 483.994C384.783 483.994 384.639 479.143 378.226 478.118C371.812 477.092 359.118 472.141 355.233 464.363C351.146 456.182 343.274 466.011 343.274 466.011Z" fill="#4A2C76"/>
<path d="M210.811 350.958C210.811 350.958 211.345 360.284 212.34 369.983C213.567 381.93 221.642 389.525 234.651 390.772C243.41 391.611 253.762 391.167 260.601 391.132C293.581 390.963 305.355 389.648 312.966 393.182C315.347 394.288 304.025 410.878 342.625 465.815C342.625 465.815 345.536 467.951 351.988 468.793C355.836 469.295 360.277 467.951 360.277 467.951C360.277 467.951 348.299 381.561 338.54 371.57C331.562 364.426 276.224 356.047 266.396 355.783C256.568 355.52 210.811 350.958 210.811 350.958Z" fill="#FF7042"/>
<path d="M165.954 303.138C165.954 303.138 172.716 308.753 183.992 307.785C184.631 310.783 185.428 314.116 186.36 317.644C186.438 317.937 186.515 318.233 186.596 318.529C188.064 324.02 189.848 329.951 191.851 335.803C197.664 352.802 205.33 369.17 212.596 372.391C213.357 372.728 234.947 372.542 249.726 367.267C254.004 365.74 258.117 363.401 261.831 360.814C267.219 357.061 271.767 352.787 274.752 349.721C276.897 347.516 276.678 344.132 274.271 342.164C268.709 337.615 259.446 329.576 257.362 324.864C255.604 320.889 253.01 312.527 250.936 305.447C261.857 302.789 264.351 291.891 264.351 291.891C264.351 291.891 246.471 274.03 240.87 270.745C233.54 266.447 223.842 265.897 220.045 265.299C210.724 263.831 199.749 264.085 182.634 271.299C182.634 271.299 172.942 276.106 170.361 285.379C167.78 294.652 165.954 303.138 165.954 303.138Z" fill="#744DA5"/>
<path d="M210.37 278.182C219.556 278.82 220.353 272.016 220.353 272.016L220.145 267.504L219.903 262.204C219.903 262.204 213.25 258.984 208.005 256.753C204.658 255.331 201.882 254.311 201.772 254.789C201.006 258.086 198.793 264.658 196.494 267.614C195.148 272.731 201.181 277.543 210.37 278.182Z" fill="#E8A489"/>
<path d="M223.3 263.634C223.3 263.634 200.23 265.548 199.152 252.349C198.075 239.15 194.371 230.508 209.055 228.728C223.738 226.948 227.015 231.787 228.543 236.112C230.071 240.438 229.273 262.796 223.3 263.634Z" fill="#FFB792"/>
<path d="M190.961 227.819C190.747 227.597 190.258 227.419 189.169 227.368C189.169 227.368 190.037 226.866 191.2 226.836C191.422 225.447 192.217 222.987 194.818 222.382C194.818 222.382 193.422 223.071 193.245 224.547C196.249 221.695 202.703 219.605 220.602 220.839C244.192 222.467 236.476 236.346 233.43 238.008C230.383 239.67 222.68 235.169 216.993 235.602C211.306 236.035 210.255 243.58 208.329 244.622C206.404 245.663 207.155 243.831 204.54 242.757C201.925 241.683 201.692 245.653 202.457 248.231C203.222 250.809 199.648 254.226 199.648 254.226C199.648 254.226 199.648 254.226 196.008 250.656C192.368 247.086 188.89 231.926 190.525 228.686C190.67 228.401 190.813 228.11 190.961 227.819Z" fill="#4A2C76"/>
<path d="M225.912 255.847C225.912 255.847 225.124 257.974 222.545 257.974C218.885 257.974 217.446 255.663 217.446 255.663C217.446 255.663 222.394 254.535 225.912 255.847Z" fill="#DBFAFC"/>
<path d="M214.397 263.381C214.397 263.381 216.224 260.596 214.397 260.033C205.016 257.147 202.276 258.777 202.276 258.777L214.397 263.381Z" fill="#E8A489"/>
<path d="M199.163 271.258C199.163 271.258 198.337 258.52 203.214 258.616C208.09 258.712 214.113 260.138 214.344 261.28C214.991 264.482 209.37 275.336 206.581 275.819C203.792 276.302 199.163 271.258 199.163 271.258Z" fill="#FFB792"/>
<path d="M186.595 318.529C188.063 324.02 189.847 329.952 191.85 335.804C197.664 352.802 205.329 369.171 212.595 372.391C213.356 372.729 234.946 372.542 249.725 367.267C254.003 365.74 258.117 363.402 261.83 360.815C251.932 363.547 235.633 360.992 220.351 356.206C203.977 351.074 203.174 332.527 203.174 332.527C198.441 322.265 204.597 287.122 204.597 287.122L186.595 318.529Z" fill="#56309E"/>
<path d="M207.264 275.501C207.264 275.501 194.149 340.902 176.821 340.94C170.146 340.955 161.972 325.041 170.791 315.983C183.45 302.98 199.164 271.258 199.164 271.258C199.164 271.258 201.362 269.989 207.264 275.501Z" fill="#FFB792"/>
<path d="M320.455 331.737C320.455 331.737 325.923 332.588 328.78 331.737C331.638 330.886 349.106 337.064 347.008 337.213C344.911 337.361 334.446 335.942 332.007 336.13C329.567 336.319 328.265 336.424 329.222 337.223C330.178 338.024 336.953 338.249 334.587 338.939C332.221 339.63 326.414 339.433 323.94 338.939C321.468 338.446 318.785 337.356 317.151 336.58C315.318 335.709 320.455 331.737 320.455 331.737Z" fill="#FFB792"/>
<path d="M340.661 341.231H296.802C296.802 339.459 298.368 338.023 300.298 338.023H340.661V341.231Z" fill="#4A2C76"/>
<path d="M340.535 297.408H408.344L392.079 341.231H323.83L340.535 297.408Z" fill="#4A2C76"/>
<path d="M409.343 297.407L393.078 341.231H324.829L341.534 297.407H409.343Z" fill="#6139BC"/>
<path d="M372.785 318.914C372.363 320.588 370.542 321.946 368.717 321.946C366.892 321.946 365.754 320.588 366.175 318.914C366.597 317.24 368.418 315.882 370.243 315.882C372.068 315.882 373.206 317.24 372.785 318.914Z" fill="#FFDD71"/>
<path d="M577.207 421.421C577.207 421.421 566.236 409.678 576.531 402.219C576.531 402.219 584.051 398.042 590.182 398.381C590.182 398.381 581.494 411.748 584.305 413.077C587.116 414.407 592.816 397.542 592.816 397.542C592.816 397.542 609.929 396.02 615.434 398.448C615.434 398.448 600.804 409.432 603.886 410.085C606.967 410.74 622.768 399.959 622.768 399.959C622.768 399.959 638.695 402.445 637.846 411.359C636.997 420.273 631.509 423.026 629.097 422.789C626.685 422.552 612.575 417.611 612.268 419.424C611.96 421.237 620.454 427.163 626.401 427.44C626.401 427.44 615.172 438.801 607.709 435.523C600.246 432.243 599.609 427.046 594.957 425.097C590.305 423.147 586.334 423.152 588.255 425.14C590.175 427.128 598.595 429.06 601.255 433.378C603.916 437.695 606.302 440.607 598.581 439.541C590.86 438.475 578.31 433.292 577.758 427.356C577.207 421.421 577.207 421.421 577.207 421.421Z" fill="#4A2C6A"/>
<path d="M630.02 411.599C630.02 411.599 586.76 410.07 577.207 421.42C577.207 421.42 575.094 427.226 568.593 432.512L567.579 435.046C567.579 435.046 575.076 427.795 577.758 427.356C577.758 427.356 573.563 413.294 630.02 411.599Z" fill="#4A2C6A"/>
<path d="M568.593 432.512C568.593 432.512 559.308 438.812 558.663 450.069L560.348 450.208C560.348 450.208 563.313 438.568 568.674 434.016C574.034 429.465 568.593 432.512 568.593 432.512Z" fill="#4A2C6A"/>
<path d="M538.846 406.653C538.846 406.653 556.3 397.686 548.155 385.516C548.155 385.516 541.639 378.044 534.658 376.123C534.658 376.123 538.381 394.27 534.658 394.697C530.934 395.124 532.098 374.201 532.098 374.201C532.098 374.201 513.714 366.088 506.5 366.728C506.5 366.728 517.903 384.449 514.18 384.022C510.456 383.595 497.657 365.661 497.657 365.661C497.657 365.661 478.808 362.458 475.783 372.706C472.758 382.954 477.645 388.078 480.437 388.719C483.229 389.359 501.148 389.146 500.682 391.281C500.217 393.415 488.116 396.831 481.368 394.91C481.368 394.91 488.814 411.776 498.588 410.922C508.362 410.068 511.387 404.518 517.437 404.091C523.488 403.663 527.909 405.158 524.884 406.653C521.859 408.147 511.619 407.142 506.733 410.954C501.846 414.765 497.89 417.114 506.965 418.821C516.041 420.53 532.331 419.462 535.588 413.057C538.846 406.652 538.846 406.653 538.846 406.653Z" fill="#4A2C6A"/>
<path d="M484.392 375.909C484.392 375.909 533.26 390.427 538.845 406.653C538.845 406.653 538.612 413.911 543.499 422.238V425.44C543.499 425.44 538.38 414.552 535.587 413.058C535.587 413.058 546.524 398.967 484.392 375.909Z" fill="#4A2C6A"/>
<path d="M543.5 422.238C543.5 422.238 551.036 432.737 546.74 445.518L544.801 445.04C544.801 445.04 546.683 430.963 542.74 423.883C538.797 416.803 543.5 422.238 543.5 422.238Z" fill="#4A2C6A"/>
<path d="M566.613 394.286C566.613 394.286 543.607 382.466 554.343 366.424C554.343 366.424 562.932 356.574 572.134 354.042C572.134 354.042 567.227 377.963 572.134 378.526C577.042 379.089 575.509 351.509 575.509 351.509C575.509 351.509 599.742 340.814 609.251 341.659C609.251 341.659 594.22 365.017 599.128 364.454C604.036 363.891 620.907 340.251 620.907 340.251C620.907 340.251 645.754 336.03 649.742 349.539C653.73 363.047 647.288 369.802 643.607 370.646C639.926 371.49 616.306 371.209 616.92 374.023C617.533 376.837 633.484 381.34 642.38 378.807C642.38 378.807 632.564 401.04 619.68 399.914C606.797 398.789 602.809 391.472 594.834 390.909C586.858 390.346 581.03 392.316 585.018 394.286C589.006 396.256 602.502 394.931 608.945 399.956C615.386 404.98 620.601 408.076 608.638 410.327C596.674 412.579 575.202 411.172 570.907 402.729C566.613 394.286 566.613 394.286 566.613 394.286Z" fill="#7C409C"/>
<path d="M638.393 353.76C638.393 353.76 573.975 372.897 566.613 394.286C566.613 394.286 566.92 403.854 560.478 414.83V419.052C560.478 419.052 567.227 404.699 570.907 402.729C570.907 402.729 556.49 384.155 638.393 353.76Z" fill="#7C409C"/>
<path d="M560.477 414.83C560.477 414.83 550.543 428.67 556.206 445.518L558.762 444.888C558.762 444.888 556.281 426.332 561.478 416.999C566.676 407.666 560.477 414.83 560.477 414.83Z" fill="#7C409C"/>
<path d="M565.838 482.053C590.726 482.053 610.903 463.541 610.903 440.707H520.772C520.772 463.542 540.948 482.053 565.838 482.053Z" fill="#7C409C"/>
<path d="M611.525 484.157H520.15C520.15 481.339 522.639 479.056 525.709 479.056H605.966C609.036 479.056 611.525 481.339 611.525 484.157Z" fill="#7C409C"/>
<path d="M611.928 441.975H519.29V440.707H611.928V441.975Z" fill="#4A2C6A"/>
<path d="M131.057 370.114V372.997C131.057 374.007 130.7 374.832 130.265 374.832H15.5588C15.1243 374.832 14.7676 374.007 14.7676 372.997V370.114C14.7676 369.106 15.1243 368.28 15.5588 368.28H130.265C130.7 368.28 131.057 369.106 131.057 370.114Z" fill="#4A2C76"/>
<path d="M131.057 370.114V372.997C131.057 374.007 130.73 374.832 130.331 374.832H39.2657C38.8668 374.832 38.5397 374.007 38.5397 372.997V370.114C38.5397 369.106 38.8668 368.28 39.2657 368.28H130.331C130.73 368.28 131.057 369.106 131.057 370.114Z" fill="#6139BC"/>
<path d="M102.025 483.729H20.5898L20.5898 374.832H102.025L102.025 483.729Z" fill="#6139BC"/>
<path d="M124.846 483.729H43.4111L43.4111 374.832H124.846L124.846 483.729Z" fill="#744DA5"/>
<path d="M120.472 377.909H47.7885V477.717H120.472V377.909ZM48.5737 378.629H119.687V476.997H48.5737V378.629Z" fill="#4A2C76"/>
<path d="M48.181 410.926H120.079V411.646H48.181V410.926Z" fill="#4A2C76"/>
<path d="M48.181 444.587H120.079V445.307H48.181V444.587Z" fill="#4A2C76"/>
<path d="M91.4967 384.346H78.155C77.5075 384.346 76.9778 383.86 76.9778 383.266C76.9778 382.672 77.5078 382.186 78.155 382.186H91.4967C92.1441 382.186 92.6738 382.672 92.6738 383.266C92.6738 383.86 92.1441 384.346 91.4967 384.346Z" fill="#4A2C76"/>
<path d="M91.4967 417.262H78.155C77.5075 417.262 76.9778 416.776 76.9778 416.183C76.9778 415.589 77.5078 415.102 78.155 415.102H91.4967C92.1441 415.102 92.6738 415.589 92.6738 416.183C92.6738 416.776 92.1441 417.262 91.4967 417.262Z" fill="#4A2C76"/>
<path d="M91.4967 451.576H78.155C77.5075 451.576 76.9778 451.089 76.9778 450.496C76.9778 449.901 77.5078 449.416 78.155 449.416H91.4967C92.1441 449.416 92.6738 449.901 92.6738 450.496C92.6738 451.09 92.1441 451.576 91.4967 451.576Z" fill="#4A2C76"/>
<path d="M101.865 195.704H152.222C154.724 195.704 156.771 193.826 156.771 191.531V146.959C156.771 144.664 154.724 142.786 152.222 142.786H101.865C99.3636 142.786 97.3163 144.664 97.3163 146.959V191.531C97.3163 193.826 99.3636 195.704 101.865 195.704Z" fill="#7C409C"/>
<path d="M104.047 193.412H150.041C152.326 193.412 154.195 191.697 154.195 189.6V148.89C154.195 146.794 152.326 145.079 150.041 145.079H104.047C101.762 145.079 99.8926 146.794 99.8926 148.89V189.601C99.8926 191.697 101.762 193.412 104.047 193.412Z" fill="#DBFAFC"/>
<path d="M128.274 149.908C128.274 149.284 127.723 148.778 127.043 148.778C126.363 148.778 125.811 149.284 125.811 149.908C125.811 150.532 126.363 151.038 127.043 151.038C127.723 151.038 128.274 150.532 128.274 149.908Z" fill="#7C409C"/>
<path d="M118.336 151.505C118.005 150.96 117.255 150.763 116.661 151.066C116.066 151.369 115.852 152.057 116.183 152.603C116.513 153.148 117.263 153.345 117.858 153.042C118.452 152.738 118.666 152.05 118.336 151.505Z" fill="#7C409C"/>
<path d="M109.824 157.711C109.252 157.372 108.489 157.523 108.121 158.047C107.752 158.571 107.916 159.271 108.488 159.609C109.06 159.948 109.822 159.797 110.191 159.272C110.56 158.748 110.395 158.049 109.824 157.711Z" fill="#7C409C"/>
<path d="M105.606 167.316C104.926 167.316 104.375 167.822 104.375 168.446C104.375 169.07 104.926 169.576 105.606 169.576C106.286 169.576 106.838 169.07 106.838 168.446C106.838 167.822 106.286 167.316 105.606 167.316Z" fill="#7C409C"/>
<path d="M107.759 178.462C107.278 178.903 107.278 179.618 107.759 180.06C108.24 180.501 109.02 180.501 109.501 180.06C109.982 179.618 109.982 178.903 109.501 178.462C109.02 178.021 108.24 178.021 107.759 178.462Z" fill="#7C409C"/>
<path d="M115.492 185.576C115.011 186.017 115.011 186.732 115.492 187.174C115.973 187.615 116.753 187.615 117.234 187.174C117.715 186.732 117.715 186.017 117.234 185.576C116.753 185.134 115.973 185.134 115.492 185.576Z" fill="#7C409C"/>
<path d="M128.274 189.243C128.274 188.619 127.723 188.113 127.043 188.113C126.363 188.113 125.811 188.619 125.811 189.243C125.811 189.867 126.363 190.373 127.043 190.373C127.723 190.373 128.274 189.867 128.274 189.243Z" fill="#7C409C"/>
<path d="M135.789 151.505C136.12 150.96 136.869 150.763 137.464 151.066C138.059 151.369 138.273 152.057 137.942 152.603C137.612 153.148 136.862 153.345 136.267 153.042C135.673 152.738 135.459 152.05 135.789 151.505Z" fill="#7C409C"/>
<path d="M144.304 157.711C144.875 157.372 145.637 157.523 146.006 158.048C146.375 158.572 146.211 159.271 145.639 159.61C145.067 159.948 144.305 159.797 143.936 159.273C143.568 158.749 143.732 158.049 144.304 157.711Z" fill="#7C409C"/>
<path d="M148.52 167.316C149.201 167.316 149.752 167.822 149.752 168.446C149.752 169.07 149.201 169.576 148.52 169.576C147.84 169.576 147.288 169.07 147.288 168.446C147.288 167.822 147.84 167.316 148.52 167.316Z" fill="#7C409C"/>
<path d="M146.367 178.462C146.848 178.903 146.848 179.619 146.367 180.06C145.886 180.501 145.106 180.501 144.625 180.06C144.144 179.619 144.144 178.903 144.625 178.462C145.106 178.021 145.886 178.021 146.367 178.462Z" fill="#7C409C"/>
<path d="M138.634 185.576C139.115 186.018 139.115 186.733 138.634 187.174C138.153 187.615 137.373 187.615 136.892 187.174C136.411 186.733 136.411 186.018 136.892 185.576C137.373 185.135 138.153 185.135 138.634 185.576Z" fill="#7C409C"/>
<path d="M127.376 168.445C127.376 167.821 126.824 167.315 126.144 167.315C125.464 167.315 124.913 167.821 124.913 168.445C124.913 169.069 125.464 169.575 126.144 169.575C126.824 169.575 127.376 169.07 127.376 168.445Z" fill="#7C409C"/>
<path d="M125.975 154.331H126.312V168.446H125.975V154.331Z" fill="#7C409C"/>
<path d="M118.442 162.166L126.599 168.041L125.976 168.769L117.819 162.894L118.442 162.166Z" fill="#7C409C"/>
<path d="M478.873 349.136H148.939C146.472 349.136 144.472 347.302 144.472 345.038C144.472 342.775 146.472 340.94 148.939 340.94H478.873C481.34 340.94 483.34 342.775 483.34 345.038C483.34 347.302 481.34 349.136 478.873 349.136Z" fill="#EE8914"/>
<path d="M469.832 484.143L469.93 484.131C471.097 483.987 471.924 482.952 471.776 481.816L454.002 345.038L444.041 345.322L467.929 482.768C468.081 483.648 468.921 484.255 469.832 484.143Z" fill="#EE8914"/>
<path d="M157.63 484.143L157.532 484.131C156.365 483.987 155.539 482.952 155.686 481.816L173.46 345.038L183.421 345.322L159.533 482.768C159.381 483.648 158.541 484.255 157.63 484.143Z" fill="#EE8914"/>
<path d="M314.156 176.243C314.156 171.666 310.112 167.956 305.123 167.956C300.134 167.956 296.089 171.666 296.089 176.243C296.089 180.82 300.134 184.531 305.123 184.531C310.112 184.531 314.156 180.82 314.156 176.243Z" fill="#DBFAFC"/>
<path d="M277.843 195.301C277.843 192.686 275.533 190.567 272.683 190.567C269.832 190.567 267.522 192.686 267.522 195.301C267.522 197.916 269.832 200.036 272.683 200.036C275.533 200.036 277.843 197.916 277.843 195.301Z" fill="#DBFAFC"/>
<path d="M262.322 217.027C262.322 215.494 260.969 214.252 259.298 214.252C257.628 214.252 256.273 215.494 256.273 217.027C256.273 218.559 257.627 219.802 259.298 219.802C260.969 219.801 262.322 218.559 262.322 217.027Z" fill="#DBFAFC"/>
</svg>
