<svg width="44" height="40" viewBox="0 0 44 40" fill="none" xmlns="http://www.w3.org/2000/svg">
<path d="M39.131 4.60024e-07H4.35C3.77884 -0.000262261 3.21323 0.112008 2.68548 0.330398C2.15772 0.548788 1.67817 0.869018 1.27421 1.27279C0.870246 1.67657 0.549796 2.15598 0.331163 2.68363C0.112531 3.21129 -6.04234e-08 3.77684 0 4.348V28.696C0 29.8492 0.458092 30.9551 1.2735 31.7705C2.08891 32.5859 3.19484 33.044 4.348 33.044H39.13C40.2832 33.044 41.3891 32.5859 42.2045 31.7705C43.0199 30.9551 43.478 29.8492 43.478 28.696V4.348C43.478 3.19501 43.0201 2.08923 42.2049 1.27385C41.3897 0.458474 40.284 0.000265637 39.131 4.60024e-07ZM41.74 28.696C41.7397 29.3878 41.4647 30.0511 40.9755 30.5402C40.4862 31.0293 39.8228 31.304 39.131 31.304H4.35C4.00738 31.3041 3.66809 31.2368 3.3515 31.1058C3.03491 30.9748 2.74723 30.7827 2.50487 30.5405C2.2625 30.2984 2.07022 30.0108 1.93898 29.6943C1.80775 29.3779 1.74013 29.0386 1.74 28.696V4.348C1.74 3.65605 2.01488 2.99244 2.50416 2.50316C2.99344 2.01388 3.65705 1.739 4.349 1.739H39.13C39.4727 1.73887 39.8121 1.80626 40.1287 1.93731C40.4454 2.06837 40.7331 2.26052 40.9755 2.50281C41.2179 2.74509 41.4101 3.03274 41.5413 3.34935C41.6725 3.66595 41.74 4.0053 41.74 4.348V28.696ZM29.566 39.13C29.566 39.3607 29.4743 39.582 29.3112 39.7452C29.148 39.9083 28.9267 40 28.696 40H14.784C14.5533 40 14.332 39.9083 14.1688 39.7452C14.0057 39.582 13.914 39.3607 13.914 39.13C13.914 38.8993 14.0057 38.678 14.1688 38.5148C14.332 38.3517 14.5533 38.26 14.784 38.26H28.696C28.9267 38.26 29.148 38.3517 29.3112 38.5148C29.4743 38.678 29.566 38.8993 29.566 39.13Z" fill="black"/>
<path d="M21.7622 17.4237L16.8782 20.9537C16.8024 21.0087 16.7122 21.0405 16.6187 21.0453C16.5251 21.0501 16.4322 21.0277 16.3512 20.9807C16.2431 20.9185 16.164 20.816 16.1312 20.6957C16.1067 20.6057 16.1105 20.5104 16.1422 20.4227C16.1739 20.335 16.2318 20.2592 16.3082 20.2057L21.7622 17.4237ZM21.7622 17.4237V24.6597C21.7637 24.747 21.7894 24.8321 21.8363 24.9057C21.8833 24.9793 21.9497 25.0385 22.0282 25.0767C22.1074 25.1145 22.1953 25.1304 22.2827 25.1227C22.3701 25.115 22.4539 25.0839 22.5252 25.0327L28.1722 20.9527C28.2312 20.9099 28.2793 20.8538 28.3129 20.7891C28.3464 20.7243 28.3643 20.6526 28.3652 20.5797C28.3653 20.5066 28.3479 20.4345 28.3143 20.3696C28.2807 20.3047 28.2319 20.2488 28.1722 20.2067L23.0422 16.4997L28.1722 12.7927C28.2312 12.7499 28.2793 12.6938 28.3129 12.6291C28.3464 12.5643 28.3643 12.4926 28.3652 12.4197C28.3653 12.3466 28.3479 12.2745 28.3143 12.2096C28.2807 12.1447 28.2319 12.0888 28.1722 12.0467L22.5252 7.9667C22.472 7.92838 22.4116 7.90122 22.3477 7.88684C22.2837 7.87246 22.2175 7.87116 22.1531 7.88303C22.0886 7.89489 22.0272 7.91967 21.9726 7.95588C21.918 7.99208 21.8712 8.03896 21.8352 8.0937C21.7877 8.16699 21.7624 8.25239 21.7622 8.3397V15.5757L16.8782 12.0457C16.7764 11.9725 16.6502 11.9417 16.5262 11.9597C16.402 11.9764 16.2893 12.041 16.2122 12.1397C16.1742 12.1883 16.1465 12.2442 16.1307 12.3038C16.1149 12.3635 16.1114 12.4257 16.1204 12.4867C16.1293 12.5478 16.1506 12.6064 16.1829 12.659C16.2152 12.7116 16.2578 12.7571 16.3082 12.7927L21.7622 17.4237ZM21.4382 16.4997L16.3082 20.2067V12.7927L21.4382 16.4997ZM22.7182 15.5747V9.2647L27.0852 12.4197L22.7182 15.5747ZM22.7182 23.7347V17.4247L27.0852 20.5797L22.7182 23.7347Z" fill="black"/>
<path d="M21.7622 17.4237L16.8782 20.9537C16.8024 21.0087 16.7122 21.0405 16.6187 21.0453C16.5251 21.0501 16.4322 21.0277 16.3512 20.9807C16.2431 20.9185 16.164 20.816 16.1312 20.6957C16.1067 20.6057 16.1105 20.5104 16.1422 20.4227C16.1739 20.335 16.2318 20.2592 16.3082 20.2057L21.7622 17.4237ZM21.7622 17.4237V24.6597C21.7637 24.747 21.7894 24.8321 21.8363 24.9057C21.8833 24.9793 21.9497 25.0385 22.0282 25.0767C22.1074 25.1145 22.1953 25.1304 22.2827 25.1227C22.3701 25.115 22.4539 25.0839 22.5252 25.0327L28.1722 20.9527C28.2312 20.9099 28.2793 20.8538 28.3129 20.7891C28.3464 20.7243 28.3643 20.6526 28.3652 20.5797C28.3653 20.5066 28.3479 20.4345 28.3143 20.3696C28.2807 20.3047 28.2319 20.2488 28.1722 20.2067L23.0422 16.4997L28.1722 12.7927C28.2312 12.7499 28.2793 12.6938 28.3129 12.6291C28.3464 12.5643 28.3643 12.4926 28.3652 12.4197C28.3653 12.3466 28.3479 12.2745 28.3143 12.2096C28.2807 12.1447 28.2319 12.0888 28.1722 12.0467L22.5252 7.9667C22.472 7.92838 22.4116 7.90122 22.3477 7.88684C22.2837 7.87246 22.2175 7.87116 22.1531 7.88303C22.0886 7.89489 22.0272 7.91967 21.9726 7.95588C21.918 7.99208 21.8712 8.03896 21.8352 8.0937C21.7877 8.16699 21.7624 8.25239 21.7622 8.3397V15.5757L16.8782 12.0457C16.7764 11.9725 16.6502 11.9417 16.5262 11.9597C16.402 11.9764 16.2893 12.041 16.2122 12.1397C16.1742 12.1883 16.1465 12.2442 16.1307 12.3038C16.1149 12.3635 16.1114 12.4257 16.1204 12.4867C16.1293 12.5478 16.1506 12.6064 16.1829 12.659C16.2152 12.7116 16.2578 12.7571 16.3082 12.7927M21.7622 17.4237L16.3082 12.7927M16.3082 12.7927V20.2067L21.4382 16.4997L16.3082 12.7927ZM22.7182 15.5747V9.2647L27.0852 12.4197L22.7182 15.5747ZM22.7182 23.7347V17.4247L27.0852 20.5797L22.7182 23.7347Z" stroke="black" stroke-width="0.25"/>
</svg>
