<svg width="165" height="165" viewBox="0 0 165 165" fill="none" xmlns="http://www.w3.org/2000/svg">
<path d="M80.8452 158.249C123.963 158.249 158.917 138.068 158.917 113.174C158.917 88.28 123.963 68.0994 80.8452 68.0994C37.7273 68.0994 2.77344 88.28 2.77344 113.174C2.77344 138.068 37.7273 158.249 80.8452 158.249Z" fill="#F0F0F0"/>
<path d="M66.2031 151.694C65.322 151.694 64.4742 151.484 63.8162 151.104L25.7691 129.134C24.9026 128.634 24.4062 127.862 24.4062 127.018C24.4062 126.173 24.9026 125.401 25.7691 124.901L92.7648 86.2214C93.4234 85.8415 94.2709 85.6323 95.1516 85.6323C96.0324 85.6323 96.8799 85.8415 97.5385 86.221L135.585 108.192C136.451 108.692 136.948 109.463 136.948 110.308C136.948 111.153 136.451 111.924 135.585 112.424L68.5893 151.104C67.9319 151.484 67.0838 151.694 66.2031 151.694Z" fill="#E0E0E0"/>
<path d="M134.026 105.676L130.313 103.711C130.313 103.711 130.031 98.0358 130.473 93.5379C131.094 87.2174 135.794 79.8782 140.664 81.6645C145.534 83.4504 138.431 89.8874 136.85 95.2486C135.269 100.609 134.026 105.676 134.026 105.676Z" fill="#27DEBF"/>
<path opacity="0.1" d="M134.026 105.676L130.313 103.711C130.313 103.711 130.031 98.0358 130.473 93.5379C131.094 87.2174 135.794 79.8782 140.664 81.6645C145.534 83.4504 138.431 89.8874 136.85 95.2486C135.269 100.609 134.026 105.676 134.026 105.676Z" fill="black"/>
<path d="M132.211 105.017C132.212 105.017 132.214 105.017 132.216 105.017C132.307 105.014 132.378 104.938 132.375 104.847C131.898 90.8024 138.889 83.7378 138.96 83.6685C139.025 83.6045 139.025 83.5009 138.962 83.4362C138.897 83.3715 138.793 83.3708 138.729 83.4345C138.657 83.5055 131.565 90.6714 132.046 104.858C132.049 104.947 132.122 105.017 132.211 105.017Z" fill="white"/>
<path d="M135.931 106.797L134.002 105.683C134.002 105.683 133.394 101.212 135.199 96.313C136.988 91.4593 141.609 88.813 143.736 89.5364C146.332 90.4195 146.348 92.9047 145.403 94.5392C144.29 96.4654 137.333 101.339 135.931 106.797Z" fill="#27DEBF"/>
<path d="M134.914 106.373H134.914C135.005 106.373 135.078 106.299 135.078 106.208C135.039 97.328 143.377 91.3266 143.461 91.2668C143.535 91.2144 143.553 91.1121 143.5 91.0382C143.449 90.9646 143.347 90.9461 143.272 90.9992C143.186 91.0596 134.71 97.161 134.749 106.21C134.75 106.3 134.823 106.373 134.914 106.373Z" fill="white"/>
<path d="M22.7774 109.527V101.792C22.7774 101.792 22.3817 97.4268 19.324 94.1169C16.2662 90.8067 13.5272 91.9326 12.6355 93.5038C11.7439 95.0749 13.7727 98.0571 15.0686 99.7352C16.6282 101.755 22.7774 111.136 22.7774 115.337V109.527Z" fill="#27DEBF"/>
<g opacity="0.2">
<path d="M22.7774 109.527V101.792C22.7774 101.792 22.3817 97.4268 19.324 94.1169C16.2662 90.8067 13.5272 91.9326 12.6355 93.5038C11.7439 95.0749 13.7727 98.0571 15.0686 99.7352C16.6282 101.755 22.7774 111.136 22.7774 115.337V109.527Z" fill="black"/>
</g>
<path d="M22.7771 108.305C22.6861 108.305 22.6055 108.239 22.59 108.146C21.1951 99.7107 14.776 93.9219 14.7113 93.8645C14.6327 93.7948 14.6258 93.6747 14.6954 93.5965C14.7647 93.518 14.8852 93.5117 14.9634 93.5807C15.0291 93.6391 21.5476 99.5131 22.9646 108.084C22.9817 108.187 22.9118 108.285 22.8085 108.302C22.7976 108.304 22.787 108.305 22.7771 108.305Z" fill="white"/>
<path d="M22.8104 110.541C22.8104 110.541 23.0635 109.773 21.9342 109.578C20.805 109.383 20.3714 108.443 20.2654 106.868C20.1595 105.293 19.684 104.161 18.2673 103.929C16.8506 103.696 15.7104 104.41 14.7897 103.7C13.869 102.991 11.4907 101.277 9.50942 102.058C7.5281 102.838 8.17754 104.53 9.20813 105.627C10.2387 106.725 10.5374 107.094 9.74867 108.878C8.95997 110.662 9.5345 112.329 11.3571 112.746C13.18 113.163 14.1987 112.95 14.2271 114.95C14.2555 116.951 14.5317 117.841 15.5299 118.624C16.5282 119.407 19.6711 119.055 20.9772 119.359C22.2834 119.664 22.8101 120.828 22.8101 120.828L22.8104 110.541Z" fill="#27DEBF"/>
<path d="M22.811 118.78C22.7456 118.78 22.6846 118.739 22.6624 118.673C19.3443 108.821 11.8348 104.841 11.7596 104.803C11.6827 104.763 11.6527 104.669 11.6923 104.592C11.7315 104.515 11.8262 104.484 11.9031 104.524C11.9797 104.564 19.5991 108.596 22.9591 118.573C22.9868 118.655 22.9426 118.744 22.8608 118.772C22.8443 118.777 22.8278 118.78 22.811 118.78Z" fill="white"/>
<path d="M18.0512 110.192C18.0397 110.192 18.0281 110.19 18.0163 110.188C15.8501 109.693 12.3825 109.96 12.3479 109.963C12.2607 109.969 12.1862 109.906 12.1792 109.819C12.1723 109.733 12.2366 109.658 12.3231 109.651C12.467 109.639 15.8732 109.377 18.0862 109.883C18.1707 109.902 18.2232 109.986 18.204 110.07C18.1875 110.143 18.1229 110.192 18.0512 110.192Z" fill="white"/>
<path d="M19.817 114.927C18.827 114.927 17.7766 114.862 17.7103 114.858C17.6242 114.852 17.5585 114.778 17.5638 114.692C17.5691 114.606 17.643 114.536 17.7298 114.546C17.7539 114.547 20.1744 114.696 21.1185 114.547C21.2047 114.535 21.2842 114.592 21.2977 114.678C21.3113 114.763 21.2528 114.844 21.1674 114.857C20.8324 114.91 20.3328 114.927 19.817 114.927Z" fill="white"/>
<path d="M17.0336 109.034C17.0307 109.034 17.0277 109.034 17.0247 109.034C16.9383 109.03 16.8723 108.956 16.8772 108.869C16.9736 107.131 17.5501 105.633 17.5745 105.57C17.6059 105.489 17.6969 105.449 17.7771 105.481C17.8576 105.512 17.8976 105.603 17.8662 105.684C17.8603 105.698 17.2834 107.2 17.1897 108.886C17.1854 108.97 17.1161 109.034 17.0336 109.034Z" fill="white"/>
<path d="M24.6602 124.125C24.6602 125.171 25.4426 126.47 26.4078 127.027L64.4542 148.997C65.4191 149.555 66.984 149.555 67.9492 148.997L134.945 110.317C135.909 109.76 136.692 108.461 136.692 107.415C136.692 106.37 135.91 105.071 134.945 104.513L96.8981 82.543C95.9332 81.9857 94.3684 81.9857 93.4031 82.543L26.4075 121.224C25.4426 121.781 24.6602 123.08 24.6602 124.125Z" fill="#27DEBF"/>
<path opacity="0.5" d="M136.694 107.416C136.694 108.463 135.911 109.759 134.946 110.317L67.9491 148.999C67.4667 149.275 66.8337 149.416 66.2041 149.416V145.631C66.8337 145.631 67.4667 145.491 67.9491 145.212L134.946 106.533C135.791 106.046 135.897 105.292 135.263 104.738C136.075 105.368 136.694 106.489 136.694 107.416Z" fill="black"/>
<path opacity="0.3" d="M26.4083 123.241L64.4549 145.212C65.4199 145.769 66.9847 145.769 67.95 145.212L134.946 106.532C135.911 105.975 135.911 105.071 134.946 104.514L96.8989 82.5435C95.934 81.9861 94.3691 81.9861 93.4039 82.5435L26.4083 121.224C25.4433 121.781 25.4433 122.684 26.4083 123.241Z" fill="black"/>
<path opacity="0.7" d="M66.2029 145.633V149.415C65.5693 149.415 64.9357 149.277 64.4555 148.999L26.4075 127.027C25.4429 126.47 24.6602 125.171 24.6602 124.126C24.6602 123.145 25.3502 121.942 26.23 121.337C25.4469 121.898 25.5076 122.721 26.4075 123.242L64.4555 145.213C64.9357 145.492 65.5693 145.633 66.2029 145.633Z" fill="black"/>
<path d="M23.0215 121.286C22.1163 120.763 22.1655 119.881 22.1655 118.766L22.1652 66.2145C22.1652 65.1001 22.9476 63.7448 23.9125 63.1877L90.9081 24.5081C91.8734 23.9511 93.3897 23.923 94.2949 24.4457C95.2005 24.9684 95.1513 25.8512 95.1513 26.9656V79.5174C95.1513 80.6319 94.3689 81.9868 93.4036 82.5442L26.408 121.224C25.4431 121.781 23.9267 121.809 23.0215 121.286Z" fill="#27DEBF"/>
<path opacity="0.3" d="M95.152 26.9638C95.152 25.8517 94.3689 25.4006 93.404 25.955L26.4071 64.6367C25.9246 64.9155 25.4861 65.3947 25.1726 65.9431L22.6788 64.4924H22.6758C22.9923 63.9443 23.4308 63.4648 23.9133 63.186L90.9069 24.5077C91.8718 23.95 93.3882 23.9219 94.2937 24.445C95.1992 24.968 95.152 25.8517 95.152 26.9638Z" fill="black"/>
<path opacity="0.5" d="M24.6602 67.663V120.215C24.6602 121.329 25.4426 121.781 26.4075 121.224L93.4034 82.5437C94.3687 81.9863 95.1511 80.6313 95.1511 79.5169V26.9651C95.1511 25.8507 94.3687 25.3989 93.4034 25.9563L26.4075 64.6362C25.4426 65.1933 24.6602 66.5486 24.6602 67.663Z" fill="black"/>
<path opacity="0.7" d="M26.202 121.329C25.2375 121.781 23.8653 121.773 23.0218 121.284C22.118 120.764 22.1665 119.881 22.1665 118.767V66.2129C22.1665 65.6559 22.3602 65.0385 22.679 64.4937L25.1728 65.9377V65.9417C24.858 66.4905 24.6603 67.1039 24.6603 67.661V120.215C24.6606 121.248 25.3345 121.712 26.202 121.329Z" fill="black"/>
<path d="M27.3482 66.652L91.9408 29.3693C92.5199 29.035 92.9892 29.3059 92.9892 29.9748V75.8494C92.9892 76.518 92.5196 77.3311 91.9408 77.6654L27.3482 114.948C26.7691 115.282 26.2998 115.011 26.2998 114.342V68.468C26.2998 67.7994 26.7691 66.9863 27.3482 66.652Z" fill="#FAFAFA"/>
<path d="M40.8678 78.1903L78.794 56.2935C79.918 55.6447 80.8288 56.1057 80.8288 57.3231C80.8288 58.5404 79.9177 60.0535 78.794 60.7023L40.8681 82.5984C39.7441 83.2472 38.833 82.7865 38.833 81.5692C38.833 80.3518 39.7441 78.8391 40.8678 78.1903Z" fill="#455A64"/>
<path d="M80.2021 57.3243C80.2021 58.3206 79.4157 59.6208 78.4821 60.1597L70.7344 64.6335L40.5552 82.0555C40.2546 82.2311 40.0385 82.2654 39.9131 82.2654C39.6124 82.2654 39.459 82.0305 39.459 81.5698C39.459 80.5702 40.2483 79.2703 41.1819 78.7314L70.7344 61.6698L79.1088 56.8356C79.4094 56.6634 79.6226 56.6257 79.751 56.6257C80.0516 56.6257 80.2021 56.8607 80.2021 57.3243Z" fill="#27DEBF"/>
<path d="M80.2021 57.3243C80.2021 58.3206 79.4157 59.6208 78.4821 60.1597L70.7344 64.6335L40.5552 82.0555C40.2546 82.2311 40.0385 82.2654 39.9131 82.2654C39.6124 82.2654 39.459 82.0305 39.459 81.5698C39.459 80.5702 40.2483 79.2703 41.1819 78.7314L70.7344 61.6698L79.1088 56.8356C79.4094 56.6634 79.6226 56.6257 79.751 56.6257C80.0516 56.6257 80.2021 56.8607 80.2021 57.3243Z" fill="#27DEBF"/>
<path d="M80.2021 57.3243C80.2021 58.3206 79.4157 59.6208 78.4821 60.1597L70.7344 64.6335V61.6698L79.1088 56.8356C79.4094 56.6634 79.6226 56.6257 79.751 56.6257C80.0516 56.6257 80.2021 56.8607 80.2021 57.3243Z" fill="#263238"/>
<path opacity="0.6" d="M49.8546 73.7244L41.1819 78.7315C40.2483 79.2703 39.459 80.5705 39.459 81.5698C39.459 82.0305 39.6124 82.2654 39.9131 82.2654C40.0385 82.2654 40.2546 82.2308 40.5552 82.0555L49.8546 76.6871V73.7244Z" fill="white"/>
<path opacity="0.4" d="M49.8555 76.6864L60.3666 70.6183V67.6553L49.8555 73.7236V76.6864Z" fill="white"/>
<path d="M52.6894 83.6582C52.7214 83.6397 52.7498 83.6417 52.7732 83.6645C52.7966 83.6873 52.8088 83.7235 52.8088 83.7734V84.2572C52.8088 84.307 52.797 84.3572 52.7732 84.407C52.7498 84.4568 52.7214 84.4911 52.6894 84.5099L50.7513 85.629C50.719 85.6474 50.6906 85.6458 50.6671 85.623C50.6437 85.5999 50.6318 85.5636 50.6318 85.5138V81.1129C50.6318 81.0631 50.6434 81.0133 50.6671 80.9634C50.6906 80.9133 50.719 80.879 50.7513 80.8601L51.11 80.6529C51.142 80.6344 51.1704 80.6364 51.1938 80.6588C51.2173 80.6816 51.2291 80.7179 51.2291 80.7677V84.501L52.6894 83.6582Z" fill="#455A64"/>
<path d="M54.4286 79.8954C54.5906 79.8014 54.7372 79.7552 54.8688 79.7571C55.0002 79.7585 55.1137 79.7994 55.2097 79.8802C55.3051 79.9614 55.382 80.0759 55.4394 80.2248C55.4968 80.3733 55.5302 80.5488 55.5391 80.7528C55.542 80.792 55.5437 80.8432 55.5437 80.9069C55.5437 80.9706 55.5437 81.0339 55.5437 81.0976C55.5437 81.1613 55.5437 81.2237 55.5437 81.2847C55.5437 81.3461 55.542 81.3982 55.5391 81.4405C55.5272 81.6563 55.4932 81.8715 55.4371 82.0853C55.381 82.2995 55.3051 82.5011 55.2094 82.6905C55.1134 82.8796 54.9998 83.0509 54.8685 83.204C54.7368 83.3571 54.5903 83.4802 54.4283 83.5743C54.2663 83.668 54.1194 83.7138 53.9881 83.7122C53.8567 83.7109 53.7432 83.6709 53.6472 83.5921C53.5515 83.5135 53.4752 83.3997 53.4195 83.2502C53.363 83.1014 53.3294 82.9251 53.3175 82.7232C53.3149 82.6839 53.3122 82.6344 53.3109 82.574C53.3093 82.5133 53.3086 82.4516 53.3086 82.3879C53.3086 82.3242 53.3093 82.2605 53.3109 82.1958C53.3126 82.1315 53.3149 82.0777 53.3175 82.0355C53.3264 81.8213 53.3597 81.6071 53.4172 81.392C53.4746 81.1768 53.5511 80.9739 53.6468 80.7821C53.7429 80.5907 53.8564 80.4185 53.9877 80.2657C54.1194 80.1122 54.2663 79.9891 54.4286 79.8954ZM54.9639 81.1191C54.955 80.9834 54.9335 80.8788 54.8995 80.8052C54.8655 80.7316 54.8236 80.6825 54.7735 80.6567C54.7233 80.631 54.6689 80.625 54.6098 80.6386C54.5507 80.6524 54.49 80.6769 54.4283 80.7128C54.3666 80.7485 54.3059 80.7937 54.2468 80.8481C54.1877 80.9026 54.1333 80.9715 54.0831 81.055C54.0329 81.1389 53.991 81.2369 53.957 81.3494C53.9231 81.4619 53.9016 81.5913 53.8927 81.7375C53.8901 81.7754 53.8874 81.822 53.8864 81.8774C53.8844 81.9328 53.8841 81.9903 53.8841 82.049C53.8841 82.1084 53.8848 82.1655 53.8864 82.2216C53.8877 82.2774 53.8901 82.3203 53.8927 82.3506C53.9016 82.4862 53.9231 82.5905 53.957 82.6644C53.991 82.7377 54.0329 82.7875 54.0831 82.8126C54.1333 82.8384 54.1877 82.8443 54.2468 82.8311C54.3059 82.8169 54.3666 82.7925 54.4283 82.7572C54.49 82.7212 54.5507 82.6757 54.6098 82.6215C54.6689 82.5668 54.7233 82.4975 54.7735 82.4143C54.8236 82.3311 54.8655 82.2328 54.8995 82.1203C54.9335 82.0074 54.955 81.8784 54.9639 81.7322C54.9665 81.6989 54.9685 81.6537 54.9685 81.5966C54.9685 81.5398 54.9685 81.4821 54.9685 81.4227C54.9685 81.3639 54.9685 81.3072 54.9685 81.2524C54.9685 81.1983 54.9665 81.1534 54.9639 81.1191Z" fill="#455A64"/>
<path d="M56.269 79.773C56.2809 79.6704 56.3083 79.5526 56.3505 79.4189C56.3934 79.2856 56.4538 79.1483 56.5324 79.0077C56.6102 78.8672 56.7063 78.7335 56.8198 78.6068C56.9336 78.4797 57.0653 78.3728 57.2161 78.286C57.3666 78.1992 57.5022 78.1514 57.623 78.1431C57.7441 78.1342 57.8481 78.1639 57.9352 78.2319C58.0223 78.2999 58.0893 78.4098 58.1365 78.5622C58.1837 78.7144 58.2074 78.9061 58.2074 79.1378V81.1402C58.2074 81.1904 58.1956 81.2402 58.1721 81.29C58.1487 81.3402 58.1203 81.3745 58.088 81.3933L57.7517 81.5877C57.7194 81.6065 57.691 81.6045 57.6676 81.5814C57.6441 81.5586 57.6323 81.5223 57.6323 81.4725V81.2478C57.5702 81.4154 57.4808 81.5791 57.3643 81.7395C57.2478 81.8999 57.0996 82.0322 56.9198 82.1361C56.7927 82.2097 56.6792 82.2487 56.5789 82.2549C56.4789 82.2606 56.3948 82.2355 56.3268 82.179C56.2588 82.1226 56.2067 82.0404 56.1697 81.9325C56.1327 81.8243 56.1143 81.693 56.1143 81.5385C56.1143 81.2253 56.1865 80.9382 56.3311 80.6775C56.4756 80.4175 56.6687 80.1852 56.9105 79.9819L57.6319 79.375C57.6319 79.1886 57.592 79.0803 57.5121 79.0487C57.4323 79.0176 57.3336 79.0361 57.2158 79.1041C57.1422 79.1467 57.0845 79.1958 57.0432 79.2513C57.002 79.3067 56.9617 79.3731 56.9237 79.4496C56.897 79.5014 56.8726 79.54 56.8505 79.5668C56.8284 79.5932 56.804 79.614 56.7776 79.6291L56.366 79.8667C56.3363 79.8839 56.3113 79.8846 56.2908 79.869C56.2707 79.8535 56.2631 79.8215 56.269 79.773ZM57.0079 81.2673C57.1082 81.2092 57.1973 81.1359 57.2755 81.0475C57.3534 80.9594 57.4194 80.8637 57.4722 80.76C57.5253 80.6571 57.5653 80.5521 57.592 80.4459C57.6187 80.34 57.6319 80.2393 57.6319 80.1436V80.0753L57.03 80.5865C56.9089 80.6881 56.8221 80.7848 56.7686 80.8765C56.7158 80.9689 56.6891 81.0669 56.6891 81.1716C56.6891 81.2669 56.7205 81.3191 56.7842 81.3276C56.8478 81.3372 56.9224 81.3164 57.0079 81.2673Z" fill="#455A64"/>
<path d="M59.9008 76.7354C59.9922 76.6826 60.0741 76.6492 60.1467 76.6347C60.2189 76.6202 60.2823 76.6176 60.3371 76.6271C60.3915 76.6364 60.4381 76.6539 60.4763 76.6793C60.515 76.7047 60.5453 76.7311 60.5694 76.7585V75.3075C60.5694 75.2576 60.581 75.2078 60.6047 75.1576C60.6281 75.1078 60.6565 75.0735 60.6892 75.0544L61.0255 74.8603C61.0575 74.8415 61.0859 74.8438 61.1093 74.8662C61.1327 74.889 61.1446 74.9253 61.1446 74.9751V79.444C61.1446 79.4942 61.1327 79.544 61.1093 79.5938C61.0859 79.644 61.0575 79.6783 61.0255 79.6968L60.6892 79.8912C60.6565 79.9096 60.6285 79.908 60.6047 79.8849C60.5813 79.8621 60.5694 79.8258 60.5694 79.776V79.6192C60.5457 79.6737 60.515 79.7357 60.4763 79.806C60.4381 79.8757 60.3915 79.9466 60.3371 80.0189C60.2823 80.0918 60.2189 80.1621 60.1467 80.2311C60.0741 80.3 59.9926 80.3607 59.9008 80.4135C59.7533 80.499 59.62 80.5314 59.5005 80.5119C59.3811 80.4924 59.2791 80.433 59.1953 80.334C59.1108 80.235 59.0448 80.1033 58.996 79.938C58.9471 79.7733 58.9197 79.5879 58.9138 79.3823C58.9108 79.3156 58.9092 79.2374 58.9092 79.1467C58.9092 79.0559 58.9108 78.9754 58.9138 78.9058C58.9197 78.6936 58.9468 78.4768 58.996 78.2553C59.0445 78.0342 59.1108 77.8257 59.1953 77.6293C59.2791 77.4333 59.3811 77.2564 59.5005 77.0987C59.62 76.9419 59.7537 76.8205 59.9008 76.7354ZM59.4897 78.6213C59.4811 78.7536 59.4811 78.881 59.4897 79.0028C59.5075 79.2879 59.5662 79.4661 59.6669 79.5374C59.7669 79.609 59.8896 79.6031 60.0341 79.5196C60.1787 79.4364 60.3005 79.3001 60.3991 79.1114C60.4978 78.9226 60.5549 78.7015 60.5694 78.4477C60.5754 78.3761 60.5783 78.288 60.5783 78.1837C60.5783 78.0795 60.5754 77.9946 60.5694 77.93C60.5546 77.7023 60.4978 77.5488 60.3991 77.4696C60.3005 77.3904 60.1787 77.3927 60.0341 77.4759C59.8896 77.5594 59.7672 77.6947 59.6669 77.8821C59.5659 78.0699 59.5071 78.3164 59.4897 78.6213Z" fill="#455A64"/>
<path d="M62.4541 74.0354C62.4864 74.0165 62.5148 74.0189 62.5382 74.0413C62.5616 74.0641 62.5738 74.1004 62.5738 74.1502V74.6815C62.5738 74.7317 62.562 74.7818 62.5382 74.8313C62.5148 74.8815 62.4864 74.9155 62.4541 74.9343L62.0739 75.1541C62.0412 75.1729 62.0128 75.1709 61.9894 75.1481C61.966 75.1257 61.9541 75.0894 61.9541 75.0389V74.5076C61.9541 74.4578 61.9656 74.4079 61.9894 74.3578C62.0128 74.3079 62.0412 74.2733 62.0739 74.2545L62.4541 74.0354ZM62.5514 78.6319C62.5514 78.6818 62.5398 78.7316 62.5161 78.7817C62.4923 78.8319 62.4643 78.8659 62.4316 78.885L62.0953 79.0791C62.0633 79.0979 62.035 79.0959 62.0115 79.0731C61.9881 79.0504 61.9759 79.0141 61.9759 78.9642V75.7896C61.9759 75.7398 61.9878 75.6896 62.0115 75.6398C62.035 75.5897 62.0633 75.5557 62.0953 75.5369L62.4316 75.3428C62.4643 75.324 62.4923 75.326 62.5161 75.3488C62.5395 75.3715 62.5514 75.4078 62.5514 75.458V78.6319Z" fill="#455A64"/>
<path d="M65.5423 76.9051C65.5423 76.9549 65.5304 77.0051 65.5067 77.0549C65.4833 77.1051 65.4552 77.1391 65.4229 77.1579L65.0866 77.3519C65.0539 77.3707 65.0259 77.3688 65.0024 77.346C64.9787 77.3232 64.9668 77.2869 64.9668 77.2371V75.5066C64.9668 75.2343 64.9256 75.0399 64.8431 74.9244C64.7606 74.8086 64.6335 74.8 64.4626 74.8987C64.3065 74.9888 64.1834 75.1419 64.0933 75.3574C64.0032 75.5729 63.9583 75.8171 63.9583 76.0893V77.8199C63.9583 77.8697 63.9464 77.9195 63.9227 77.9697C63.8989 78.0198 63.8709 78.0538 63.8385 78.0726L63.5023 78.2667C63.4699 78.2855 63.4419 78.2835 63.4181 78.2607C63.3947 78.238 63.3828 78.2017 63.3828 78.1518V74.9772C63.3828 74.9274 63.3947 74.8773 63.4181 74.8274C63.4419 74.7776 63.4699 74.7433 63.5023 74.7245L63.8385 74.5304C63.8709 74.5116 63.8989 74.5136 63.9227 74.5364C63.9461 74.5591 63.9583 74.5954 63.9583 74.6456V74.8023C64.0352 74.64 64.1247 74.4905 64.2283 74.3535C64.3312 74.2166 64.454 74.1074 64.5952 74.0255C64.7751 73.9216 64.9256 73.878 65.0467 73.8945C65.1678 73.911 65.2651 73.9707 65.3387 74.0734C65.4123 74.176 65.4648 74.3149 65.4958 74.4898C65.5268 74.6654 65.5427 74.8594 65.5427 75.0726V76.9051H65.5423Z" fill="#455A64"/>
<path d="M67.3559 76.7229C67.4179 76.6873 67.4813 76.6354 67.5463 76.5688C67.6113 76.5015 67.6704 76.4209 67.7235 76.3269C67.7763 76.2325 67.8202 76.1269 67.8542 76.0098C67.8879 75.8926 67.905 75.7682 67.905 75.6365V75.3844C67.8813 75.4389 67.8502 75.5009 67.812 75.5709C67.7733 75.6408 67.7271 75.7114 67.6724 75.784C67.6179 75.8566 67.5546 75.9269 67.4823 75.9962C67.4097 76.0652 67.3282 76.1263 67.2368 76.1791C67.0889 76.2642 66.9559 76.2969 66.8361 76.2771C66.7167 76.2576 66.615 76.1982 66.5312 76.0992C66.4467 76.0002 66.3807 75.8682 66.3316 75.7032C66.2831 75.5382 66.2557 75.3531 66.2497 75.1475C66.2468 75.0808 66.2451 75.0026 66.2451 74.9119C66.2451 74.8211 66.2468 74.7406 66.2497 74.671C66.2557 74.4588 66.2827 74.242 66.3316 74.0209C66.3804 73.7998 66.4467 73.5912 66.5312 73.3948C66.615 73.1988 66.717 73.0219 66.8361 72.8642C66.9559 72.7068 67.0889 72.5854 67.2368 72.5002C67.3282 72.4474 67.41 72.4138 67.4823 72.3992C67.5546 72.3847 67.6179 72.3821 67.6724 72.3916C67.7271 72.4009 67.7733 72.4184 67.812 72.4441C67.8502 72.4695 67.8813 72.4959 67.905 72.5233V72.3666C67.905 72.3167 67.9166 72.2669 67.9403 72.2167C67.9641 72.1666 67.9921 72.1326 68.0245 72.1138L68.3607 71.9197C68.3931 71.9009 68.4215 71.9029 68.4449 71.9257C68.4683 71.9485 68.4802 71.9848 68.4802 72.0346V75.2296C68.4802 75.7791 68.3805 76.251 68.1812 76.6453C67.9822 77.0397 67.7073 77.338 67.3562 77.541C67.2057 77.6278 67.0665 77.6773 66.9384 77.6901C66.8104 77.703 66.6985 77.6855 66.6045 77.6377C66.5101 77.5898 66.4349 77.5179 66.3788 77.4208C66.3227 77.3238 66.292 77.2087 66.286 77.0757C66.2831 77.0275 66.294 76.978 66.319 76.9272C66.3438 76.8763 66.3728 76.8417 66.4052 76.8229L66.7058 76.6493C66.747 76.6255 66.7827 76.6262 66.8124 76.6529C66.8418 76.6787 66.8668 76.7041 66.8873 76.7285C66.9256 76.7836 66.978 76.8169 67.0447 76.8288C67.1107 76.8397 67.2147 76.8047 67.3559 76.7229ZM66.8253 74.3862C66.8163 74.5185 66.8163 74.6459 66.8253 74.7676C66.8431 75.0528 66.9018 75.231 67.0021 75.3022C67.1025 75.3739 67.2252 75.3679 67.3694 75.2844C67.514 75.2009 67.6357 75.065 67.7344 74.8759C67.8331 74.6871 67.8898 74.466 67.9047 74.2123C67.9106 74.1406 67.9133 74.0525 67.9133 73.9483C67.9133 73.844 67.9106 73.7592 67.9047 73.6945C67.8895 73.4668 67.8331 73.3133 67.7344 73.2341C67.6357 73.1549 67.5136 73.1572 67.3694 73.2407C67.2249 73.3242 67.1025 73.4595 67.0021 73.647C66.9018 73.8347 66.8431 74.0809 66.8253 74.3862Z" fill="#455A64"/>
<path d="M69.7901 73.6014C69.8221 73.5826 69.8505 73.5846 69.8739 73.6073C69.8973 73.6301 69.9095 73.6664 69.9095 73.7162V74.3838C69.9095 74.4336 69.8977 74.4838 69.8739 74.5336C69.8505 74.5838 69.8221 74.6178 69.7901 74.6366L69.3786 74.8742C69.3459 74.893 69.3179 74.891 69.2941 74.8683C69.2707 74.8455 69.2588 74.8092 69.2588 74.759V74.0914C69.2588 74.0416 69.2703 73.9918 69.2941 73.9416C69.3179 73.8915 69.3459 73.8575 69.3786 73.8387L69.7901 73.6014Z" fill="#455A64"/>
<path d="M71.1657 72.8067C71.1981 72.7879 71.2261 72.7899 71.2499 72.8127C71.2733 72.8354 71.2852 72.8717 71.2852 72.9216V73.5891C71.2852 73.639 71.2733 73.6891 71.2499 73.739C71.2261 73.7891 71.1981 73.8231 71.1657 73.8419L70.7542 74.0795C70.7219 74.0983 70.6935 74.0964 70.6701 74.0736C70.6466 74.0508 70.6348 74.0145 70.6348 73.9643V73.2968C70.6348 73.2469 70.6463 73.1971 70.6701 73.1469C70.6935 73.0968 70.7219 73.0628 70.7542 73.0436L71.1657 72.8067Z" fill="#455A64"/>
<path d="M72.5417 72.0125C72.5741 71.9937 72.6024 71.9957 72.6259 72.0185C72.6493 72.0412 72.6612 72.0775 72.6612 72.1274V72.7949C72.6612 72.8448 72.6493 72.8949 72.6259 72.9448C72.6024 72.9949 72.5741 73.0292 72.5417 73.0477L72.1302 73.2853C72.0979 73.3041 72.0695 73.3022 72.0461 73.2794C72.0226 73.2566 72.0107 73.2203 72.0107 73.1705V72.5029C72.0107 72.4531 72.0223 72.4032 72.0461 72.3531C72.0695 72.3029 72.0979 72.2689 72.1302 72.2501L72.5417 72.0125Z" fill="#455A64"/>
<path opacity="0.3" d="M31.2439 121.327L93.4304 85.4237C93.9129 85.1452 94.6953 85.1452 95.1781 85.4237L96.2136 85.9927C96.6961 86.2712 96.6961 86.7229 96.2136 87.0015L34.0179 122.899C33.5354 123.177 32.753 123.177 32.2702 122.899L31.2442 122.336C30.7611 122.057 30.7611 121.606 31.2439 121.327Z" fill="black"/>
<path opacity="0.3" d="M36.1214 124.227L98.3072 88.3237C98.7897 88.0452 99.5048 88.0063 99.9038 88.2366L116.09 97.5822C116.489 97.8125 116.422 98.2254 115.939 98.5039L53.8255 134.358C53.3431 134.637 52.6273 134.677 52.227 134.448L35.9722 125.146C35.5722 124.917 35.6389 124.506 36.1214 124.227Z" fill="#263238"/>
<path d="M90.0061 103.404L91.9531 102.28C92.0359 102.232 92.0432 102.159 91.9699 102.116L90.1071 101.041C90.0335 100.998 89.9067 101.003 89.8242 101.051L87.8772 102.175C87.7944 102.223 87.7872 102.296 87.8607 102.338L89.7233 103.414C89.7965 103.456 89.9232 103.452 90.0061 103.404ZM87.1631 99.5144L85.2161 100.638C85.1336 100.686 85.126 100.759 85.1996 100.802L87.0625 101.877C87.1361 101.92 87.2628 101.915 87.3453 101.868L89.2923 100.743C89.3751 100.696 89.3827 100.623 89.3091 100.58L87.4463 99.5049C87.3723 99.4623 87.2459 99.4666 87.1631 99.5144ZM80.8727 103.146L77.5776 105.049C77.4948 105.096 77.4875 105.169 77.5608 105.212L79.4236 106.287C79.4972 106.33 79.6239 106.325 79.7064 106.277L83.0015 104.375C83.0843 104.327 83.0916 104.255 83.0183 104.212L81.1558 103.137C81.0819 103.094 80.9555 103.098 80.8727 103.146ZM84.3175 101.157L82.3705 102.281C82.288 102.329 82.2804 102.402 82.354 102.445L84.2169 103.52C84.2901 103.563 84.4169 103.558 84.4994 103.51L86.4464 102.386C86.5292 102.339 86.5368 102.266 86.4632 102.223L84.6003 101.148C84.5268 101.105 84.4 101.109 84.3175 101.157ZM76.679 105.567L74.732 106.691C74.6492 106.739 74.6419 106.812 74.7152 106.855L76.578 107.93C76.6513 107.973 76.778 107.968 76.8609 107.921L78.8079 106.796C78.8904 106.748 78.8979 106.675 78.8244 106.633L76.9618 105.558C76.8882 105.515 76.7619 105.519 76.679 105.567ZM73.8334 107.21L71.8864 108.334C71.8036 108.382 71.7963 108.455 71.8696 108.498L73.7325 109.573C73.806 109.616 73.9324 109.611 74.0153 109.564L75.9623 108.44C76.0451 108.392 76.0524 108.319 75.9791 108.276L74.1162 107.201C74.0427 107.158 73.9163 107.163 73.8334 107.21ZM81.1347 111.598L83.0817 110.474C83.1642 110.427 83.1718 110.353 83.0982 110.311L81.2357 109.236C81.1621 109.193 81.0354 109.198 80.9529 109.245L79.0059 110.369C78.923 110.417 78.9154 110.49 78.989 110.532L80.8519 111.608C80.9251 111.651 81.0519 111.646 81.1347 111.598ZM78.2888 113.241L80.2358 112.117C80.3186 112.07 80.3259 111.997 80.2523 111.954L78.3897 110.879C78.3162 110.836 78.1898 110.84 78.1069 110.888L76.1599 112.013C76.0771 112.06 76.0698 112.134 76.1431 112.176L78.006 113.251C78.0795 113.294 78.2063 113.289 78.2888 113.241ZM75.4432 114.885L77.3902 113.76C77.473 113.712 77.4803 113.639 77.4067 113.597L75.5442 112.522C75.4706 112.479 75.3438 112.484 75.2613 112.531L73.3143 113.655C73.2315 113.703 73.2243 113.776 73.2978 113.819L75.1604 114.894C75.234 114.937 75.3603 114.932 75.4432 114.885ZM72.5973 116.527L74.5443 115.403C74.6271 115.355 74.6343 115.283 74.5607 115.24L72.6982 114.164C72.6246 114.122 72.4983 114.126 72.4154 114.174L70.4684 115.298C70.3856 115.346 70.3783 115.419 70.4516 115.461L72.3144 116.537C72.388 116.579 72.5148 116.575 72.5973 116.527ZM87.1605 105.047L89.1075 103.923C89.19 103.875 89.1976 103.802 89.1243 103.759L87.2615 102.684C87.1882 102.641 87.0615 102.646 86.9787 102.693L85.0317 103.817C84.9488 103.865 84.9412 103.938 85.0148 103.981L86.8777 105.056C86.9509 105.099 87.0777 105.094 87.1605 105.047ZM83.9803 109.956L88.3237 107.448C88.4066 107.4 88.4138 107.327 88.3402 107.285L83.8166 104.673C83.743 104.63 83.6166 104.635 83.5338 104.683L81.2871 105.979C81.2043 106.027 81.1971 106.1 81.2703 106.143L83.6655 107.526C83.739 107.568 83.7315 107.641 83.6486 107.689L81.8514 108.727C81.7686 108.775 81.761 108.848 81.8346 108.89L83.6975 109.965C83.7707 110.008 83.8974 110.003 83.9803 109.956ZM70.9878 108.853L69.0408 109.977C68.958 110.025 68.9508 110.098 69.0243 110.14L70.8869 111.216C70.9605 111.258 71.0868 111.254 71.1697 111.206L73.1167 110.082C73.1995 110.035 73.2068 109.962 73.1332 109.919L71.2707 108.844C71.1971 108.801 71.0703 108.806 70.9878 108.853ZM68.1419 110.496L66.1949 111.62C66.1121 111.668 66.1048 111.741 66.1781 111.784L68.0406 112.859C68.1142 112.902 68.2409 112.897 68.3234 112.849L70.2704 111.725C70.3533 111.677 70.3605 111.604 70.2873 111.562L68.4244 110.486C68.3511 110.444 68.2248 110.449 68.1419 110.496ZM52.3946 128.038C52.4682 128.081 52.5946 128.076 52.6775 128.028L54.6245 126.904C54.707 126.856 54.7146 126.783 54.641 126.741L52.7781 125.665C52.7045 125.623 52.5778 125.627 52.4953 125.675L50.5483 126.799C50.4655 126.847 50.4582 126.92 50.5315 126.962L52.3946 128.038ZM45.3765 123.64L43.4295 124.764C43.3467 124.812 43.3394 124.885 43.4127 124.927L45.2756 126.003C45.3492 126.045 45.4755 126.041 45.5584 125.993L47.5054 124.869C47.5882 124.821 47.5955 124.748 47.5219 124.706L45.659 123.63C45.5858 123.588 45.4594 123.592 45.3765 123.64ZM48.9848 126.934C49.0584 126.976 49.1851 126.972 49.2676 126.924L51.2146 125.8C51.2974 125.752 51.3047 125.679 51.2311 125.637L49.3685 124.561C49.295 124.519 49.1686 124.523 49.0857 124.571L47.1387 125.695C47.0559 125.743 47.0487 125.816 47.1219 125.858L48.9848 126.934ZM56.8365 128.7L58.7835 127.576C58.8663 127.528 58.8735 127.455 58.8003 127.412L56.9374 126.337C56.8638 126.295 56.7371 126.299 56.6546 126.347L54.7076 127.471C54.6251 127.518 54.6175 127.592 54.6911 127.634L56.554 128.71C56.6269 128.752 56.7536 128.747 56.8365 128.7ZM53.7081 130.352C53.7813 130.395 53.908 130.391 53.9909 130.343L55.9379 129.218C56.0207 129.171 56.028 129.098 55.9547 129.055L54.0918 127.98C54.0183 127.937 53.8919 127.942 53.809 127.989L51.862 129.114C51.7795 129.162 51.7719 129.235 51.8455 129.277L53.7081 130.352ZM48.2221 121.997L46.2751 123.121C46.1923 123.169 46.185 123.242 46.2586 123.284L48.1212 124.36C48.1947 124.402 48.3211 124.398 48.404 124.35L50.351 123.226C50.4338 123.178 50.441 123.105 50.3678 123.063L48.5053 121.987C48.4314 121.945 48.305 121.949 48.2221 121.997ZM62.4504 113.782L60.5034 114.906C60.4209 114.954 60.4133 115.027 60.4869 115.069L62.3494 116.145C62.423 116.187 62.5494 116.183 62.6322 116.135L64.5792 115.011C64.6621 114.963 64.6693 114.89 64.5961 114.848L62.7332 113.772C62.66 113.73 62.5332 113.734 62.4504 113.782ZM51.0677 120.354L49.1207 121.478C49.0379 121.525 49.0306 121.599 49.1039 121.641L50.9664 122.716C51.04 122.759 51.1664 122.755 51.2492 122.707L53.1962 121.583C53.279 121.535 53.2863 121.462 53.2127 121.42L51.3502 120.344C51.2773 120.302 51.1506 120.306 51.0677 120.354ZM65.2963 112.139L63.3493 113.263C63.2665 113.311 63.2592 113.384 63.3328 113.426L65.1954 114.502C65.2689 114.544 65.3953 114.54 65.4782 114.492L67.4252 113.368C67.508 113.32 67.5153 113.247 67.442 113.205L65.5791 112.129C65.5056 112.087 65.3788 112.091 65.2963 112.139ZM59.6048 115.425L57.6578 116.549C57.575 116.597 57.5674 116.67 57.641 116.712L59.5038 117.788C59.5771 117.83 59.7038 117.826 59.7867 117.778L61.7337 116.654C61.8165 116.606 61.8241 116.534 61.7505 116.491L59.8876 115.415C59.8144 115.373 59.6877 115.377 59.6048 115.425ZM56.7592 117.068L54.8122 118.192C54.7294 118.24 54.7218 118.313 54.7954 118.355L56.6582 119.431C56.7315 119.473 56.8582 119.469 56.9411 119.421L58.8881 118.297C58.9706 118.249 58.9782 118.176 58.9046 118.134L57.042 117.058C56.9685 117.016 56.8417 117.02 56.7592 117.068ZM53.9136 118.711L51.9666 119.835C51.8838 119.883 51.8766 119.956 51.9498 119.998L53.8127 121.074C53.8863 121.116 54.013 121.112 54.0955 121.064L56.0425 119.94C56.125 119.892 56.1326 119.819 56.059 119.776L54.1961 118.701C54.1229 118.659 53.9961 118.663 53.9136 118.711ZM66.9061 119.813L68.8531 118.689C68.9359 118.641 68.9432 118.568 68.8699 118.526L67.0071 117.45C66.9335 117.408 66.8067 117.412 66.7242 117.46L64.7772 118.584C64.6944 118.632 64.6872 118.705 64.7607 118.747L66.6233 119.823C66.6969 119.866 66.8232 119.861 66.9061 119.813ZM93.4536 95.8825L91.5066 97.0068C91.4238 97.0546 91.4165 97.1276 91.4898 97.1701L93.3526 98.2456C93.4262 98.2882 93.5529 98.2835 93.6354 98.236L95.5824 97.112C95.6652 97.0642 95.6725 96.9913 95.5992 96.9487L93.7364 95.8732C93.6631 95.8303 93.5364 95.8346 93.4536 95.8825ZM90.0087 97.8714L88.0617 98.9957C87.9789 99.0435 87.9716 99.1165 88.0449 99.159L89.9074 100.235C89.981 100.277 90.1077 100.272 90.1902 100.225L92.1372 99.101C92.22 99.0531 92.2273 98.9802 92.154 98.9376L90.2912 97.8621C90.2183 97.8192 90.0915 97.8235 90.0087 97.8714ZM96.2992 94.2397L94.3522 95.3637C94.2693 95.4116 94.2621 95.4845 94.3353 95.5271L96.1982 96.6025C96.2715 96.6451 96.3982 96.6408 96.4807 96.593L98.4277 95.469C98.5105 95.4211 98.5181 95.3479 98.4445 95.3056L96.582 94.2302C96.5087 94.1876 96.3823 94.1919 96.2992 94.2397ZM80.5704 108.851L82.5174 107.727C82.6002 107.68 82.6075 107.607 82.5342 107.564L80.6717 106.489C80.5981 106.446 80.4714 106.451 80.3889 106.498L78.4419 107.623C78.3591 107.67 78.3518 107.743 78.4251 107.786L80.2879 108.861C80.3612 108.904 80.4876 108.899 80.5704 108.851ZM99.4279 92.5868C99.3546 92.5442 99.2276 92.5485 99.1451 92.5963L97.1981 93.7203C97.1153 93.7682 97.1077 93.8411 97.1813 93.8837L99.0441 94.9591C99.1174 95.0017 99.2441 94.9974 99.3269 94.9496L101.274 93.8252C101.357 93.7774 101.364 93.7045 101.291 93.6619L99.4279 92.5868ZM69.7517 118.17L71.6987 117.046C71.7815 116.999 71.7888 116.926 71.7152 116.883L69.8526 115.808C69.7791 115.765 69.6527 115.77 69.5698 115.817L67.6228 116.941C67.54 116.989 67.5327 117.062 67.6063 117.104L69.4689 118.18C69.5424 118.222 69.6692 118.218 69.7517 118.17ZM104.649 98.0225L106.596 96.8985C106.679 96.8507 106.686 96.7774 106.613 96.7352L104.75 95.66C104.676 95.6175 104.55 95.6218 104.467 95.6696L102.52 96.7936C102.438 96.8414 102.43 96.9147 102.503 96.9569L104.366 98.0324C104.44 98.0747 104.566 98.0704 104.649 98.0225ZM99.1421 98.1291L101.089 97.0048C101.172 96.9573 101.179 96.884 101.106 96.8418L99.2428 95.7663C99.1695 95.7237 99.0428 95.7284 98.9603 95.7759L97.0133 96.8999C96.9305 96.9477 96.9229 97.0206 96.9965 97.0632L98.8593 98.1387C98.9326 98.1813 99.0596 98.177 99.1421 98.1291ZM102.089 94.1232C102.015 94.0807 101.889 94.0853 101.806 94.1328L99.8589 95.2571C99.7764 95.305 99.7688 95.3779 99.8424 95.4201L101.705 96.4956C101.778 96.5382 101.906 96.5336 101.988 96.486L103.935 95.3621C104.018 95.3142 104.025 95.2413 103.952 95.1987L102.089 94.1232ZM102.688 93.7774L107.212 96.3893C107.285 96.4316 107.412 96.4273 107.494 96.3798L109.441 95.2558C109.524 95.2079 109.532 95.135 109.458 95.0924L104.934 92.4805C104.861 92.4379 104.734 92.4426 104.651 92.4901L102.704 93.614C102.622 93.6616 102.614 93.7352 102.688 93.7774ZM96.1147 97.419L94.1677 98.5429C94.0849 98.5904 94.0773 98.6637 94.1509 98.7063L96.0137 99.7814C96.0873 99.824 96.2137 99.8197 96.2965 99.7718L98.2435 98.6479C98.326 98.6 98.3336 98.5271 98.2604 98.4845L96.3978 97.409C96.3239 97.3668 96.1972 97.3711 96.1147 97.419ZM74.697 109.784L72.75 110.908C72.6672 110.956 72.66 111.029 72.7335 111.071L74.5961 112.147C74.6697 112.189 74.796 112.185 74.8789 112.137L76.8259 111.013C76.9087 110.965 76.916 110.893 76.8424 110.85L74.9799 109.774C74.9063 109.732 74.7799 109.737 74.697 109.784ZM101.52 99.6752C101.594 99.7177 101.72 99.7131 101.803 99.6656L103.75 98.5416C103.833 98.4938 103.84 98.4208 103.767 98.3783L101.904 97.3028C101.831 97.2602 101.704 97.2648 101.621 97.3124L99.6744 98.4367C99.5916 98.4842 99.584 98.5574 99.6576 98.5997L101.52 99.6752ZM77.5426 108.141L75.5956 109.265C75.5128 109.313 75.5055 109.386 75.5791 109.429L77.4417 110.504C77.5152 110.547 77.6416 110.542 77.7245 110.495L79.6715 109.37C79.7543 109.322 79.7616 109.249 79.688 109.207L77.8254 108.132C77.7522 108.089 77.6255 108.093 77.5426 108.141ZM55.2406 126.395C55.3142 126.438 55.4409 126.433 55.5234 126.385L57.4704 125.261C57.5529 125.214 57.5605 125.141 57.4869 125.098L55.624 124.023C55.5508 123.98 55.424 123.985 55.3412 124.032L53.3942 125.156C53.3114 125.204 53.3041 125.277 53.3774 125.32L55.2406 126.395ZM51.9317 122.928L49.9847 124.052C49.9018 124.1 49.8946 124.173 49.9682 124.215L51.8307 125.291C51.9043 125.333 52.0307 125.329 52.1135 125.281L54.0605 124.157C54.1433 124.109 54.1506 124.036 54.0773 123.994L52.2148 122.918C52.1409 122.876 52.0142 122.88 51.9317 122.928ZM58.369 124.742L60.316 123.618C60.3988 123.57 60.4064 123.498 60.3328 123.455L58.47 122.38C58.3967 122.337 58.27 122.342 58.1871 122.389L56.2401 123.513C56.1576 123.561 56.1501 123.634 56.2236 123.677L58.0865 124.752C58.1597 124.794 58.2861 124.79 58.369 124.742ZM61.2146 123.099L63.1616 121.975C63.2444 121.927 63.252 121.854 63.1784 121.812L61.3155 120.736C61.2423 120.694 61.1156 120.698 61.0327 120.746L59.0857 121.87C59.0032 121.918 58.9956 121.991 59.0692 122.033L60.9321 123.109C61.0053 123.151 61.1321 123.147 61.2146 123.099ZM64.0605 121.456L66.0075 120.332C66.0903 120.284 66.0976 120.211 66.0243 120.169L64.1615 119.093C64.0882 119.051 63.9615 119.055 63.8787 119.103L61.9317 120.227C61.8488 120.275 61.8412 120.348 61.9148 120.391L63.7773 121.466C63.8509 121.508 63.9776 121.504 64.0605 121.456ZM54.7773 121.285L52.8303 122.409C52.7474 122.457 52.7402 122.53 52.8134 122.572L54.6763 123.648C54.7499 123.69 54.8763 123.686 54.9591 123.638L56.9061 122.514C56.9889 122.466 56.9962 122.393 56.9229 122.351L55.0601 121.275C54.9868 121.233 54.8601 121.237 54.7773 121.285ZM57.6232 119.642L55.6762 120.766C55.5933 120.814 55.5858 120.887 55.6593 120.929L57.5222 122.005C57.5958 122.048 57.7222 122.043 57.805 121.995L59.752 120.871C59.8345 120.823 59.8421 120.75 59.7685 120.708L57.9057 119.632C57.8324 119.59 57.7057 119.594 57.6232 119.642ZM69.0059 113.07L67.0589 114.194C66.976 114.242 66.9688 114.315 67.0424 114.358L68.9049 115.433C68.9785 115.476 69.1049 115.471 69.1877 115.423L71.1347 114.299C71.2175 114.252 71.2248 114.178 71.1515 114.136L69.2887 113.061C69.2151 113.018 69.0884 113.022 69.0059 113.07ZM66.1599 114.713L64.2129 115.838C64.1304 115.885 64.1229 115.959 64.1964 116.001L66.059 117.076C66.1326 117.119 66.2593 117.114 66.3418 117.067L68.2888 115.943C68.3716 115.895 68.3792 115.822 68.3056 115.779L66.4428 114.704C66.3692 114.661 66.2428 114.665 66.1599 114.713ZM71.8515 111.427L69.9044 112.551C69.8216 112.599 69.8144 112.672 69.8876 112.714L71.7501 113.79C71.8237 113.832 71.9501 113.828 72.033 113.78L73.98 112.656C74.0628 112.608 74.07 112.535 73.9965 112.493L72.1339 111.418C72.0607 111.375 71.9343 111.38 71.8515 111.427ZM60.4688 117.999L58.5218 119.123C58.4389 119.171 58.4313 119.244 58.5049 119.287L60.3678 120.362C60.441 120.405 60.5678 120.4 60.6506 120.353L62.5976 119.229C62.6801 119.181 62.6877 119.108 62.6144 119.065L60.7516 117.99C60.678 117.947 60.5513 117.951 60.4688 117.999ZM63.3144 116.356L61.3674 117.48C61.2849 117.528 61.2773 117.601 61.3509 117.643L63.2137 118.719C63.287 118.761 63.4137 118.757 63.4965 118.709L65.4435 117.585C65.5263 117.537 65.5339 117.464 65.4603 117.422L63.5975 116.346C63.5239 116.304 63.3969 116.308 63.3144 116.356ZM59.682 127.057L61.629 125.933C61.7119 125.885 61.7191 125.812 61.6459 125.769L59.783 124.694C59.7094 124.651 59.583 124.656 59.5002 124.703L57.5532 125.827C57.4704 125.875 57.4631 125.948 57.5364 125.991L59.3989 127.066C59.4728 127.109 59.5992 127.104 59.682 127.057ZM44.6763 126.349L42.8134 125.273C42.7398 125.231 42.6135 125.235 42.5306 125.283L40.5836 126.407C40.5008 126.455 40.4935 126.528 40.5668 126.57L42.4293 127.646C42.5029 127.689 42.6296 127.684 42.7121 127.636L44.6591 126.512C44.7423 126.464 44.7499 126.391 44.6763 126.349ZM48.3858 127.28L46.523 126.204C46.4497 126.162 46.323 126.166 46.2402 126.214L43.2447 127.943C43.1619 127.991 43.1547 128.064 43.2282 128.107L45.0911 129.182C45.1647 129.225 45.2911 129.22 45.3739 129.173L48.3693 127.443C48.4518 127.395 48.4591 127.322 48.3858 127.28ZM41.896 124.225L40.0335 123.149C39.9599 123.107 39.8335 123.111 39.7507 123.159L37.3542 124.543C37.2717 124.59 37.2642 124.664 37.3377 124.706L39.2003 125.781C39.2739 125.824 39.4006 125.819 39.4831 125.772L41.8795 124.388C41.962 124.34 41.9696 124.267 41.896 124.225ZM43.7335 123.164C43.8067 123.206 43.9334 123.202 44.0159 123.154L45.963 122.03C46.0458 121.982 46.0534 121.909 45.9798 121.867L44.1169 120.792C44.0437 120.749 43.9166 120.754 43.8341 120.801L41.8875 121.925C41.8046 121.973 41.797 122.046 41.8706 122.088L43.7335 123.164ZM51.7957 128.384L49.9332 127.308C49.8596 127.266 49.7329 127.27 49.6504 127.318L45.9059 129.479C45.823 129.527 45.8158 129.6 45.8894 129.643L47.7519 130.718C47.8255 130.761 47.9519 130.756 48.0347 130.709L51.7792 128.547C51.8617 128.499 51.8693 128.426 51.7957 128.384ZM53.1088 130.698L51.2459 129.623C51.1727 129.58 51.0459 129.584 50.9634 129.632L48.567 131.016C48.4841 131.064 48.4769 131.137 48.5502 131.179L50.413 132.255C50.4866 132.297 50.613 132.293 50.6958 132.245L53.0923 130.861C53.1748 130.814 53.182 130.741 53.1088 130.698ZM64.8911 110.948C64.9644 110.991 65.0911 110.987 65.1736 110.939L67.1206 109.814C67.2034 109.767 67.211 109.694 67.1374 109.651L65.2749 108.576C65.2013 108.533 65.0746 108.538 64.9917 108.585L63.0447 109.709C62.9619 109.757 62.9543 109.83 63.0279 109.873L64.8911 110.948ZM59.1999 114.234C59.2735 114.277 59.4002 114.272 59.4827 114.225L61.4297 113.1C61.5126 113.053 61.5198 112.979 61.4462 112.937L59.5837 111.862C59.5101 111.819 59.3837 111.824 59.3009 111.871L57.3539 112.995C57.2711 113.043 57.2638 113.116 57.3371 113.159L59.1999 114.234ZM46.5787 121.521C46.6523 121.563 46.779 121.559 46.8615 121.511L48.8085 120.387C48.8914 120.339 48.899 120.266 48.8254 120.224L46.9625 119.148C46.8889 119.106 46.7625 119.111 46.6797 119.158L44.7327 120.282C44.6502 120.33 44.6426 120.403 44.7162 120.446L46.5787 121.521ZM62.0455 112.591C62.1191 112.634 62.2455 112.629 62.3283 112.581L64.2753 111.457C64.3578 111.41 64.3654 111.337 64.2918 111.294L62.4293 110.219C62.3557 110.176 62.2293 110.181 62.1465 110.229L60.1995 111.353C60.1167 111.4 60.1094 111.473 60.1827 111.516L62.0455 112.591ZM56.354 115.877C56.4276 115.919 56.5543 115.915 56.6368 115.867L58.5838 114.743C58.6666 114.695 58.6739 114.623 58.6006 114.58L56.7381 113.504C56.6645 113.462 56.5381 113.466 56.4553 113.514L54.5083 114.638C54.4255 114.686 54.4182 114.759 54.4918 114.801L56.354 115.877ZM54.5063 130.813C54.4327 130.771 54.3063 130.775 54.2235 130.823L51.2281 132.552C51.1453 132.6 51.138 132.673 51.2113 132.716L53.0741 133.791C53.1477 133.834 53.2741 133.829 53.3569 133.782L56.3523 132.052C56.4352 132.005 56.4424 131.932 56.3688 131.889L54.5063 130.813ZM52.2702 118.235C52.3438 118.278 52.4702 118.273 52.5531 118.225L54.5001 117.101C54.5829 117.054 54.5901 116.981 54.5169 116.938L52.6544 115.863C52.5808 115.82 52.4541 115.825 52.3716 115.872L50.4245 116.997C50.3417 117.044 50.3345 117.117 50.4077 117.16L52.2702 118.235ZM49.4246 119.878C49.4982 119.921 49.625 119.916 49.7075 119.869L51.6545 118.744C51.7373 118.696 51.7445 118.623 51.6713 118.581L49.8084 117.505C49.7349 117.463 49.6081 117.467 49.5256 117.515L47.5786 118.639C47.4958 118.687 47.4885 118.76 47.5621 118.802L49.4246 119.878ZM107.226 100.375C107.153 100.333 107.026 100.337 106.943 100.385L102.151 103.152C102.068 103.2 102.06 103.273 102.134 103.315L103.997 104.391C104.07 104.433 104.197 104.429 104.28 104.381L109.072 101.614C109.155 101.566 109.162 101.493 109.089 101.451L107.226 100.375ZM100.936 104.007C100.862 103.964 100.736 103.969 100.653 104.017L98.7059 105.141C98.623 105.188 98.6158 105.261 98.689 105.304L100.552 106.379C100.625 106.422 100.752 106.417 100.834 106.37L102.781 105.246C102.864 105.198 102.871 105.125 102.798 105.082L100.936 104.007ZM62.528 125.414L64.475 124.29C64.5578 124.242 64.5651 124.169 64.4915 124.127L62.6289 123.051C62.5554 123.008 62.429 123.013 62.3461 123.061L60.3991 124.185C60.3163 124.233 60.309 124.306 60.3823 124.348L62.2448 125.424C62.3184 125.466 62.4451 125.462 62.528 125.414ZM95.2445 107.293C95.1709 107.25 95.0442 107.255 94.9617 107.302L93.0147 108.426C92.9319 108.474 92.9246 108.548 92.9982 108.59L94.8607 109.665C94.9343 109.708 95.0607 109.703 95.1435 109.656L97.0905 108.531C97.1733 108.484 97.1806 108.411 97.1073 108.368L95.2445 107.293ZM110.072 98.7323C109.998 98.6898 109.872 98.6941 109.789 98.7419L107.842 99.8662C107.76 99.9141 107.752 99.987 107.826 100.029L109.688 101.105C109.762 101.147 109.889 101.143 109.971 101.095L111.918 99.9712C112.001 99.9233 112.008 99.8504 111.935 99.8078L110.072 98.7323ZM114.781 98.1651L110.257 95.5531C110.183 95.5106 110.057 95.5149 109.974 95.5627L108.027 96.687C107.944 96.7349 107.937 96.8078 108.01 96.85L112.534 99.462C112.607 99.5045 112.733 99.4999 112.816 99.4524L114.763 98.3281C114.846 98.2802 114.854 98.2073 114.781 98.1651ZM84.6106 113.433C84.5373 113.39 84.4103 113.395 84.3278 113.442L81.9313 114.825C81.8485 114.873 81.8412 114.947 81.9145 114.989L83.777 116.064C83.8506 116.107 83.977 116.102 84.0598 116.054L86.4563 114.671C86.5391 114.623 86.5467 114.55 86.4731 114.508L84.6106 113.433ZM91.7996 109.282C91.726 109.239 91.5993 109.244 91.5168 109.291L88.5214 111.021C88.4389 111.068 88.4313 111.142 88.5046 111.184L90.3674 112.26C90.4407 112.302 90.5674 112.298 90.6502 112.25L93.6456 110.521C93.7285 110.473 93.7357 110.4 93.6621 110.357L91.7996 109.282ZM78.0208 117.237C77.9472 117.195 77.8208 117.199 77.738 117.247L61.7122 126.499C61.6294 126.547 61.6218 126.62 61.6954 126.662L63.5582 127.738C63.6315 127.78 63.7582 127.776 63.841 127.728L79.8668 118.476C79.9497 118.428 79.9569 118.355 79.8837 118.313L78.0208 117.237ZM61.0961 127.008C61.0225 126.966 60.8958 126.97 60.8133 127.018L58.4168 128.402C58.334 128.45 58.3267 128.522 58.4 128.565L60.2625 129.64C60.3361 129.683 60.4628 129.678 60.5453 129.631L62.9418 128.247C63.0243 128.199 63.0319 128.126 62.9583 128.084L61.0961 127.008ZM81.3155 115.335C81.2419 115.292 81.1155 115.297 81.0327 115.345L78.6366 116.728C78.5538 116.776 78.5462 116.849 78.6198 116.891L80.4826 117.967C80.5559 118.009 80.6826 118.005 80.7654 117.957L83.1619 116.573C83.2447 116.526 83.252 116.453 83.1784 116.41L81.3155 115.335ZM57.801 128.911C57.7278 128.869 57.6011 128.873 57.5182 128.92L55.1218 130.304C55.0389 130.352 55.0317 130.425 55.1053 130.467L56.9678 131.543C57.0414 131.585 57.1678 131.581 57.2506 131.533L59.6471 130.15C59.7299 130.102 59.7375 130.029 59.6639 129.986L57.801 128.911ZM87.9056 111.53C87.832 111.488 87.7056 111.492 87.6228 111.54L85.2264 112.923C85.1439 112.971 85.1363 113.044 85.2099 113.086L87.0727 114.162C87.146 114.204 87.2727 114.2 87.3552 114.152L89.7516 112.769C89.8345 112.721 89.8417 112.648 89.7681 112.605L87.9056 111.53ZM98.0901 105.65C98.0165 105.608 97.8898 105.612 97.8073 105.66L95.8603 106.784C95.7774 106.832 95.7702 106.905 95.8438 106.947L97.7063 108.023C97.7799 108.065 97.9063 108.061 97.9891 108.013L99.9361 106.889C100.019 106.841 100.026 106.769 99.9529 106.726L98.0901 105.65ZM104.464 101.202L106.411 100.078C106.494 100.03 106.501 99.9566 106.428 99.9144L104.565 98.8393C104.492 98.7967 104.365 98.801 104.282 98.8488L102.335 99.9728C102.253 100.021 102.245 100.094 102.318 100.136L104.181 101.212C104.255 101.254 104.382 101.25 104.464 101.202ZM92.8517 101.761L94.7987 100.637C94.8815 100.589 94.8888 100.516 94.8155 100.473L92.9526 99.398C92.8791 99.3554 92.7527 99.3597 92.6698 99.4075L90.7228 100.532C90.64 100.579 90.6327 100.652 90.7063 100.695L92.5689 101.77C92.6424 101.813 92.7688 101.809 92.8517 101.761ZM85.2933 112.27L90.9849 108.984C91.0677 108.937 91.0749 108.864 91.0014 108.821L89.1388 107.746C89.0652 107.703 88.9389 107.707 88.856 107.756L83.1645 111.041C83.0817 111.089 83.0744 111.162 83.1477 111.205L85.0102 112.28C85.0841 112.322 85.2105 112.318 85.2933 112.27ZM101.336 102.854C101.409 102.897 101.536 102.892 101.618 102.845L103.565 101.721C103.648 101.673 103.656 101.6 103.582 101.557L101.719 100.482C101.646 100.44 101.519 100.444 101.437 100.492L99.4893 101.616C99.4068 101.663 99.3992 101.737 99.4728 101.779L101.336 102.854ZM98.9576 101.309L100.905 100.184C100.987 100.136 100.995 100.064 100.921 100.021L99.059 98.9459C98.9854 98.9033 98.8587 98.9079 98.7762 98.9554L96.8292 100.079C96.7463 100.127 96.7387 100.2 96.8123 100.243L98.6752 101.318C98.7481 101.36 98.8748 101.356 98.9576 101.309ZM82.4474 113.913L84.3944 112.789C84.4773 112.741 84.4845 112.668 84.4109 112.626L82.5484 111.55C82.4748 111.508 82.3484 111.512 82.2656 111.56L80.3186 112.684C80.2358 112.732 80.2285 112.805 80.3021 112.847L82.1646 113.923C82.2382 113.965 82.3649 113.961 82.4474 113.913ZM95.0452 106.486C95.1188 106.529 95.2452 106.524 95.328 106.477L97.275 105.352C97.3578 105.305 97.3651 105.232 97.2918 105.189L95.429 104.114C95.3554 104.071 95.229 104.076 95.1462 104.124L93.1992 105.248C93.1163 105.295 93.1091 105.368 93.1826 105.411L95.0452 106.486ZM68.2191 122.128L70.1661 121.004C70.2486 120.956 70.2562 120.883 70.1826 120.84L68.3198 119.765C68.2465 119.722 68.1198 119.727 68.037 119.774L66.09 120.899C66.0072 120.947 65.9999 121.02 66.0732 121.062L67.936 122.137C68.0099 122.18 68.1363 122.176 68.2191 122.128ZM71.0647 120.485L73.0117 119.361C73.0942 119.313 73.1018 119.24 73.0282 119.198L71.1654 118.122C71.0921 118.08 70.9654 118.084 70.8829 118.132L68.9359 119.256C68.8531 119.304 68.8458 119.377 68.9191 119.419L70.7819 120.495C70.8555 120.537 70.9822 120.533 71.0647 120.485ZM65.3736 123.771L67.3206 122.647C67.4034 122.599 67.4106 122.526 67.3374 122.483L65.4749 121.408C65.4013 121.366 65.2749 121.37 65.1921 121.418L63.2451 122.542C63.1622 122.59 63.155 122.663 63.2282 122.705L65.0911 123.781C65.1643 123.823 65.2907 123.819 65.3736 123.771ZM76.7562 117.199L78.7032 116.075C78.7861 116.027 78.7937 115.954 78.7201 115.912L76.8572 114.836C76.784 114.794 76.6569 114.798 76.5744 114.846L74.6274 115.97C74.5449 116.018 74.5373 116.091 74.6106 116.133L76.4731 117.209C76.5467 117.251 76.6737 117.247 76.7562 117.199ZM73.9107 118.842L75.8577 117.718C75.9405 117.67 75.9481 117.597 75.8745 117.555L74.0116 116.479C73.9384 116.437 73.8117 116.441 73.7288 116.489L71.7818 117.613C71.6993 117.66 71.6917 117.734 71.7653 117.776L73.6282 118.851C73.7011 118.894 73.8278 118.89 73.9107 118.842ZM79.6018 115.556L81.5488 114.432C81.6317 114.384 81.6389 114.311 81.5657 114.269L79.7028 113.193C79.6292 113.151 79.5028 113.155 79.42 113.203L77.473 114.327C77.3902 114.375 77.3829 114.448 77.4565 114.49L79.319 115.566C79.3926 115.608 79.519 115.604 79.6018 115.556ZM95.131 92.7003C95.2046 92.7425 95.3313 92.7382 95.4138 92.6907L97.3608 91.5664C97.4436 91.5185 97.4509 91.4456 97.3773 91.4034L96.8816 91.1169C96.808 91.0744 96.6813 91.079 96.5988 91.1265L94.6518 92.2508C94.5693 92.2983 94.5617 92.3716 94.6353 92.4142L95.131 92.7003ZM80.9868 101.655C81.0601 101.698 81.1868 101.694 81.2697 101.646L83.2167 100.522C83.2992 100.474 83.3067 100.401 83.2335 100.359L81.3706 99.2835C81.297 99.2409 81.1703 99.2452 81.0878 99.293L79.1408 100.417C79.058 100.465 79.0504 100.538 79.124 100.581L80.9868 101.655ZM86.6784 98.3697C86.7516 98.4122 86.8783 98.4076 86.9608 98.3601L88.9078 97.2361C88.9907 97.1883 88.9979 97.1154 88.9247 97.0728L87.0618 95.9973C86.9882 95.9547 86.8615 95.9594 86.779 96.0069L84.832 97.1312C84.7495 97.179 84.7419 97.2523 84.8155 97.2945L86.6784 98.3697ZM77.5119 103.662C77.5855 103.704 77.7119 103.7 77.7948 103.652L79.7418 102.528C79.8243 102.48 79.8318 102.407 79.7583 102.365L77.8957 101.289C77.8221 101.247 77.6954 101.251 77.6129 101.299L75.6659 102.423C75.5831 102.471 75.5758 102.544 75.6491 102.586L77.5119 103.662ZM83.8324 100.012C83.9057 100.055 84.0324 100.051 84.1152 100.003L86.0622 98.8785C86.1447 98.8307 86.1523 98.7578 86.0787 98.7152L84.2159 97.6397C84.1426 97.5971 84.0159 97.6014 83.9331 97.6493L81.9861 98.7733C81.9033 98.8211 81.8957 98.8941 81.9693 98.9366L83.8324 100.012ZM71.8204 106.948C71.894 106.99 72.0204 106.986 72.1032 106.938L74.0502 105.814C74.1331 105.766 74.1403 105.693 74.0671 105.65L72.2042 104.575C72.1306 104.532 72.0042 104.537 71.9214 104.585L69.9744 105.709C69.8916 105.756 69.8843 105.829 69.9579 105.872L71.8204 106.948ZM74.6664 105.305C74.7399 105.347 74.8663 105.343 74.9492 105.295L76.8962 104.171C76.979 104.123 76.9863 104.05 76.9127 104.007L75.0501 102.932C74.9766 102.889 74.8502 102.894 74.7673 102.941L72.8203 104.065C72.7375 104.113 72.7302 104.186 72.8035 104.229L74.6664 105.305ZM89.4395 95.9861C89.5131 96.0287 89.6398 96.024 89.7223 95.9765L91.6693 94.8522C91.7518 94.8047 91.7594 94.7314 91.6861 94.6892L91.1901 94.4027C91.1169 94.3602 90.9901 94.3648 90.9076 94.4123L88.9606 95.5366C88.8778 95.5845 88.8702 95.6574 88.9438 95.6996L89.4395 95.9861ZM97.9766 91.0572C98.0502 91.0998 98.1765 91.0955 98.2594 91.0476L100.206 89.9237C100.289 89.8758 100.296 89.8029 100.223 89.7603L99.7272 89.4739C99.6536 89.4316 99.5272 89.4359 99.4444 89.4838L97.4974 90.6077C97.4146 90.6556 97.4073 90.7289 97.4806 90.7711L97.9766 91.0572ZM101.89 93.3164C101.963 93.359 102.09 93.3547 102.173 93.3068L104.12 92.1828C104.202 92.135 104.21 92.0621 104.136 92.0195L102.273 90.944C102.2 90.9015 102.074 90.9057 101.991 90.9536L100.044 92.0779C99.9609 92.1257 99.9536 92.1987 100.027 92.2413L101.89 93.3164ZM107.31 99.559L109.257 98.4347C109.34 98.3872 109.347 98.3139 109.274 98.2717L107.411 97.1962C107.338 97.1536 107.211 97.1582 107.128 97.2058L105.181 98.3297C105.099 98.3776 105.091 98.4505 105.165 98.4931L107.027 99.5686C107.1 99.6111 107.227 99.6065 107.31 99.559ZM92.2854 94.343C92.359 94.3856 92.4854 94.3813 92.5682 94.3335L94.5152 93.2095C94.598 93.1616 94.6053 93.0887 94.532 93.0461L94.036 92.76C93.9624 92.7174 93.8361 92.7217 93.7532 92.7696L91.8062 93.8936C91.7237 93.9414 91.7161 94.0143 91.7894 94.0569L92.2854 94.343ZM68.9748 108.59C69.0484 108.633 69.1752 108.629 69.2577 108.581L71.2047 107.457C71.2875 107.409 71.2951 107.336 71.2215 107.294L69.3586 106.218C69.285 106.175 69.1587 106.18 69.0758 106.228L67.1288 107.352C67.0463 107.4 67.0387 107.473 67.1123 107.515L68.9748 108.59Z" fill="#263238"/>
<path opacity="0.4" d="M77.3965 123.267L77.7955 123.497L88.3993 129.618L107.257 118.73L107.65 118.507L96.6467 112.155L77.3965 123.267Z" fill="black"/>
<path d="M77.7959 123.497L88.3998 129.618L107.258 118.73L96.6472 112.609L77.7959 123.497Z" fill="#27DEBF"/>
<path opacity="0.45" d="M77.7959 123.497L88.3998 129.618L107.258 118.73L96.6472 112.609L77.7959 123.497Z" fill="black"/>
<path d="M23.0208 121.283C23.1822 121.376 23.3637 121.453 23.5577 121.513C23.364 121.457 23.1825 121.38 23.0208 121.287C22.9644 121.255 22.9079 121.218 22.8555 121.178C22.9079 121.215 22.9644 121.251 23.0208 121.283Z" fill="#27DEBF"/>
<path d="M26.0801 121.449C26.088 121.436 26.0963 121.432 26.1086 121.424C26.1007 121.433 26.0924 121.437 26.0884 121.445C26.0841 121.449 26.0841 121.449 26.0801 121.449Z" fill="#27DEBF"/>
<path d="M147.708 8.10573L105.797 32.3033C105.423 32.5195 105.119 33.0455 105.119 33.4781V80.4041C105.119 80.8367 105.424 81.3598 105.801 81.5723L107.04 82.2716C107.417 82.4841 108.026 82.4811 108.4 82.265L150.312 58.0674C150.686 57.8512 150.99 57.3252 150.99 56.8926V9.9666C150.99 9.53397 150.685 9.01092 150.308 8.7984L149.069 8.09912C148.692 7.88627 148.083 7.88925 147.708 8.10573Z" fill="#FAFAFA"/>
<path d="M107.723 81.8731V34.9471C107.723 34.5145 108.026 33.9885 108.401 33.7723L150.312 9.57475C150.687 9.3586 150.99 9.53383 150.99 9.96646V56.8925C150.99 57.3251 150.687 57.8511 150.312 58.0673L108.401 82.2648C108.026 82.481 107.723 82.3058 107.723 81.8731Z" fill="#37474F"/>
<path d="M108.4 82.2649C108.039 82.4744 107.38 82.4817 107.039 82.2728L105.801 81.5709C105.425 81.361 105.118 80.8379 105.118 80.4053V33.478C105.118 33.2526 105.203 33.0048 105.334 32.7856L107.922 34.2799C107.796 34.4898 107.722 34.731 107.722 34.9471V81.8715C107.722 82.2678 108.001 82.4962 108.4 82.2649Z" fill="#263238"/>
<path d="M150.981 9.84335C150.928 9.5018 150.649 9.3797 150.311 9.57407L108.402 33.7723C108.215 33.8819 108.045 34.0667 107.923 34.2799L105.332 32.7856C105.454 32.582 105.617 32.4064 105.799 32.3032L147.711 8.10458C148.084 7.88843 148.691 7.88513 149.07 8.09831L150.308 8.79692C150.649 8.99129 150.934 9.43943 150.981 9.84335Z" fill="#455A64"/>
<path d="M100.015 61.5385C99.5887 61.2847 97.612 60.16 97.5084 60.1003C97.1952 59.9092 97.0824 59.4456 97.3738 59.1321L105.178 50.761L107.722 52.2209L99.921 60.595C99.6389 60.8963 99.7296 61.3319 100.015 61.5385Z" fill="#FAFAFA"/>
<path d="M100.015 61.5385C99.5887 61.2847 97.612 60.16 97.5084 60.1003C97.1952 59.9092 97.0824 59.4456 97.3738 59.1321L105.178 50.761L107.722 52.2209L99.921 60.595C99.6389 60.8963 99.7296 61.3319 100.015 61.5385Z" fill="#455A64"/>
<path d="M107.723 52.2227L99.9201 60.5948C99.5291 61.0142 99.8594 61.695 100.431 61.6481L107.722 61.0475L107.723 52.2227Z" fill="#FAFAFA"/>
<path d="M107.723 52.2227L99.9201 60.5948C99.5291 61.0142 99.8594 61.695 100.431 61.6481L107.722 61.0475L107.723 52.2227Z" fill="#37474F"/>
<path d="M131.632 48.4259C131.032 48.0675 130.198 48.1121 129.275 48.645C127.447 49.7013 125.965 52.2684 125.965 54.3797C125.965 55.4291 126.331 56.167 126.924 56.5148C127.315 56.7439 128.798 57.5946 129.182 57.8207C129.781 58.1728 130.612 58.1256 131.53 57.5953C133.358 56.5396 134.842 53.9722 134.84 51.8605C134.839 50.8151 134.475 50.0789 133.886 49.7297C133.494 49.4974 132.011 48.6529 131.632 48.4259Z" fill="#EBEBEB"/>
<path d="M132.719 56.6505L126.188 52.8796C126.046 53.3878 125.965 53.896 125.965 54.3798C125.965 55.4292 126.331 56.1671 126.924 56.5149C127.315 56.7439 128.798 57.5947 129.182 57.8207C129.781 58.1728 130.612 58.1257 131.53 57.5953C131.95 57.3531 132.35 57.0284 132.719 56.6505Z" fill="#E0E0E0"/>
<path d="M131.53 49.9491C129.702 51.0054 128.219 53.5725 128.22 55.6838C128.22 57.7951 129.702 58.6508 131.531 57.5952C133.359 56.5395 134.843 53.9721 134.841 51.8604C134.839 49.7494 133.357 48.8937 131.53 49.9491Z" fill="#FAFAFA"/>
<path d="M131.53 51.3025C130.349 51.9849 129.391 53.6432 129.392 55.0071C129.392 56.371 130.349 56.9237 131.53 56.2419C132.711 55.5602 133.67 53.9012 133.669 52.5374C133.668 51.1735 132.71 50.6207 131.53 51.3025Z" fill="#37474F"/>
<path d="M145.863 45.4675C145.863 45.7754 145.86 46.0391 145.846 46.3496L142.106 48.5082L139.853 47.207C139.865 46.9545 139.867 46.5912 139.867 46.3414C139.867 43.7888 139.262 41.7441 138.208 40.304L141.238 35.9705L143.491 37.2716C144.991 39.1807 145.86 41.958 145.863 45.4675Z" fill="#27DEBF"/>
<path d="M145.863 45.4686C145.863 45.7765 145.86 46.0382 145.846 46.349L142.106 48.5079C142.118 48.2554 142.12 47.8934 142.12 47.6436C142.12 45.0911 141.515 43.0464 140.461 41.6063L143.491 37.2727C144.992 39.1818 145.86 41.959 145.863 45.4686Z" fill="#27DEBF"/>
<path opacity="0.1" d="M140.461 41.6068L138.207 40.3052L141.237 35.9717L143.491 37.2732L140.461 41.6068Z" fill="black"/>
<path opacity="0.2" d="M142.119 47.6425C142.119 47.8923 142.117 48.2556 142.105 48.5081L139.852 47.2069C139.864 46.9544 139.866 46.5911 139.866 46.3413C139.866 43.7888 139.261 41.7441 138.207 40.304L140.46 41.6051C141.515 43.0453 142.119 45.0899 142.119 47.6425Z" fill="black"/>
<path d="M142.819 36.2063L139.801 40.5233L137.548 39.2222C137.506 39.1832 137.464 39.1472 137.423 39.1083C136.524 38.8364 135.52 38.7671 134.443 38.9169L132.19 37.6157L133.303 32.7994C135.473 32.4608 137.417 32.7911 139.018 33.7204C139.365 33.92 140.73 34.7025 141.221 34.9883C141.321 35.0437 141.418 35.1021 141.515 35.1658C141.582 35.2074 141.645 35.249 141.709 35.2935C141.776 35.3351 141.84 35.3796 141.904 35.4295C141.951 35.4628 141.995 35.4961 142.04 35.5321C142.223 35.6681 142.403 35.8152 142.575 35.9733C142.658 36.0482 142.739 36.1258 142.819 36.2063Z" fill="#27DEBF"/>
<path opacity="0.2" d="M139.8 40.5234L137.547 39.2222L137.425 39.1113C138.327 39.3829 139.126 39.8575 139.8 40.5234Z" fill="black"/>
<path opacity="0.2" d="M142.819 36.2074L139.801 40.5244C138.455 39.1929 136.599 38.6157 134.443 38.918L135.556 34.1016C138.483 33.6439 141.005 34.4013 142.819 36.2074Z" fill="white"/>
<path opacity="0.1" d="M133.302 32.8L135.556 34.1016L134.443 38.9179L132.189 37.6167L133.302 32.8Z" fill="black"/>
<path opacity="0.5" d="M139.017 33.7204C139.364 33.9201 140.729 34.7025 141.22 34.9883C139.63 34.0838 137.702 33.7647 135.555 34.1006L133.302 32.7994C135.472 32.4608 137.417 32.7908 139.017 33.7204Z" fill="white"/>
<path d="M134.468 34.3254L133.359 39.1335C132.36 39.3942 131.308 39.8327 130.224 40.4597C129.133 41.0897 128.076 41.8718 127.072 42.7707L124.819 41.4695L123.729 37.9072C125.069 36.7004 126.484 35.6516 127.943 34.8081C129.424 33.9534 130.859 33.3627 132.215 33.0242L134.468 34.3254Z" fill="#27DEBF"/>
<path opacity="0.05" d="M123.728 37.908L125.981 39.2095L127.072 42.7718L124.818 41.4703L123.728 37.908Z" fill="black"/>
<path opacity="0.6" d="M134.468 34.3254C133.112 34.6639 131.677 35.2546 130.196 36.1093C128.737 36.9528 127.322 38.0016 125.981 39.2084L123.729 37.9072C125.069 36.7004 126.484 35.6516 127.943 34.8081C129.424 33.9534 130.859 33.3627 132.215 33.0242L134.468 34.3254Z" fill="white"/>
<path opacity="0.4" d="M134.468 34.3264L133.359 39.1345C132.36 39.3952 131.308 39.8338 130.224 40.4608C129.133 41.0904 128.076 41.8729 127.072 42.7718L125.981 39.2094C127.322 38.0026 128.737 36.9539 130.196 36.1104C131.677 35.256 133.112 34.665 134.468 34.3264Z" fill="white"/>
<path d="M126.011 43.7805C124.011 45.8113 122.265 48.2972 120.95 50.9498L118.007 49.8816L115.754 48.5804C117.543 44.9847 119.927 41.625 122.662 38.9114L124.915 40.2126L126.011 43.7805Z" fill="#27DEBF"/>
<path opacity="0.7" d="M124.915 40.2126C122.179 42.9258 119.796 46.2859 118.007 49.8816L115.754 48.5804C117.543 44.9847 119.927 41.625 122.662 38.9114L124.915 40.2126Z" fill="white"/>
<path opacity="0.6" d="M126.012 43.7816C124.012 45.8124 122.266 48.2983 120.951 50.9508L118.008 49.8826C119.797 46.2869 122.181 42.9272 124.916 40.2136L126.012 43.7816Z" fill="white"/>
<path d="M120.274 52.409V52.4116C119.086 55.1859 118.382 57.916 118.337 60.6157L114.539 62.8076L112.286 61.5064C112.358 57.8025 113.374 53.824 115.066 50.0396L118.021 51.1104L120.274 52.409Z" fill="#27DEBF"/>
<path opacity="0.6" d="M117.319 51.3417L115.065 50.0405L118.02 51.1114L120.274 52.4099L117.319 51.3417Z" fill="white"/>
<path opacity="0.9" d="M117.319 51.3407C115.626 55.1252 114.611 59.1037 114.539 62.8076L112.286 61.5064C112.358 57.8025 113.374 53.824 115.066 50.0396L117.319 51.3407Z" fill="white"/>
<path opacity="0.75" d="M120.275 52.41V52.4127C119.087 55.187 118.381 57.917 118.336 60.6168L114.54 62.8086C114.612 59.1047 115.628 55.1262 117.32 51.3418L120.275 52.41Z" fill="white"/>
<path d="M144.09 43.7007L143.491 43.3638L127.226 55.9873L127.273 58.4025L127.872 58.7395L144.09 43.7007Z" fill="#E0E0E0"/>
<path d="M127.872 58.7394L127.824 56.3242L144.09 43.7007L127.872 58.7394Z" fill="#EBEBEB"/>
<path d="M127.226 55.9873L127.824 56.3242L144.09 43.7007L143.491 43.3638L127.226 55.9873Z" fill="white"/>
</svg>
