<svg width="27" height="22" viewBox="0 0 27 22" fill="none" xmlns="http://www.w3.org/2000/svg">
<path fill-rule="evenodd" clip-rule="evenodd" d="M4 0C1.79086 0 0 1.79086 0 4V17.3333C0 19.5425 1.79086 21.3333 4 21.3333H22.6667C24.8758 21.3333 26.6667 19.5425 26.6667 17.3333V4C26.6667 1.79086 24.8758 0 22.6667 0H4ZM3.76735 2.68689C3.8429 2.6736 3.92064 2.66667 4 2.66667H22.6667C22.746 2.66667 22.8238 2.6736 22.8993 2.6869L13.3334 9.06422L3.76735 2.68689ZM2.66667 5.15804V17.3333C2.66667 18.0697 3.26362 18.6667 4 18.6667H22.6667C23.403 18.6667 24 18.0697 24 17.3333V5.15806L14.073 11.7761C13.6251 12.0747 13.0416 12.0747 12.5938 11.7761L2.66667 5.15804Z" fill="#A0ABBB"/>
</svg>
