<svg width="24" height="24" viewBox="0 0 24 24" fill="none" xmlns="http://www.w3.org/2000/svg">
<path fill-rule="evenodd" clip-rule="evenodd" d="M8.29718 17.344C8.93493 17.344 9.6833 16.8885 10.0575 16.3353C10.256 16.0392 10.3959 15.7561 10.5813 15.4763C10.7668 15.1965 10.9067 14.8386 11.1345 14.6108C10.2853 14.4449 9.95662 15.0598 8.89913 13.2832C8.30694 12.2973 4.8384 6.65201 4.56508 6.41448C4.03471 5.9557 3.4718 6.00125 2.48915 6.00125C1.65944 6.00125 0.829718 6.00125 0 6.00125L4.16486 12.8375C4.48699 13.3711 6.24729 16.2963 6.55315 16.6054C6.99566 17.0479 7.42842 17.344 8.29718 17.344Z" fill="url(#paint0_linear_2630_60)"/>
<path fill-rule="evenodd" clip-rule="evenodd" d="M9.75171 9.66504L12.3775 13.8885C12.4849 14.0739 12.5825 14.2757 12.6834 14.4221C13.1747 15.1347 13.8157 16.472 14.4534 16.9308C15.4524 17.6499 16.8645 17.4286 17.6064 16.3451C17.8439 16.0002 18.6118 14.78 18.6736 14.5067C18.0261 14.8288 17.1606 14.4319 16.7897 13.8299L11.8927 6.0696C11.8211 6.34942 11.5576 6.62274 11.3851 6.94487C11.1053 7.46547 9.84607 9.30062 9.75171 9.66504Z" fill="url(#paint1_linear_2630_60)"/>
<path fill-rule="evenodd" clip-rule="evenodd" d="M17.5673 9.59671C17.5673 10.6314 19.269 12.4828 19.4349 13.1922C19.6985 13.1206 19.6204 13.0848 19.7701 12.8342C19.8742 12.6585 19.9588 12.5414 20.0629 12.3657L23.4176 6.94161C23.6226 6.6325 23.8373 6.30712 24 6.00127C23.1703 6.00127 22.3406 6.00127 21.5109 6.00127C19.1746 6.00127 19.5195 6.09563 18.384 7.85593C18.1269 8.24964 17.5673 9.0273 17.5673 9.59671Z" fill="url(#paint2_linear_2630_60)"/>
<defs>
<linearGradient id="paint0_linear_2630_60" x1="0" y1="11.672" x2="11.1345" y2="11.672" gradientUnits="userSpaceOnUse">
<stop stop-color="#00C6FF"/>
<stop offset="1" stop-color="#0072FF"/>
</linearGradient>
<linearGradient id="paint1_linear_2630_60" x1="9.75171" y1="11.7086" x2="18.6736" y2="11.7086" gradientUnits="userSpaceOnUse">
<stop stop-color="#00C6FF"/>
<stop offset="1" stop-color="#0072FF"/>
</linearGradient>
<linearGradient id="paint2_linear_2630_60" x1="17.5673" y1="9.59671" x2="24" y2="9.59671" gradientUnits="userSpaceOnUse">
<stop stop-color="#00C6FF"/>
<stop offset="1" stop-color="#0072FF"/>
</linearGradient>
</defs>
</svg>
