<svg width="44" height="40" viewBox="0 0 44 40" fill="none" xmlns="http://www.w3.org/2000/svg">
<path d="M40.953 22.857H2.857C2.09928 22.857 1.37259 23.158 0.836796 23.6938C0.301004 24.2296 0 24.9563 0 25.714V37.143C0 37.9007 0.301004 38.6274 0.836796 39.1632C1.37259 39.699 2.09928 40 2.857 40H40.953C41.7107 40 42.4374 39.699 42.9732 39.1632C43.509 38.6274 43.81 37.9007 43.81 37.143V25.714C43.81 24.9563 43.509 24.2296 42.9732 23.6938C42.4374 23.158 41.7107 22.857 40.953 22.857ZM41.905 37.143C41.9047 37.3954 41.8044 37.6374 41.6259 37.8159C41.4474 37.9944 41.2054 38.0947 40.953 38.095H2.857C2.60451 38.095 2.36237 37.9947 2.18383 37.8162C2.0053 37.6376 1.905 37.3955 1.905 37.143V25.714C1.90526 25.4616 2.00565 25.2196 2.18413 25.0411C2.3626 24.8626 2.60459 24.7623 2.857 24.762H40.953C41.2055 24.762 41.4476 24.8623 41.6262 25.0408C41.8047 25.2194 41.905 25.4615 41.905 25.714V37.143ZM40.953 0H2.857C2.09928 0 1.37259 0.301004 0.836796 0.836796C0.301004 1.37259 0 2.09928 0 2.857V14.286C0 15.0437 0.301004 15.7704 0.836796 16.3062C1.37259 16.842 2.09928 17.143 2.857 17.143H40.953C41.7107 17.143 42.4374 16.842 42.9732 16.3062C43.509 15.7704 43.81 15.0437 43.81 14.286V2.857C43.81 2.09928 43.509 1.37259 42.9732 0.836796C42.4374 0.301004 41.7107 0 40.953 0ZM41.905 14.286C41.9047 14.5384 41.8044 14.7804 41.6259 14.9589C41.4474 15.1374 41.2054 15.2377 40.953 15.238H2.857C2.60451 15.238 2.36237 15.1377 2.18383 14.9592C2.0053 14.7806 1.905 14.5385 1.905 14.286V2.857C1.905 2.60451 2.0053 2.36237 2.18383 2.18383C2.36237 2.0053 2.60451 1.905 2.857 1.905H40.953C41.2055 1.905 41.4476 2.0053 41.6262 2.18383C41.8047 2.36237 41.905 2.60451 41.905 2.857V14.286ZM36.191 31.429C36.191 31.9342 35.9903 32.4188 35.633 32.776C35.2758 33.1333 34.7912 33.334 34.286 33.334C33.7808 33.334 33.2962 33.1333 32.939 32.776C32.5817 32.4188 32.381 31.9342 32.381 31.429C32.381 30.9238 32.5817 30.4392 32.939 30.082C33.2962 29.7247 33.7808 29.524 34.286 29.524C34.7912 29.524 35.2758 29.7247 35.633 30.082C35.9903 30.4392 36.191 30.9238 36.191 31.429ZM36.191 8.571C36.191 9.07624 35.9903 9.56078 35.633 9.91804C35.2758 10.2753 34.7912 10.476 34.286 10.476C33.7808 10.476 33.2962 10.2753 32.939 9.91804C32.5817 9.56078 32.381 9.07624 32.381 8.571C32.381 8.06576 32.5817 7.58122 32.939 7.22396C33.2962 6.8667 33.7808 6.666 34.286 6.666C34.7912 6.666 35.2758 6.8667 35.633 7.22396C35.9903 7.58122 36.191 8.06576 36.191 8.571Z" fill="black"/>
</svg>
