<svg width="54" height="40" viewBox="0 0 54 40" fill="none" xmlns="http://www.w3.org/2000/svg">
<path d="M53 30H50V5C50 4.34339 49.8707 3.69321 49.6194 3.08658C49.3681 2.47995 48.9998 1.92876 48.5355 1.46447C48.0712 1.00017 47.52 0.631876 46.9134 0.380602C46.3068 0.129329 45.6566 0 45 0L9 0C7.67392 0 6.40215 0.526784 5.46447 1.46447C4.52678 2.40215 4 3.67392 4 5V30H1C0.734784 30 0.48043 30.1054 0.292893 30.2929C0.105357 30.4804 0 30.7348 0 31V35C0 36.3261 0.526784 37.5979 1.46447 38.5355C2.40215 39.4732 3.67392 40 5 40H49C50.3261 40 51.5979 39.4732 52.5355 38.5355C53.4732 37.5979 54 36.3261 54 35V31C54 30.7348 53.8946 30.4804 53.7071 30.2929C53.5196 30.1054 53.2652 30 53 30ZM6 5C6 4.20435 6.31607 3.44129 6.87868 2.87868C7.44129 2.31607 8.20435 2 9 2H45C45.7957 2 46.5587 2.31607 47.1213 2.87868C47.6839 3.44129 48 4.20435 48 5V30H6V5ZM52 35C52 35.7957 51.6839 36.5587 51.1213 37.1213C50.5587 37.6839 49.7957 38 49 38H5C4.20435 38 3.44129 37.6839 2.87868 37.1213C2.31607 36.5587 2 35.7957 2 35V32H52V35ZM32 9C32 9.26522 31.8946 9.51957 31.7071 9.70711C31.5196 9.89464 31.2652 10 31 10H23C22.7348 10 22.4804 9.89464 22.2929 9.70711C22.1054 9.51957 22 9.26522 22 9C22 8.73478 22.1054 8.48043 22.2929 8.29289C22.4804 8.10536 22.7348 8 23 8H31C31.2652 8 31.5196 8.10536 31.7071 8.29289C31.8946 8.48043 32 8.73478 32 9Z" fill="#080808"/>
</svg>
