<svg width="42" height="41" viewBox="0 0 42 41" fill="none" xmlns="http://www.w3.org/2000/svg">
<path d="M21.2994 11.5379C19.5268 11.5376 17.7939 12.0629 16.3199 13.0475C14.8459 14.032 13.697 15.4316 13.0184 17.0692C12.3398 18.7068 12.1621 20.5088 12.5077 22.2474C12.8533 23.986 13.7067 25.5831 14.96 26.8366C16.2133 28.0902 17.8101 28.9439 19.5486 29.2899C21.2871 29.6358 23.0892 29.4584 24.7268 28.7802C26.3645 28.1019 27.7643 26.9532 28.7491 25.4793C29.7339 24.0055 30.2596 22.2727 30.2596 20.5001C30.2569 18.1243 29.312 15.8466 27.6323 14.1665C25.9526 12.4864 23.6751 11.5411 21.2994 11.5379ZM21.2994 27.8333C20.3364 27.8333 19.3829 27.6436 18.4933 27.2751C17.6037 26.9066 16.7953 26.3665 16.1144 25.6855C15.4335 25.0046 14.8934 24.1963 14.5249 23.3066C14.1564 22.417 13.9668 21.4634 13.9668 20.5005C13.9668 19.5375 14.1564 18.584 14.5249 17.6944C14.8934 16.8047 15.4335 15.9963 16.1144 15.3154C16.7953 14.6345 17.6037 14.0944 18.4933 13.7259C19.3829 13.3574 20.3364 13.1677 21.2994 13.1677C23.2441 13.1677 25.1092 13.9403 26.4843 15.3154C27.8594 16.6906 28.632 18.5557 28.632 20.5005C28.632 22.4453 27.8594 24.3104 26.4843 25.6855C25.1092 27.0607 23.2441 27.8333 21.2994 27.8333ZM38.3938 21.215C38.4109 20.7384 38.4109 20.2634 38.3938 19.7894L41.6183 15.7576C41.6981 15.6583 41.7535 15.5416 41.7801 15.417C41.8066 15.2924 41.8036 15.1633 41.7712 15.0401C41.2885 13.2357 40.5684 11.5034 39.6298 9.88848C39.5671 9.77748 39.4791 9.68277 39.373 9.612C39.2669 9.54122 39.1457 9.49636 39.0191 9.48104L33.8881 8.91044C33.5655 8.56135 33.2293 8.22511 32.8802 7.9025L32.3122 2.77908C32.2969 2.65246 32.2521 2.5312 32.1813 2.42511C32.1105 2.31901 32.0158 2.23105 31.9047 2.16833C30.292 1.23211 28.5628 0.512932 26.7618 0.0294471C26.6384 -0.00344874 26.5091 -0.00690515 26.3842 0.0193564C26.2592 0.045618 26.1422 0.100863 26.0426 0.180638L22.0135 3.40434C21.5384 3.38533 21.0629 3.38533 20.5878 3.40434L16.5527 0.180638C16.4533 0.100424 16.3364 0.0447141 16.2115 0.0180057C16.0865 -0.00870271 15.9571 -0.00566128 15.8335 0.0268845C14.031 0.510087 12.3004 1.23018 10.6872 2.16833C10.5762 2.2311 10.4815 2.31908 10.4107 2.42516C10.3399 2.53125 10.2951 2.65248 10.2797 2.77908L9.70829 7.91018C9.35979 8.23221 9.02154 8.57047 8.70038 8.91813L3.57707 9.48701C3.45051 9.50247 3.32934 9.54739 3.22328 9.61815C3.11722 9.68891 3.02922 9.78354 2.96634 9.89446C2.03021 11.5069 1.31105 13.2359 0.827502 15.0367C0.794607 15.16 0.791151 15.2894 0.817412 15.4143C0.843673 15.5392 0.898917 15.6562 0.97869 15.7559L4.20232 19.7851C4.18329 20.2604 4.18329 20.7363 4.20232 21.2116L0.979544 25.2451C0.899272 25.3445 0.843525 25.4614 0.816815 25.5863C0.790104 25.7113 0.79318 25.8408 0.825794 25.9643C1.30891 27.7672 2.02898 29.4981 2.9672 31.1116C3.03007 31.2226 3.11807 31.3172 3.22413 31.3879C3.3302 31.4587 3.45137 31.5036 3.57793 31.5191L8.70892 32.0897C9.03094 32.4373 9.36919 32.7756 9.71684 33.0976L10.2874 38.2304C10.3029 38.357 10.3478 38.4782 10.4185 38.5842C10.4893 38.6903 10.5839 38.7783 10.6949 38.8412C12.3098 39.7753 14.0411 40.4918 15.8438 40.9724C15.9671 41.0053 16.0965 41.0088 16.2214 40.9826C16.3464 40.9563 16.4634 40.901 16.563 40.8212L20.5921 37.5966C21.0687 37.6146 21.5437 37.6146 22.0177 37.5966L26.0485 40.8212C26.1474 40.9003 26.2633 40.9554 26.3871 40.9819C26.5109 41.0084 26.6392 41.0058 26.7618 40.9741C28.5653 40.4905 30.2967 39.7699 31.9107 38.8309C32.0217 38.7681 32.1163 38.6801 32.1871 38.574C32.2579 38.468 32.3027 38.3468 32.3181 38.2202L32.8879 33.0891C33.2364 32.767 33.5746 32.4296 33.8958 32.0811L39.0293 31.5105C39.156 31.4953 39.2772 31.4504 39.3833 31.3797C39.4894 31.3089 39.5774 31.2141 39.6401 31.1031C40.5741 29.4881 41.2907 27.7568 41.7712 25.954C41.8042 25.8307 41.8077 25.7013 41.7814 25.5764C41.7552 25.4515 41.6999 25.3344 41.62 25.2348L38.3938 21.215ZM38.428 29.9388L33.4038 30.4975C33.2035 30.5196 33.0184 30.6151 32.8845 30.7657C32.471 31.2321 32.0303 31.6728 31.5639 32.0863C31.4134 32.2203 31.3178 32.4053 31.2957 32.6056L30.7371 37.6282C29.4697 38.329 28.128 38.886 26.737 39.2888L22.7899 36.1291C22.6449 36.014 22.4651 35.9516 22.28 35.9523H22.2313C21.61 35.991 20.987 35.991 20.3658 35.9523C20.1643 35.9401 19.9656 36.0031 19.808 36.1291L15.8617 39.2862C14.4702 38.8853 13.128 38.3301 11.8599 37.6308L11.3022 32.6056C11.2798 32.4052 11.184 32.2201 11.0331 32.0863C10.5671 31.673 10.1264 31.232 9.71342 30.7657C9.57943 30.6151 9.39441 30.5196 9.19409 30.4975L4.17157 29.9388C3.47081 28.6715 2.91386 27.3297 2.51107 25.9387L5.66979 21.9915C5.79625 21.8337 5.85958 21.6346 5.84745 21.4328C5.8108 20.8115 5.8108 20.1886 5.84745 19.5673C5.85936 19.3658 5.79605 19.167 5.66979 19.0095L2.51278 15.0632C2.91424 13.6717 3.46945 12.3298 4.16901 11.0613L9.19409 10.5035C9.39453 10.4812 9.57957 10.3853 9.71342 10.2344C10.126 9.76804 10.5676 9.32728 11.0331 8.91471C11.184 8.78086 11.2798 8.59581 11.3022 8.39536L11.8599 3.37274C13.1273 2.67198 14.469 2.11501 15.86 1.7122L19.808 4.87098C19.9655 4.99725 20.1642 5.06056 20.3658 5.04866C20.987 5.00997 21.61 5.00997 22.2313 5.04866C22.4331 5.06078 22.6322 4.99745 22.7899 4.87098L26.7353 1.71391C28.1267 2.11537 29.4686 2.6706 30.7371 3.37018L31.2957 8.39536C31.3178 8.59569 31.4134 8.78072 31.5639 8.91471C32.0303 9.32728 32.471 9.7689 32.8845 10.2344C33.0183 10.3853 33.2033 10.4812 33.4038 10.5035L38.4263 11.0613C39.127 12.3287 39.684 13.6704 40.0868 15.0614L36.9272 19.0095C36.8012 19.1671 36.7382 19.3659 36.7504 19.5673C36.7872 20.1883 36.7872 20.8118 36.7504 21.4328C36.7381 21.6345 36.8011 21.8336 36.9272 21.9915L40.0842 25.937C39.6834 27.3285 39.1273 28.6708 38.428 29.9388Z" fill="#0072FF"/>
</svg>
