<svg width="42" height="40" viewBox="0 0 42 40" fill="none" xmlns="http://www.w3.org/2000/svg">
<path d="M40.8711 17.3897H9.40608L39.3511 9.48469C39.4621 9.45535 39.5662 9.40432 39.6574 9.33455C39.7486 9.26478 39.8251 9.17765 39.8824 9.07818C39.9398 8.97871 39.9769 8.86888 39.9916 8.755C40.0063 8.64113 39.9983 8.52547 39.9681 8.41469L38.1941 1.89369C38.0107 1.23753 37.5763 0.679985 36.9849 0.341783C36.3934 0.00358042 35.6926 -0.088064 35.0341 0.0866918L1.91808 8.82669C1.4249 8.95428 0.980976 9.22604 0.643059 9.60725C0.305142 9.98845 0.0885874 10.4618 0.021081 10.9667C-0.021919 11.2967 0.00108104 11.6327 0.088081 11.9547L1.75508 18.0837C1.74325 18.1416 1.73756 18.2006 1.73808 18.2597V37.3897C1.73795 37.7325 1.80537 38.0719 1.93649 38.3886C2.06761 38.7054 2.25985 38.9931 2.50224 39.2355C2.74463 39.4779 3.0324 39.6702 3.34912 39.8013C3.66584 39.9324 4.00529 39.9998 4.34808 39.9997H39.1311C39.8231 39.9997 40.4868 39.7248 40.9763 39.2356C41.4657 38.7463 41.7408 38.0827 41.7411 37.3907V18.2597C41.7411 18.029 41.6494 17.8077 41.4863 17.6445C41.3231 17.4814 41.1018 17.3897 40.8711 17.3897ZM21.3061 5.50469L29.5681 10.2697L19.1501 13.0197L10.8971 8.25969L21.3071 5.50469H21.3061ZM35.4711 1.76469C35.5423 1.74618 35.6155 1.73677 35.6891 1.73669C35.8762 1.73137 36.0598 1.78841 36.2109 1.89884C36.3621 2.00926 36.4723 2.16681 36.5241 2.34669L38.0671 8.02669L31.9581 9.63969L23.6971 4.87369L35.4711 1.76469ZM1.83908 10.8957C1.89475 10.7997 1.96894 10.7156 2.05735 10.6485C2.14576 10.5814 2.24662 10.5325 2.35408 10.5047L8.50108 8.88269L16.7631 13.6457L3.31508 17.1997L1.76708 11.5077C1.73941 11.4059 1.73224 11.2997 1.74597 11.1952C1.75971 11.0906 1.79407 10.9898 1.84708 10.8987L1.83908 10.8967V10.8957ZM40.0021 37.3907C40.0021 37.6214 39.9104 37.8427 39.7473 38.0059C39.5841 38.169 39.3628 38.2607 39.1321 38.2607H4.34808C4.11734 38.2607 3.89605 38.169 3.7329 38.0059C3.56974 37.8427 3.47808 37.6214 3.47808 37.3907V19.1297H40.0021V37.3907Z" fill="#030303"/>
</svg>
