<svg width="40" height="40" viewBox="0 0 40 40" fill="none" xmlns="http://www.w3.org/2000/svg">
<path d="M31.304 16.522C31.304 16.7527 31.2123 16.974 31.0492 17.1372C30.886 17.3003 30.6647 17.392 30.434 17.392H16.523C16.2923 17.392 16.071 17.3003 15.9078 17.1372C15.7447 16.974 15.653 16.7527 15.653 16.522C15.653 16.2913 15.7447 16.07 15.9078 15.9068C16.071 15.7437 16.2923 15.652 16.523 15.652H30.436C30.6667 15.652 30.888 15.7437 31.0512 15.9068C31.2143 16.07 31.306 16.2913 31.306 16.522H31.304ZM30.434 22.609H16.523C16.4063 22.605 16.2901 22.6246 16.1811 22.6665C16.0722 22.7084 15.9728 22.7718 15.8888 22.853C15.8049 22.9341 15.7382 23.0313 15.6926 23.1388C15.647 23.2462 15.6235 23.3618 15.6235 23.4785C15.6235 23.5952 15.647 23.7108 15.6926 23.8182C15.7382 23.9257 15.8049 24.0229 15.8888 24.104C15.9728 24.1852 16.0722 24.2486 16.1811 24.2905C16.2901 24.3324 16.4063 24.352 16.523 24.348H30.436C30.6667 24.348 30.888 24.2563 31.0512 24.0932C31.2143 23.93 31.306 23.7087 31.306 23.478C31.306 23.2473 31.2143 23.026 31.0512 22.8628C30.888 22.6997 30.6667 22.608 30.436 22.608L30.434 22.609ZM40 2.609V37.39C40.0003 37.7327 39.933 38.0722 39.802 38.3889C39.6709 38.7056 39.4788 38.9934 39.2365 39.2358C38.9942 39.4782 38.7065 39.6704 38.3898 39.8016C38.0731 39.9327 37.7337 40.0001 37.391 40H2.61C2.26726 40.0003 1.92783 39.933 1.61112 39.802C1.2944 39.6709 1.00662 39.4788 0.764219 39.2365C0.521819 38.9942 0.329557 38.7065 0.198426 38.3898C0.0672958 38.0731 -0.000131327 37.7337 1.9203e-07 37.391V2.61C-0.000131162 2.2673 0.0672557 1.92793 0.198311 1.61127C0.329367 1.29462 0.521524 1.00689 0.763805 0.764512C1.00609 0.522138 1.29374 0.329871 1.61035 0.198694C1.92695 0.0675171 2.2663 1.66489e-07 2.609 1.91662e-07H37.39C37.7327 -0.000131162 38.0721 0.0672557 38.3887 0.198311C38.7054 0.329367 38.9931 0.521524 39.2355 0.763805C39.4779 1.00609 39.6701 1.29374 39.8013 1.61035C39.9325 1.92695 40 2.2663 40 2.609ZM2.609 38.26H8.696V1.739H2.609C2.37826 1.739 2.15697 1.83066 1.99382 1.99382C1.83066 2.15697 1.739 2.37826 1.739 2.609V37.39C1.739 37.6207 1.83066 37.842 1.99382 38.0052C2.15697 38.1683 2.37826 38.26 2.609 38.26ZM38.26 2.609C38.26 2.37826 38.1683 2.15697 38.0052 1.99382C37.842 1.83066 37.6207 1.739 37.39 1.739H10.435V38.261H37.39C37.6207 38.261 37.842 38.1693 38.0052 38.0062C38.1683 37.843 38.26 37.6217 38.26 37.391V2.609Z" fill="black"/>
</svg>
