<svg width="40" height="40" viewBox="0 0 40 40" fill="none" xmlns="http://www.w3.org/2000/svg">
<path d="M20 0C16.0444 0 12.1776 1.17298 8.8886 3.37061C5.59962 5.56824 3.03617 8.69181 1.52242 12.3463C0.00866568 16.0009 -0.387401 20.0222 0.384303 23.9018C1.15601 27.7814 3.06082 31.3451 5.85787 34.1421C8.65492 36.9392 12.2186 38.844 16.0982 39.6157C19.9778 40.3874 23.9992 39.9913 27.6537 38.4776C31.3082 36.9638 34.4318 34.4004 36.6294 31.1114C38.827 27.8224 40 23.9556 40 20C39.9942 14.6975 37.8852 9.61376 34.1357 5.8643C30.3862 2.11483 25.3026 0.00582319 20 0ZM27.154 19.2C27.004 17.8495 26.4726 16.5696 25.622 15.51L33.558 7.574C36.488 10.7583 38.1969 14.8767 38.382 19.2H27.154ZM25.6 20C25.6099 20.7416 25.4724 21.4778 25.1955 22.1659C24.9185 22.854 24.5076 23.4801 23.9867 24.0081C23.4657 24.536 22.8451 24.9552 22.1608 25.2414C21.4765 25.5275 20.7422 25.6748 20.0005 25.6748C19.2588 25.6748 18.5245 25.5275 17.8402 25.2414C17.1559 24.9552 16.5353 24.536 16.0143 24.0081C15.4934 23.4801 15.0825 22.854 14.8056 22.1659C14.5286 21.4778 14.3911 20.7416 14.401 20C14.4207 18.5279 15.0193 17.1227 16.0673 16.0887C17.1152 15.0546 18.5283 14.4748 20.0005 14.4748C21.4728 14.4748 22.8858 15.0546 23.9338 16.0887C24.9817 17.1227 25.5803 18.5279 25.6 20ZM20 38.4C17.007 38.4022 14.0586 37.6742 11.4106 36.2792C8.76257 34.8843 6.49481 32.8643 4.80397 30.3947C3.11313 27.9251 2.05027 25.0802 1.70756 22.1069C1.36484 19.1336 1.75262 16.1215 2.83727 13.332C3.92191 10.5424 5.67067 8.05956 7.93191 6.09871C10.1931 4.13787 12.8986 2.75823 15.8136 2.07944C18.7286 1.40066 21.7652 1.44322 24.6601 2.20343C27.5549 2.96364 30.2206 4.41855 32.426 6.442L24.49 14.378C23.2418 13.3816 21.6978 12.8284 20.1008 12.8057C18.5038 12.7829 16.9446 13.2917 15.6685 14.2521C14.3924 15.2125 13.4718 16.5699 13.0517 18.1108C12.6315 19.6516 12.7356 21.2885 13.3475 22.7637C13.9595 24.2389 15.0446 25.4688 16.4321 26.2598C17.8196 27.0508 19.4307 27.3581 21.0119 27.1332C22.5931 26.9083 24.0547 26.164 25.1666 25.0175C26.2785 23.871 26.9776 22.3874 27.154 20.8H38.382C38.1705 25.535 36.1421 30.0064 32.7186 33.2843C29.295 36.5622 24.7398 38.3944 20 38.4Z" fill="black"/>
</svg>
