<svg width="47" height="40" viewBox="0 0 47 40" fill="none" xmlns="http://www.w3.org/2000/svg">
<path d="M42.318 8.696H38.26V0.87C38.26 0.639262 38.1683 0.417974 38.0052 0.254817C37.842 0.0916605 37.6207 0 37.39 0L9.564 0C9.33326 0 9.11197 0.0916605 8.94882 0.254817C8.78566 0.417974 8.694 0.639262 8.694 0.87V8.696H4.637C2.08 8.696 0 10.652 0 13.044V30.434C0 30.6647 0.0916605 30.886 0.254817 31.0492C0.417974 31.2123 0.639262 31.304 0.87 31.304H8.695V39.13C8.695 39.3607 8.78666 39.582 8.94982 39.7452C9.11297 39.9083 9.33426 40 9.565 40H37.391C37.6217 40 37.843 39.9083 38.0062 39.7452C38.1693 39.582 38.261 39.3607 38.261 39.13V31.304H46.087C46.3177 31.304 46.539 31.2123 46.7022 31.0492C46.8653 30.886 46.957 30.6647 46.957 30.434V13.044C46.957 10.652 44.875 8.696 42.318 8.696ZM10.433 1.739H36.521V8.696H10.434L10.433 1.739ZM36.521 38.261H10.434V26.087H36.521V38.261ZM45.216 29.565H38.26V25.217C38.26 25.1027 38.2375 24.9896 38.1938 24.8841C38.1501 24.7785 38.086 24.6826 38.0052 24.6018C37.9244 24.521 37.8285 24.4569 37.7229 24.4132C37.6174 24.3695 37.5042 24.347 37.39 24.347H9.564C9.44975 24.347 9.33662 24.3695 9.23107 24.4132C9.12551 24.4569 9.0296 24.521 8.94882 24.6018C8.86803 24.6826 8.80395 24.7785 8.76023 24.8841C8.7165 24.9896 8.694 25.1027 8.694 25.217V29.565H1.738V13.043C1.738 11.604 3.042 10.435 4.636 10.435H42.317C43.911 10.435 45.215 11.605 45.215 13.043L45.216 29.565ZM38.26 17.391C38.26 17.8522 38.0768 18.2945 37.7507 18.6207C37.4245 18.9468 36.9822 19.13 36.521 19.13C36.0598 19.13 35.6175 18.9468 35.2913 18.6207C34.9652 18.2945 34.782 17.8522 34.782 17.391C34.782 16.9298 34.9652 16.4875 35.2913 16.1613C35.6175 15.8352 36.0598 15.652 36.521 15.652C36.9822 15.652 37.4245 15.8352 37.7507 16.1613C38.0768 16.4875 38.26 16.9298 38.26 17.391Z" fill="black"/>
</svg>
