<svg width="34" height="30" viewBox="0 0 34 30" fill="none" xmlns="http://www.w3.org/2000/svg">
<path d="M0.981445 15C0.981088 18.9437 2.55253 22.7289 5.35562 25.5363C8.15871 28.3436 11.9679 29.9472 15.9587 30H16.1611C20.0365 30.008 23.7666 28.5426 26.5785 25.9075C26.7019 25.7875 26.7727 25.6246 26.7758 25.4536C26.7789 25.2826 26.7141 25.1173 26.5951 24.9931C26.4762 24.8688 26.3127 24.7956 26.1398 24.7892C25.9669 24.7828 25.7983 24.8437 25.6702 24.9587C23.6884 26.8051 21.2 28.0336 18.5157 28.4906C15.8314 28.9476 13.0704 28.6129 10.5775 27.5284C8.08462 26.4439 5.97041 24.6575 4.49899 22.3925C3.02758 20.1276 2.2642 17.4844 2.30422 14.7932C2.34425 12.102 3.1859 9.48215 4.72404 7.26088C6.26218 5.03962 8.4286 3.31544 10.9527 2.30375C13.4767 1.29206 16.2465 1.03771 18.9161 1.57248C21.5856 2.10724 24.0364 3.40741 25.9625 5.31057L25.984 5.32994L31.6222 10.4349H25.4014C25.2264 10.4349 25.0585 10.5037 24.9347 10.626C24.8109 10.7483 24.7414 10.9142 24.7414 11.0871C24.7414 11.2601 24.8109 11.426 24.9347 11.5483C25.0585 11.6706 25.2264 11.7393 25.4014 11.7393H33.3217C33.4968 11.7392 33.6646 11.6703 33.7883 11.548C33.912 11.4256 33.9814 11.2598 33.9814 11.0868V3.26119C33.9814 3.08822 33.9119 2.92233 33.7881 2.80002C33.6643 2.67771 33.4965 2.609 33.3214 2.609C33.1464 2.609 32.9785 2.67771 32.8547 2.80002C32.7309 2.92233 32.6614 3.08822 32.6614 3.26119V9.60182L26.8866 4.38432C24.7625 2.2891 22.0576 0.863048 19.1137 0.286352C16.1697 -0.290344 13.1188 0.00820201 10.3465 1.14426C7.57418 2.28033 5.20489 4.20292 3.538 6.66909C1.87112 9.13526 0.98146 12.0343 0.981445 15Z" fill="#0072FF"/>
</svg>
