<svg width="48" height="40" viewBox="0 0 48 40" fill="none" xmlns="http://www.w3.org/2000/svg">
<path d="M47.62 0.952001V10.476C47.62 10.7286 47.5196 10.9709 47.341 11.1495C47.1624 11.3281 46.9201 11.4285 46.6675 11.4285C46.4149 11.4285 46.1726 11.3281 45.994 11.1495C45.8154 10.9709 45.715 10.7286 45.715 10.476V1.905H37.143C36.8904 1.905 36.6481 1.80465 36.4695 1.62602C36.2909 1.44739 36.1905 1.20512 36.1905 0.952501C36.1905 0.699882 36.2909 0.45761 36.4695 0.278981C36.6481 0.100353 36.8904 5.25258e-07 37.143 5.25258e-07H46.667C46.7921 -0.000130885 46.916 0.0243964 47.0316 0.07218C47.1472 0.119964 47.2523 0.190067 47.3408 0.278481C47.4293 0.366896 47.4995 0.471888 47.5474 0.587455C47.5953 0.703022 47.62 0.826898 47.62 0.952001ZM10.476 38.095H1.905V29.524C1.905 29.2714 1.80465 29.0291 1.62602 28.8505C1.44739 28.6719 1.20512 28.5715 0.952501 28.5715C0.699882 28.5715 0.45761 28.6719 0.278981 28.8505C0.100353 29.0291 5.2581e-07 29.2714 5.2581e-07 29.524V39.048C0.000265561 39.3006 0.100788 39.5427 0.279481 39.7212C0.458175 39.8997 0.700422 40 0.953001 40H10.477C10.7296 40 10.9719 39.8996 11.1505 39.721C11.3291 39.5424 11.4295 39.3001 11.4295 39.0475C11.4295 38.7949 11.3291 38.5526 11.1505 38.374C10.9719 38.1954 10.7286 38.095 10.476 38.095ZM46.666 28.571C46.4134 28.5713 46.1713 28.6718 45.9928 28.8505C45.8143 29.0292 45.714 29.2714 45.714 29.524V38.095H37.142C36.8947 38.103 36.6603 38.2069 36.4882 38.3846C36.3161 38.5624 36.2199 38.8001 36.2199 39.0475C36.2199 39.2949 36.3161 39.5326 36.4882 39.7104C36.6603 39.8881 36.8947 39.992 37.142 40H46.666C46.7911 40.0001 46.915 39.9756 47.0306 39.9278C47.1462 39.88 47.2513 39.8099 47.3398 39.7215C47.4283 39.6331 47.4985 39.5281 47.5464 39.4125C47.5943 39.297 47.619 39.1731 47.619 39.048V29.524C47.6191 29.3988 47.5946 29.2748 47.5467 29.1591C47.4989 29.0435 47.4287 28.9384 47.3402 28.8498C47.2516 28.7613 47.1465 28.6911 47.0309 28.6433C46.9152 28.5954 46.7912 28.5709 46.666 28.571ZM0.953001 11.43C1.0781 11.43 1.20198 11.4053 1.31755 11.3574C1.43311 11.3095 1.53811 11.2393 1.62652 11.1508C1.71493 11.0623 1.78504 10.9572 1.83282 10.8416C1.8806 10.726 1.90513 10.6021 1.905 10.477V1.905H10.477C10.7296 1.905 10.9719 1.80465 11.1505 1.62602C11.3291 1.44739 11.4295 1.20512 11.4295 0.952501C11.4295 0.699882 11.3291 0.45761 11.1505 0.278981C10.9719 0.100353 10.7296 5.25258e-07 10.477 5.25258e-07H0.953001C0.827898 -0.000130885 0.703996 0.0243964 0.588379 0.07218C0.472761 0.119964 0.367696 0.190067 0.279188 0.278481C0.190681 0.366896 0.120468 0.471888 0.0725627 0.587455C0.0246577 0.703022 4.56792e-07 0.826898 5.2581e-07 0.952001V10.476C-0.000131042 10.6012 0.0244293 10.7252 0.0722754 10.8409C0.120122 10.9565 0.190314 11.0616 0.278834 11.1502C0.367355 11.2387 0.472465 11.3089 0.588148 11.3567C0.70383 11.4046 0.827814 11.4291 0.953001 11.429V11.43ZM12.38 9.524C12.1275 9.524 11.8854 9.6243 11.7068 9.80284C11.5283 9.98137 11.428 10.2235 11.428 10.476V29.524C11.428 29.7766 11.5284 30.0189 11.707 30.1975C11.8856 30.3761 12.1279 30.4765 12.3805 30.4765C12.6331 30.4765 12.8754 30.3761 13.054 30.1975C13.2326 30.0189 13.333 29.7766 13.333 29.524V10.476C13.333 10.3509 13.3083 10.227 13.2604 10.1115C13.2125 9.99589 13.1423 9.8909 13.0538 9.80248C12.9653 9.71407 12.8602 9.64396 12.7446 9.59618C12.629 9.5484 12.5051 9.52387 12.38 9.524ZM36.19 10.476C36.19 10.2234 36.0896 9.98111 35.911 9.80248C35.7324 9.62385 35.4901 9.5235 35.2375 9.5235C34.9849 9.5235 34.7426 9.62385 34.564 9.80248C34.3854 9.98111 34.285 10.2234 34.285 10.476V29.524C34.285 29.7766 34.3854 30.0189 34.564 30.1975C34.7426 30.3761 34.9849 30.4765 35.2375 30.4765C35.4901 30.4765 35.7324 30.3761 35.911 30.1975C36.0896 30.0189 36.19 29.7766 36.19 29.524V10.476ZM27.618 9.524C27.3655 9.524 27.1234 9.6243 26.9448 9.80284C26.7663 9.98137 26.666 10.2235 26.666 10.476V29.524C26.666 29.7766 26.7664 30.0189 26.945 30.1975C27.1236 30.3761 27.3659 30.4765 27.6185 30.4765C27.8711 30.4765 28.1134 30.3761 28.292 30.1975C28.4706 30.0189 28.571 29.7766 28.571 29.524V10.476C28.571 10.3509 28.5463 10.227 28.4984 10.1115C28.4505 9.99589 28.3803 9.8909 28.2918 9.80248C28.2033 9.71407 28.0982 9.64396 27.9826 9.59618C27.867 9.5484 27.7431 9.52387 27.618 9.524ZM19.999 9.524C19.7465 9.524 19.5044 9.6243 19.3258 9.80284C19.1473 9.98137 19.047 10.2235 19.047 10.476V29.524C19.047 29.7766 19.1474 30.0189 19.326 30.1975C19.5046 30.3761 19.7469 30.4765 19.9995 30.4765C20.2521 30.4765 20.4944 30.3761 20.673 30.1975C20.8517 30.0189 20.952 29.7766 20.952 29.524V10.476C20.952 10.3509 20.9273 10.227 20.8794 10.1115C20.8315 9.99589 20.7613 9.8909 20.6728 9.80248C20.5843 9.71407 20.4792 9.64396 20.3636 9.59618C20.248 9.5484 20.1241 9.52387 19.999 9.524Z" fill="black"/>
</svg>
