<svg width="36" height="36" viewBox="0 0 36 36" fill="none" xmlns="http://www.w3.org/2000/svg">
<path d="M32.8218 0H2.38319C1.77781 0 1.19722 0.237053 0.769147 0.65901C0.341074 1.08097 0.100586 1.65326 0.100586 2.25L0.100586 13.2705C0.100586 29.5605 14.0907 34.9665 16.8945 35.8852C17.3536 36.0377 17.8507 36.0377 18.3097 35.8852C21.1143 34.9665 35.1044 29.5605 35.1044 13.2705V2.25C35.1044 1.65326 34.8639 1.08097 34.4358 0.65901C34.0078 0.237053 33.4272 0 32.8218 0ZM33.5827 13.275C33.5827 28.5352 20.4561 33.6037 17.8304 34.464C17.6829 34.5166 17.5213 34.5166 17.3738 34.464C14.7488 33.6037 1.62233 28.5352 1.62233 13.275V2.25C1.62233 2.05109 1.70249 1.86032 1.84518 1.71967C1.98787 1.57902 2.1814 1.5 2.38319 1.5H32.8218C33.0236 1.5 33.2171 1.57902 33.3598 1.71967C33.5025 1.86032 33.5827 2.05109 33.5827 2.25V13.275ZM25.7495 10.7197C25.8202 10.7894 25.8764 10.8721 25.9147 10.9632C25.9529 11.0542 25.9727 11.1518 25.9727 11.2504C25.9727 11.3489 25.9529 11.4465 25.9147 11.5376C25.8764 11.6286 25.8202 11.7113 25.7495 11.781L15.0973 22.2832C15.0266 22.3531 14.9427 22.4085 14.8502 22.4463C14.7578 22.4841 14.6587 22.5036 14.5586 22.5036C14.4586 22.5036 14.3595 22.4841 14.267 22.4463C14.1746 22.4085 14.0906 22.3531 14.0199 22.2832L9.45472 17.7825C9.31195 17.6418 9.23174 17.4509 9.23174 17.2519C9.23174 17.0529 9.31195 16.862 9.45472 16.7212C9.59749 16.5805 9.79113 16.5015 9.99303 16.5015C10.1949 16.5015 10.3886 16.5805 10.5313 16.7212L14.5586 20.691L24.6736 10.7205C24.7443 10.6508 24.8282 10.5954 24.9206 10.5577C25.0129 10.52 25.112 10.5005 25.2119 10.5005C25.3119 10.5005 25.4109 10.52 25.5033 10.5577C25.5957 10.5954 25.6796 10.6508 25.7503 10.7205L25.7495 10.7197Z" fill="#0072FF"/>
</svg>
