<svg width="26" height="24" viewBox="0 0 26 24" fill="none" xmlns="http://www.w3.org/2000/svg">
<path fill-rule="evenodd" clip-rule="evenodd" d="M19.358 0.319561C18.932 0.371374 18.2486 1.92525 18.2486 2.84219C18.2486 3.19325 18.2552 3.18987 17.9482 2.99606C16.8997 2.33419 16.2933 2.28937 16.1493 2.86306C16.0708 3.17575 16.23 3.38394 16.7455 3.64312C24.8477 7.71681 22.0108 19.9334 12.9673 19.9134C4.00078 19.8936 1.20146 7.87006 9.19271 3.70062C9.8144 3.37625 9.97109 3.0525 9.6834 2.68669C9.41809 2.34944 8.94621 2.45269 7.98753 3.05794C7.85746 3.14 7.74046 3.20719 7.72753 3.20719C7.71453 3.20719 7.68784 2.98925 7.66822 2.72281C7.60197 1.82581 7.05415 0.588749 6.64796 0.419061C6.33484 0.288186 6.1634 0.363312 5.75297 0.811249C4.6224 2.04506 4.35109 3.70969 5.03028 5.24537L5.1809 5.586L4.94515 5.95069L4.70947 6.31544L4.52928 5.97137C4.31559 5.56325 3.60546 4.8185 3.1244 4.49806C2.22878 3.9015 1.7474 4.50281 1.73115 6.23844C1.72015 7.40925 2.05515 8.20437 2.92203 9.06519L3.43984 9.57937L3.39809 9.98706C3.35021 10.4543 3.36496 10.4414 3.10378 10.2453C2.53509 9.81837 1.48184 9.45719 0.805652 9.45719C0.182527 9.45719 0.0567148 9.80037 0.311027 10.8066C0.70159 12.3517 1.77778 13.4351 3.26209 13.7772L3.61934 13.8596L3.74334 14.2657C3.89115 14.75 3.91778 14.7101 3.49859 14.6322C2.77228 14.4972 1.26246 14.7501 0.95409 15.0585C0.42584 15.5868 1.65103 17.1029 3.05196 17.6545C3.43259 17.8044 4.7519 17.8592 5.38121 17.7514L5.67003 17.7019L5.93372 18.0169C6.11215 18.2299 6.17028 18.3399 6.11359 18.3568C4.42284 18.8623 3.2899 19.9976 3.93478 20.5402C5.16396 21.5745 7.25765 21.5782 8.73028 20.5488L9.13809 20.2637L9.49021 20.405C9.6839 20.4826 9.85365 20.5539 9.8674 20.5632C9.88121 20.5726 9.74846 20.722 9.57246 20.8953C8.68815 21.7657 8.16946 23.0127 8.53828 23.3815C9.29459 24.1378 11.804 23.3671 12.7703 22.0817L13.0511 21.7081L13.277 22.0159C14.0654 23.0898 15.2753 23.6331 16.7396 23.5704C17.4157 23.5415 17.5897 23.4679 17.6883 23.1692C17.8213 22.7662 17.3251 21.7442 16.646 21.0223L16.191 20.5387L16.5822 20.3836L16.9733 20.2284L17.2515 20.4454C18.6395 21.5274 21.283 21.4937 22.2185 20.3819C22.6604 19.8567 21.5872 18.7723 20.2486 18.3912C19.8542 18.2789 19.853 18.2734 20.1498 17.9334L20.4161 17.6284L20.8218 17.699C22.2482 17.9474 23.4152 17.6016 24.377 16.6454C25.6642 15.3658 25.5488 14.8538 23.9112 14.5766C23.4892 14.5052 22.4437 14.5265 22.2395 14.6107C22.1487 14.6481 22.1523 14.6021 22.27 14.2214L22.4035 13.7897L22.8298 13.6799C24.2765 13.3072 25.2984 12.2543 25.6866 10.7364C25.9663 9.64262 25.8052 9.28575 25.0629 9.35475C24.3363 9.42225 23.5215 9.72269 22.8892 10.1561L22.6236 10.3382L22.6162 10.1008C22.6122 9.97025 22.591 9.78362 22.5693 9.686C22.5338 9.52631 22.586 9.4515 23.0935 8.936C24.088 7.92575 24.4307 6.82025 24.1829 5.42181C23.9273 3.97956 23.5632 3.81981 22.4913 4.67981C22.0782 5.01125 21.5695 5.62044 21.3854 6.00406C21.2612 6.26306 21.2577 6.26187 21.0063 5.87544L20.7954 5.55094L20.9025 5.26969C21.5267 3.63006 21.4004 2.41137 20.4725 1.12012C19.9912 0.450312 19.7439 0.272686 19.358 0.319561ZM12.6778 6.85131C12.6217 6.89406 12.264 7.55187 11.8831 8.31319C11.4402 9.19819 11.1502 9.70844 11.0789 9.72794C11.0175 9.74481 10.3205 9.85119 9.52984 9.96444C7.88384 10.2001 7.81115 10.2321 7.81103 10.72C7.81103 10.986 7.82121 10.9983 8.94009 12.0822L10.0692 13.1759L9.81521 14.6447C9.51746 16.3662 9.51903 16.3389 9.70584 16.556C9.96921 16.8621 10.1796 16.8044 11.6804 16.0144L13.0185 15.3101L13.2117 15.4211C14.2642 16.026 15.842 16.7757 15.9896 16.7412C16.4942 16.623 16.5084 16.4692 16.187 14.6134L15.938 13.1759L17.0573 12.0969C18.7882 10.4281 18.7448 10.2785 16.4361 9.95756C15.6627 9.85006 14.9816 9.74275 14.9226 9.719C14.8628 9.69506 14.5114 9.06125 14.13 8.28981C13.7227 7.46575 13.394 6.87656 13.3195 6.83669C13.1522 6.74712 12.8043 6.75506 12.6778 6.85131Z" fill="#232323"/>
</svg>
