<svg width="194" height="173" viewBox="0 0 194 173" fill="none" xmlns="http://www.w3.org/2000/svg">
<g clip-path="url(#clip0_91_683)">
<path d="M194 0H0V182H194V0Z" fill="white"/>
<path d="M88.5159 165.374C54.647 164.131 16.3739 148.53 12.0978 113.202C9.60021 92.5657 17.2015 73.3032 27.797 55.6285C37.4602 39.5091 48.1286 24.4948 65.3318 14.7597C80.3058 6.2861 98.4972 4.55419 115.152 9.33023C132.179 14.2129 146.672 25.0234 157.947 37.716C169.114 50.2868 179.571 66.1244 181.937 82.6052C184.436 100.02 176.066 117.122 164.578 130.365C146.136 151.623 118.452 166.473 88.5159 165.374Z" fill="#CBD8E9"/>
<mask id="mask0_91_683" style="mask-type:luminance" maskUnits="userSpaceOnUse" x="11" y="6" width="172" height="160">
<path d="M88.5159 165.374C54.647 164.131 16.3739 148.53 12.0978 113.202C9.60021 92.5657 17.2015 73.3032 27.797 55.6285C37.4602 39.5091 48.1286 24.4948 65.3318 14.7597C80.3058 6.2861 98.4972 4.55419 115.152 9.33023C132.179 14.2129 146.672 25.0234 157.947 37.716C169.114 50.2868 179.571 66.1244 181.937 82.6052C184.436 100.02 176.066 117.122 164.578 130.365C146.136 151.623 118.452 166.473 88.5159 165.374Z" fill="white"/>
</mask>
<g mask="url(#mask0_91_683)">
<path d="M87.39 152.509L99.229 157.586L72.2952 152.128C45.3867 151.45 21.2546 150.876 20.7409 150.985L10.2168 167.607L135.266 170.758L145.568 154.029C145.568 154.029 115.167 153.222 87.39 152.509Z" fill="#A9BDD9"/>
<path d="M-3.62012 26.5843L149.786 5.46684L-3.62012 0.530273V26.5843Z" fill="#A9BDD9"/>
<path d="M96.7559 20.5508L174.341 13.5576L181.356 21.0993L96.7559 20.5508Z" fill="#A9BDD9"/>
</g>
<mask id="mask1_91_683" style="mask-type:luminance" maskUnits="userSpaceOnUse" x="11" y="6" width="172" height="160">
<path d="M88.5159 165.374C54.647 164.131 16.3739 148.53 12.0978 113.202C9.60021 92.5657 17.2015 73.3032 27.797 55.6285C37.4602 39.5091 48.1286 24.4948 65.3318 14.7597C80.3058 6.2861 98.4972 4.55419 115.152 9.33023C132.179 14.2129 146.672 25.0234 157.947 37.716C169.114 50.2868 179.571 66.1244 181.937 82.6052C184.436 100.02 176.066 117.122 164.578 130.365C146.136 151.623 118.452 166.473 88.5159 165.374Z" fill="white"/>
</mask>
<g mask="url(#mask1_91_683)">
<path d="M80.1152 22.9658H66.0518V26.3376H80.1152V22.9658Z" stroke="white" stroke-width="0.4866" stroke-miterlimit="10"/>
<path d="M92.4541 16.7495H78.3906V20.1212H92.4541V16.7495Z" stroke="white" stroke-width="0.4866" stroke-miterlimit="10"/>
</g>
<mask id="mask2_91_683" style="mask-type:luminance" maskUnits="userSpaceOnUse" x="11" y="6" width="172" height="160">
<path d="M88.5159 165.374C54.647 164.131 16.3739 148.53 12.0978 113.202C9.60021 92.5657 17.2015 73.3032 27.797 55.6285C37.4602 39.5091 48.1286 24.4948 65.3318 14.7597C80.3058 6.2861 98.4972 4.55419 115.152 9.33023C132.179 14.2129 146.672 25.0234 157.947 37.716C169.114 50.2868 179.571 66.1244 181.937 82.6052C184.436 100.02 176.066 117.122 164.578 130.365C146.136 151.623 118.452 166.473 88.5159 165.374Z" fill="white"/>
</mask>
<g mask="url(#mask2_91_683)">
<path d="M188.924 74.1221H174.86V77.4938H188.924V74.1221Z" stroke="white" stroke-width="0.4866" stroke-miterlimit="10"/>
<path d="M194.186 81.6953H180.122V85.067H194.186V81.6953Z" stroke="white" stroke-width="0.4866" stroke-miterlimit="10"/>
</g>
<mask id="mask3_91_683" style="mask-type:luminance" maskUnits="userSpaceOnUse" x="11" y="6" width="172" height="160">
<path d="M88.5159 165.374C54.647 164.131 16.3739 148.53 12.0978 113.202C9.60021 92.5657 17.2015 73.3032 27.797 55.6285C37.4602 39.5091 48.1286 24.4948 65.3318 14.7597C80.3058 6.2861 98.4972 4.55419 115.152 9.33023C132.179 14.2129 146.672 25.0234 157.947 37.716C169.114 50.2868 179.571 66.1244 181.937 82.6052C184.436 100.02 176.066 117.122 164.578 130.365C146.136 151.623 118.452 166.473 88.5159 165.374Z" fill="white"/>
</mask>
<g mask="url(#mask3_91_683)">
<path d="M36.2998 133.387H22.2363V136.759H36.2998V133.387Z" stroke="white" stroke-width="0.4866" stroke-miterlimit="10"/>
<path d="M28.3232 138.8H14.2598V142.171H28.3232V138.8Z" stroke="white" stroke-width="0.4866" stroke-miterlimit="10"/>
</g>
<mask id="mask4_91_683" style="mask-type:luminance" maskUnits="userSpaceOnUse" x="11" y="6" width="172" height="160">
<path d="M88.5159 165.374C54.647 164.131 16.3739 148.53 12.0978 113.202C9.60021 92.5657 17.2015 73.3032 27.797 55.6285C37.4602 39.5091 48.1286 24.4948 65.3318 14.7597C80.3058 6.2861 98.4972 4.55419 115.152 9.33023C132.179 14.2129 146.672 25.0234 157.947 37.716C169.114 50.2868 179.571 66.1244 181.937 82.6052C184.436 100.02 176.066 117.122 164.578 130.365C146.136 151.623 118.452 166.473 88.5159 165.374Z" fill="white"/>
</mask>
<g mask="url(#mask4_91_683)">
<path d="M170.452 31.521H108.638V146.944H170.452V31.521Z" fill="#86CFDE"/>
<path d="M106.436 31.521H44.6211V146.944H106.436V31.521Z" fill="#86CFDE"/>
<path d="M42.418 31.521H15.9277V127.395H42.418V31.521Z" fill="#86CFDE"/>
<mask id="mask5_91_683" style="mask-type:luminance" maskUnits="userSpaceOnUse" x="15" y="31" width="156" height="116">
<path d="M108.638 31.521V146.944H170.453V31.521H108.638ZM44.6207 146.944H106.435V31.521H44.6207V146.944ZM15.9277 127.395H42.418V31.521H15.9277V127.395Z" fill="white"/>
</mask>
<g mask="url(#mask5_91_683)">
<path d="M158.891 79.9603V67.7714H143.797V109.112H119.535V81.3544H100.548V101.79H87.8365V62.2524H79.9896L75.5276 66.4384V83.3816H66.4822V116.08H46.539V92.7145H38.8643V87.1748H23.5472V71.1501L7.6377 71.1431V149.861H87.8365H175.014V79.9603H158.891Z" fill="#79A9C9"/>
<path d="M148.922 50.5361H148.167V71.9277H148.922V50.5361Z" fill="#79A9C9"/>
<path d="M152.889 50.5361H152.134V71.9277H152.889V50.5361Z" fill="#79A9C9"/>
<path d="M37.0089 95.605H23.5469V97.1079H37.0089V95.605Z" fill="#D6EBF0"/>
<path d="M37.0089 98.9878H23.5469V100.491H37.0089V98.9878Z" fill="#D6EBF0"/>
<path d="M37.0089 102.371H23.5469V103.874H37.0089V102.371Z" fill="#D6EBF0"/>
<path d="M37.0089 105.753H23.5469V107.256H37.0089V105.753Z" fill="#D6EBF0"/>
<path d="M37.0089 109.136H23.5469V110.639H37.0089V109.136Z" fill="#D6EBF0"/>
<path d="M37.0089 119.248H23.5469V120.751H37.0089V119.248Z" fill="#D6EBF0"/>
<path d="M37.0089 129.813H23.5469V131.316H37.0089V129.813Z" fill="#D6EBF0"/>
<path d="M108.736 84.3096H104.154V90.3054H108.736V84.3096Z" fill="#D6EBF0"/>
<path d="M114.628 84.3096H110.047V90.3054H114.628V84.3096Z" fill="#D6EBF0"/>
<path d="M108.736 99.1421H104.154V105.138H108.736V99.1421Z" fill="#D6EBF0"/>
<path d="M114.628 99.1421H110.047V105.138H114.628V99.1421Z" fill="#D6EBF0"/>
<path d="M108.736 106.558H104.154V112.554H108.736V106.558Z" fill="#D6EBF0"/>
<path d="M114.628 113.975H110.047V119.971H114.628V113.975Z" fill="#D6EBF0"/>
<path d="M80.1584 68.7979H77.9658V69.6387H80.1584V68.7979Z" fill="#D6EBF0"/>
<path d="M83.6096 68.7979H81.417V69.6387H83.6096V68.7979Z" fill="#D6EBF0"/>
<path d="M87.0608 68.7979H84.8682V69.6387H87.0608V68.7979Z" fill="#D6EBF0"/>
<path d="M80.1584 71.3574H77.9658V72.1983H80.1584V71.3574Z" fill="#D6EBF0"/>
<path d="M87.0608 71.3574H84.8682V72.1983H87.0608V71.3574Z" fill="#D6EBF0"/>
<path d="M80.1584 73.917H77.9658V74.7578H80.1584V73.917Z" fill="#D6EBF0"/>
<path d="M83.6096 73.917H81.417V74.7578H83.6096V73.917Z" fill="#D6EBF0"/>
<path d="M87.0608 76.4766H84.8682V77.3174H87.0608V76.4766Z" fill="#D6EBF0"/>
<path d="M80.1584 81.5962H77.9658V82.437H80.1584V81.5962Z" fill="#D6EBF0"/>
<path d="M87.0608 81.5962H84.8682V82.437H87.0608V81.5962Z" fill="#D6EBF0"/>
<path d="M87.0608 84.1558H84.8682V84.9966H87.0608V84.1558Z" fill="#D6EBF0"/>
<path d="M80.1584 86.7158H77.9658V87.5567H80.1584V86.7158Z" fill="#D6EBF0"/>
<path d="M83.6096 86.7158H81.417V87.5567H83.6096V86.7158Z" fill="#D6EBF0"/>
<path d="M87.0608 86.7158H84.8682V87.5567H87.0608V86.7158Z" fill="#D6EBF0"/>
<path d="M80.1584 89.2754H77.9658V90.1162H80.1584V89.2754Z" fill="#D6EBF0"/>
<path d="M87.0608 89.2754H84.8682V90.1162H87.0608V89.2754Z" fill="#D6EBF0"/>
<path d="M80.1584 91.835H77.9658V92.6758H80.1584V91.835Z" fill="#D6EBF0"/>
<path d="M83.6096 91.835H81.417V92.6758H83.6096V91.835Z" fill="#D6EBF0"/>
</g>
<mask id="mask6_91_683" style="mask-type:luminance" maskUnits="userSpaceOnUse" x="15" y="31" width="156" height="116">
<path d="M108.638 31.521V146.944H170.453V31.521H108.638ZM44.6207 146.944H106.435V31.521H44.6207V146.944ZM15.9277 127.395H42.418V31.521H15.9277V127.395Z" fill="white"/>
</mask>
<g mask="url(#mask6_91_683)">
<path d="M140.627 61.3947C137.489 61.3947 134.944 59.008 134.944 56.0636C134.944 54.2563 135.906 52.662 137.371 51.6978C133.902 51.7018 131.091 54.3415 131.091 57.5971C131.091 60.8556 133.907 63.4968 137.38 63.4968C139.443 63.4968 141.268 62.5606 142.415 61.121C141.852 61.2964 141.252 61.3947 140.627 61.3947Z" fill="#D6EBF0"/>
</g>
<mask id="mask7_91_683" style="mask-type:luminance" maskUnits="userSpaceOnUse" x="15" y="31" width="156" height="116">
<path d="M108.638 31.521V146.944H170.453V31.521H108.638ZM44.6207 146.944H106.435V31.521H44.6207V146.944ZM15.9277 127.395H42.418V31.521H15.9277V127.395Z" fill="white"/>
</mask>
<g mask="url(#mask7_91_683)">
<path d="M22.6032 52.4252C22.6032 52.6859 22.3777 52.8973 22.0999 52.8973C21.8221 52.8973 21.5967 52.6859 21.5967 52.4252C21.5967 52.1646 21.8221 51.9531 22.0999 51.9531C22.3777 51.9531 22.6032 52.1642 22.6032 52.4252Z" fill="#D6EBF0"/>
<path d="M34.3339 62.923C34.3339 63.1502 34.1376 63.3344 33.8955 63.3344C33.6534 63.3344 33.457 63.1502 33.457 62.923C33.457 62.6959 33.6534 62.5117 33.8955 62.5117C34.1376 62.5117 34.3339 62.6959 34.3339 62.923Z" fill="#D6EBF0"/>
<path d="M37.1112 45.0966C37.1112 45.5508 36.7185 45.9192 36.2343 45.9192C35.7501 45.9192 35.3574 45.5508 35.3574 45.0966C35.3574 44.6423 35.7501 44.2739 36.2343 44.2739C36.7185 44.2736 37.1112 44.6419 37.1112 45.0966Z" fill="#D6EBF0"/>
<path d="M81.1083 39.6115C81.1083 39.8387 80.912 40.0228 80.6699 40.0228C80.4278 40.0228 80.2314 39.8387 80.2314 39.6115C80.2314 39.3844 80.4278 39.2002 80.6699 39.2002C80.912 39.2002 81.1083 39.3844 81.1083 39.6115Z" fill="#D6EBF0"/>
<path d="M98.5024 42.2165C98.5024 42.5194 98.2405 42.7651 97.9177 42.7651C97.5949 42.7651 97.333 42.5194 97.333 42.2165C97.333 41.9137 97.5949 41.668 97.9177 41.668C98.2409 41.6683 98.5024 41.9137 98.5024 42.2165Z" fill="#D6EBF0"/>
<path d="M54.5054 83.7663C54.5054 84.0692 54.2435 84.3149 53.9206 84.3149C53.5978 84.3149 53.3359 84.0692 53.3359 83.7663C53.3359 83.4635 53.5978 83.2178 53.9206 83.2178C54.2435 83.2178 54.5054 83.4635 54.5054 83.7663Z" fill="#D6EBF0"/>
<path d="M114.727 51.0616C114.727 51.2509 114.563 51.4045 114.362 51.4045C114.16 51.4045 113.996 51.2509 113.996 51.0616C113.996 50.8724 114.16 50.7188 114.362 50.7188C114.564 50.7188 114.727 50.8724 114.727 51.0616Z" fill="#D6EBF0"/>
<path d="M137.822 50.2391C137.822 50.6555 137.462 50.9933 137.018 50.9933C136.574 50.9933 136.214 50.6555 136.214 50.2391C136.214 49.8227 136.574 49.4849 137.018 49.4849C137.462 49.4849 137.822 49.8223 137.822 50.2391Z" fill="#D6EBF0"/>
<path d="M137.967 85.4801C137.967 85.6694 137.804 85.823 137.602 85.823C137.4 85.823 137.236 85.6694 137.236 85.4801C137.236 85.2908 137.4 85.1372 137.602 85.1372C137.804 85.1372 137.967 85.2908 137.967 85.4801Z" fill="#D6EBF0"/>
<path d="M127.736 74.716C127.736 74.8674 127.605 74.9901 127.444 74.9901C127.283 74.9901 127.151 74.8674 127.151 74.716C127.151 74.5646 127.282 74.4419 127.444 74.4419C127.606 74.4419 127.736 74.5642 127.736 74.716Z" fill="#D6EBF0"/>
<path d="M133.436 73.4818C133.679 73.4818 133.875 73.2977 133.875 73.0705C133.875 72.8433 133.679 72.6592 133.436 72.6592C133.194 72.6592 132.998 72.8433 132.998 73.0705C132.998 73.2977 133.194 73.4818 133.436 73.4818Z" fill="#D6EBF0"/>
<path d="M161.354 59.2206C161.597 59.2206 161.793 59.0364 161.793 58.8093C161.793 58.5821 161.597 58.3979 161.354 58.3979C161.112 58.3979 160.916 58.5821 160.916 58.8093C160.916 59.0364 161.112 59.2206 161.354 59.2206Z" fill="#D6EBF0"/>
<path d="M157.115 47.4962C157.115 47.7612 156.886 47.976 156.604 47.976C156.321 47.976 156.092 47.7612 156.092 47.4962C156.092 47.2312 156.321 47.0161 156.604 47.0161C156.886 47.0165 157.115 47.2312 157.115 47.4962Z" fill="#D6EBF0"/>
<path d="M68.4651 44.9592C68.667 44.9592 68.8306 44.8057 68.8306 44.6163C68.8306 44.427 68.667 44.2734 68.4651 44.2734C68.2632 44.2734 68.0996 44.427 68.0996 44.6163C68.0996 44.8057 68.2632 44.9592 68.4651 44.9592Z" fill="#D6EBF0"/>
<path d="M74.3847 60.592C74.3847 60.8191 74.1884 61.0033 73.9463 61.0033C73.7041 61.0033 73.5078 60.8191 73.5078 60.592C73.5078 60.3648 73.7041 60.1807 73.9463 60.1807C74.1884 60.1807 74.3847 60.3648 74.3847 60.592Z" fill="#D6EBF0"/>
<path d="M56.7959 104.381C56.7959 104.633 56.5779 104.838 56.3086 104.838C56.0397 104.838 55.8213 104.634 55.8213 104.381C55.8213 104.128 56.0393 103.924 56.3086 103.924C56.5779 103.924 56.7959 104.129 56.7959 104.381Z" fill="#D6EBF0"/>
</g>
<mask id="mask8_91_683" style="mask-type:luminance" maskUnits="userSpaceOnUse" x="15" y="31" width="156" height="116">
<path d="M108.638 31.521V146.944H170.453V31.521H108.638ZM44.6207 146.944H106.435V31.521H44.6207V146.944ZM15.9277 127.395H42.418V31.521H15.9277V127.395Z" fill="white"/>
</mask>
<g mask="url(#mask8_91_683)">
<path d="M44.6211 128.562H56.5459V124.96H75.5284V129.727H81.0861V118.606L89.2345 110.961H93.757V125.215H97.0837V121.715L103.633 127.858V137.032H118.989V128.336H129.858V125.214H140.121V130.564H150.894V124.736C150.894 124.736 153.316 119.3 158.067 119.3C162.817 119.3 165.092 119.3 165.092 119.3V125.844H170.319V146.944H44.6211V128.562Z" fill="#6596B8"/>
</g>
</g>
<mask id="mask9_91_683" style="mask-type:luminance" maskUnits="userSpaceOnUse" x="11" y="6" width="172" height="160">
<path d="M88.5159 165.374C54.647 164.131 16.3739 148.53 12.0978 113.202C9.60021 92.5657 17.2015 73.3032 27.797 55.6285C37.4602 39.5091 48.1286 24.4948 65.3318 14.7597C80.3058 6.2861 98.4972 4.55419 115.152 9.33023C132.179 14.2129 146.672 25.0234 157.947 37.716C169.114 50.2868 179.571 66.1244 181.937 82.6052C184.436 100.02 176.066 117.122 164.578 130.365C146.136 151.623 118.452 166.473 88.5159 165.374Z" fill="white"/>
</mask>
<g mask="url(#mask9_91_683)">
<path d="M169.442 31.521H110.554V32.8008H169.442V31.521Z" fill="white"/>
<path d="M169.442 33.4639H110.554V34.7437H169.442V33.4639Z" fill="white"/>
<path d="M169.442 35.4062H110.554V36.6861H169.442V35.4062Z" fill="white"/>
<path d="M169.442 37.3491H110.554V38.6289H169.442V37.3491Z" fill="white"/>
<path d="M169.442 39.2915H110.554V40.5713H169.442V39.2915Z" fill="white"/>
<path d="M169.442 41.2344H110.554V42.5142H169.442V41.2344Z" fill="white"/>
<path d="M169.442 81.1606L168.517 83.2176H169.442H170.368L169.442 81.1606Z" fill="#FF3D45"/>
<path d="M169.63 31.521H169.253V81.88H169.63V31.521Z" fill="white"/>
</g>
<mask id="mask10_91_683" style="mask-type:luminance" maskUnits="userSpaceOnUse" x="11" y="6" width="172" height="160">
<path d="M88.5159 165.374C54.647 164.131 16.3739 148.53 12.0978 113.202C9.60021 92.5657 17.2015 73.3032 27.797 55.6285C37.4602 39.5091 48.1286 24.4948 65.3318 14.7597C80.3058 6.2861 98.4972 4.55419 115.152 9.33023C132.179 14.2129 146.672 25.0234 157.947 37.716C169.114 50.2868 179.571 66.1244 181.937 82.6052C184.436 100.02 176.066 117.122 164.578 130.365C146.136 151.623 118.452 166.473 88.5159 165.374Z" fill="white"/>
</mask>
<g mask="url(#mask10_91_683)">
<path d="M27.2422 114.454L26.3164 116.511H27.2422H28.1679L27.2422 114.454Z" fill="#FF3D45"/>
<path d="M28.1614 81.6152H21.5165H14.8716L9.31738 97.221H21.5165H33.7156L28.1614 81.6152Z" fill="#6F8EBA"/>
<path d="M14.8716 81.6152L9.31738 97.2214H19.1997L19.0686 81.6152H14.8716ZM23.5341 81.6152H21.4067L24.08 92.2957L23.5341 81.6152Z" fill="#3A5782"/>
<path d="M27.4303 97.2212H27.0527V115.048H27.4303V97.2212Z" fill="white"/>
<path d="M34.2149 94.9873H8.92773V95.3415H34.2149V94.9873Z" fill="white"/>
<path d="M30.3194 82.7373H12.7764V83.0915H30.3194V82.7373Z" fill="white"/>
<path d="M14.3359 149.101V150.044C14.3359 150.318 17.5509 150.541 21.5167 150.541C25.4824 150.541 28.6974 150.318 28.6974 150.044V149.101H14.3359Z" fill="#6A44A3"/>
<path d="M28.6974 149.101C28.6974 149.26 25.4824 149.388 21.5167 149.388C17.5509 149.388 14.3359 149.26 14.3359 149.101C14.3359 148.943 17.5509 148.815 21.5167 148.815C25.4824 148.815 28.6974 148.943 28.6974 149.101Z" fill="#9661CB"/>
<path d="M21.0047 149.167L17.001 149.324C18.2348 149.363 19.8047 149.387 21.5165 149.387C21.5654 149.387 21.6131 149.387 21.6616 149.387L22.0279 149.166H21.0047V149.167Z" fill="#6A44A3"/>
<path d="M22.028 97.2212H21.0049V149.167H22.028V97.2212Z" fill="#1B2A4F"/>
</g>
<mask id="mask11_91_683" style="mask-type:luminance" maskUnits="userSpaceOnUse" x="11" y="6" width="172" height="160">
<path d="M88.5159 165.374C54.647 164.131 16.3739 148.53 12.0978 113.202C9.60021 92.5657 17.2015 73.3032 27.797 55.6285C37.4602 39.5091 48.1286 24.4948 65.3318 14.7597C80.3058 6.2861 98.4972 4.55419 115.152 9.33023C132.179 14.2129 146.672 25.0234 157.947 37.716C169.114 50.2868 179.571 66.1244 181.937 82.6052C184.436 100.02 176.066 117.122 164.578 130.365C146.136 151.623 118.452 166.473 88.5159 165.374Z" fill="white"/>
</mask>
<g mask="url(#mask11_91_683)">
<path d="M57.234 4.83398H56.8564V36.9945H57.234V4.83398Z" fill="#253B7A"/>
<path d="M57.776 36.9946H56.3145V38.3658H57.776V36.9946Z" fill="#253B7A"/>
<path d="M57.0451 48.3532C60.032 48.3532 62.4534 46.0815 62.4534 43.2794C62.4534 40.4772 60.032 38.2056 57.0451 38.2056C54.0581 38.2056 51.6367 40.4772 51.6367 43.2794C51.6367 46.0815 54.0581 48.3532 57.0451 48.3532Z" fill="#D6EBF0"/>
<path d="M61.4909 43.5461C61.281 44.5187 60.4821 45.1878 59.7065 45.0403C58.9308 44.8929 58.4726 43.9851 58.6829 43.0121C58.8932 42.0395 59.6921 41.3705 60.4673 41.5179C61.2425 41.6657 61.7008 42.5735 61.4909 43.5461Z" fill="white"/>
<path d="M58.5552 46.5005C58.2657 46.8776 57.7873 47.0189 57.4866 46.8161C57.1859 46.613 57.1766 46.1427 57.466 45.7656C57.7555 45.3885 58.2339 45.2473 58.5346 45.45C58.8353 45.6531 58.8446 46.1234 58.5552 46.5005Z" fill="white"/>
<path d="M72.0836 4.83398H71.7061V32.9493H72.0836V4.83398Z" fill="#253B7A"/>
<path d="M72.6266 32.9492H71.165V34.3204H72.6266V32.9492Z" fill="#253B7A"/>
<path d="M75.7188 42.8221C77.8309 40.8406 77.8309 37.6281 75.7188 35.6467C73.6067 33.6653 70.1824 33.6653 68.0703 35.6467C65.9583 37.6281 65.9583 40.8406 68.0703 42.8221C70.1824 44.8035 73.6067 44.8035 75.7188 42.8221Z" fill="#D6EBF0"/>
<path d="M76.3414 39.5012C76.1315 40.4738 75.3326 41.1428 74.557 40.9954C73.7818 40.848 73.3232 39.9402 73.5335 38.9672C73.7434 37.9946 74.5423 37.3256 75.3179 37.473C76.0935 37.6204 76.5517 38.5286 76.3414 39.5012Z" fill="white"/>
<path d="M73.4058 42.4556C73.1163 42.8327 72.6379 42.9739 72.3372 42.7712C72.0365 42.5681 72.0272 42.0978 72.3166 41.7207C72.6061 41.3436 73.0845 41.2024 73.3852 41.4051C73.6859 41.6079 73.6952 42.0785 73.4058 42.4556Z" fill="white"/>
<path d="M86.9342 4.83398H86.5566V28.9042H86.9342V4.83398Z" fill="#253B7A"/>
<path d="M87.4762 28.9038H86.0146V30.275H87.4762V28.9038Z" fill="#253B7A"/>
<path d="M86.7453 40.2623C89.7322 40.2623 92.1536 37.9907 92.1536 35.1885C92.1536 32.3864 89.7322 30.1147 86.7453 30.1147C83.7583 30.1147 81.3369 32.3864 81.3369 35.1885C81.3369 37.9907 83.7583 40.2623 86.7453 40.2623Z" fill="#D6EBF0"/>
<path d="M91.191 35.4558C90.9811 36.4284 90.1822 37.0974 89.4066 36.95C88.6314 36.8026 88.1728 35.8944 88.3831 34.9218C88.5934 33.9492 89.3923 33.2802 90.1675 33.4276C90.9431 33.575 91.4013 34.4828 91.191 35.4558Z" fill="white"/>
<path d="M88.2559 38.4104C87.9665 38.7875 87.4885 38.9288 87.1878 38.7257C86.8871 38.5226 86.8778 38.0523 87.1672 37.6752C87.4567 37.2981 87.9351 37.1568 88.2354 37.3599C88.5361 37.5627 88.545 38.033 88.2559 38.4104Z" fill="white"/>
</g>
<mask id="mask12_91_683" style="mask-type:luminance" maskUnits="userSpaceOnUse" x="11" y="6" width="172" height="160">
<path d="M88.5159 165.374C54.647 164.131 16.3739 148.53 12.0978 113.202C9.60021 92.5657 17.2015 73.3032 27.797 55.6285C37.4602 39.5091 48.1286 24.4948 65.3318 14.7597C80.3058 6.2861 98.4972 4.55419 115.152 9.33023C132.179 14.2129 146.672 25.0234 157.947 37.716C169.114 50.2868 179.571 66.1244 181.937 82.6052C184.436 100.02 176.066 117.122 164.578 130.365C146.136 151.623 118.452 166.473 88.5159 165.374Z" fill="white"/>
</mask>
<g mask="url(#mask12_91_683)">
<path d="M109.933 121.226L116.27 165.726H114.407L106.691 121.226H109.933Z" fill="#1B2A4F"/>
<path d="M49.8005 121.226L43.4629 165.726H45.3261L53.0418 121.226H49.8005Z" fill="#1B2A4F"/>
<path d="M118.803 118.611H42.4697V122.272V127.66H67.1818L69.0128 122.272H118.803V118.611Z" fill="#A2BADC"/>
<path d="M64.8402 120.441H44.833V125.358H64.8402V120.441Z" stroke="#D6EBF0" stroke-width="0.9732" stroke-miterlimit="10"/>
<path d="M55.1666 122.9C55.1666 123.29 54.8294 123.606 54.4139 123.606C53.9983 123.606 53.6611 123.29 53.6611 122.9C53.6611 122.51 53.9983 122.194 54.4139 122.194C54.8294 122.194 55.1666 122.51 55.1666 122.9Z" fill="#D6EBF0"/>
</g>
<mask id="mask13_91_683" style="mask-type:luminance" maskUnits="userSpaceOnUse" x="11" y="6" width="172" height="160">
<path d="M88.5159 165.374C54.647 164.131 16.3739 148.53 12.0978 113.202C9.60021 92.5657 17.2015 73.3032 27.797 55.6285C37.4602 39.5091 48.1286 24.4948 65.3318 14.7597C80.3058 6.2861 98.4972 4.55419 115.152 9.33023C132.179 14.2129 146.672 25.0234 157.947 37.716C169.114 50.2868 179.571 66.1244 181.937 82.6052C184.436 100.02 176.066 117.122 164.578 130.365C146.136 151.623 118.452 166.473 88.5159 165.374Z" fill="white"/>
</mask>
<g mask="url(#mask13_91_683)">
<path d="M90.4846 117.198H70.4561V118.611H90.4846V117.198Z" fill="#EBF3FF"/>
<path d="M86.5953 111.445H80.4711H74.3469C74.3469 111.445 75.2568 115.316 73.082 117.199H80.4711H87.8602C85.6854 115.316 86.5953 111.445 86.5953 111.445Z" fill="#D2E4FF"/>
<path d="M109.342 79.0919V110.213C109.342 110.894 108.754 111.446 108.033 111.446H52.9087C52.187 111.446 51.5996 110.894 51.5996 110.213V79.0919C51.5996 78.4149 52.1874 77.8638 52.9087 77.8638H108.033C108.754 77.8634 109.342 78.4149 109.342 79.0919Z" fill="#25396B"/>
<path d="M109.342 105.9V110.213C109.342 110.894 108.754 111.446 108.033 111.446H52.9087C52.187 111.446 51.5996 110.894 51.5996 110.213V105.9H109.342Z" fill="#EBF3FF"/>
<path d="M81.1598 108.673C81.1598 109.03 80.8518 109.319 80.4715 109.319C80.0913 109.319 79.7832 109.03 79.7832 108.673C79.7832 108.316 80.0913 108.027 80.4715 108.027C80.8514 108.027 81.1598 108.316 81.1598 108.673Z" fill="#6F8EBA"/>
</g>
<mask id="mask14_91_683" style="mask-type:luminance" maskUnits="userSpaceOnUse" x="11" y="6" width="172" height="160">
<path d="M88.5159 165.374C54.647 164.131 16.3739 148.53 12.0978 113.202C9.60021 92.5657 17.2015 73.3032 27.797 55.6285C37.4602 39.5091 48.1286 24.4948 65.3318 14.7597C80.3058 6.2861 98.4972 4.55419 115.152 9.33023C132.179 14.2129 146.672 25.0234 157.947 37.716C169.114 50.2868 179.571 66.1244 181.937 82.6052C184.436 100.02 176.066 117.122 164.578 130.365C146.136 151.623 118.452 166.473 88.5159 165.374Z" fill="white"/>
</mask>
<g mask="url(#mask14_91_683)">
<path d="M127.707 84.5449H97.8213V99.774H127.707V84.5449Z" fill="#D2E4FF"/>
<path d="M127.707 84.5449H97.8213V86.742H127.707V84.5449Z" fill="#FF3D45"/>
<path d="M123.246 88.46H101.919V89.5221H123.246V88.46Z" fill="#A2BADC"/>
<path d="M123.246 90.4541H101.919V91.5163H123.246V90.4541Z" fill="#A2BADC"/>
<path d="M117.77 92.4482H107.395V93.5104H117.77V92.4482Z" fill="#A2BADC"/>
<path d="M115.333 95.9102H109.831V97.7134H115.333V95.9102Z" fill="#FF3D45"/>
<path d="M99.9684 85.6433C99.9684 85.9178 99.7314 86.1402 99.4388 86.1402C99.1462 86.1402 98.9092 85.9178 98.9092 85.6433C98.9092 85.3689 99.1462 85.1465 99.4388 85.1465C99.7314 85.1465 99.9684 85.3693 99.9684 85.6433Z" fill="#912327"/>
<path d="M101.753 85.6433C101.753 85.9178 101.516 86.1402 101.223 86.1402C100.93 86.1402 100.693 85.9178 100.693 85.6433C100.693 85.3689 100.93 85.1465 101.223 85.1465C101.516 85.1465 101.753 85.3693 101.753 85.6433Z" fill="#912327"/>
<path d="M103.536 85.6433C103.536 85.9178 103.299 86.1402 103.006 86.1402C102.714 86.1402 102.477 85.9178 102.477 85.6433C102.477 85.3689 102.714 85.1465 103.006 85.1465C103.299 85.1465 103.536 85.3693 103.536 85.6433Z" fill="#912327"/>
<path d="M79.5674 87.9723L74.3131 96.5103C73.9119 97.1619 74.4132 97.9765 75.2156 97.9765H85.7246C86.5266 97.9765 87.0279 97.1619 86.6271 96.5103L81.3728 87.9723C80.9708 87.3204 79.9682 87.3204 79.5674 87.9723Z" stroke="white" stroke-width="0.9732" stroke-miterlimit="10"/>
<path d="M80.4695 95.1148C80.2906 95.1148 80.1455 94.9787 80.1455 94.8109V90.2864C80.1455 90.1186 80.2906 89.9824 80.4695 89.9824C80.6484 89.9824 80.7935 90.1186 80.7935 90.2864V94.8109C80.7939 94.9787 80.6487 95.1148 80.4695 95.1148Z" fill="white"/>
<path d="M80.4695 96.3833C80.2906 96.3833 80.1455 96.2471 80.1455 96.0793C80.1455 95.9115 80.2906 95.7754 80.4695 95.7754C80.6484 95.7754 80.7935 95.9115 80.7935 96.0793C80.7939 96.2471 80.6487 96.3833 80.4695 96.3833Z" fill="white"/>
<path d="M57.4864 95.2715H39.2217V96.0559H57.4864V95.2715Z" fill="#FF3D45"/>
<path d="M47.0954 93.729H39.2217V94.5134H47.0954V93.729Z" fill="#FF3D45"/>
<path d="M57.4864 96.813H39.2217V97.5974H57.4864V96.813Z" fill="#FF3D45"/>
<path d="M57.4864 98.355H39.2217V99.1394H57.4864V98.355Z" fill="#FF3D45"/>
<path d="M57.4864 99.8975H39.2217V100.682H57.4864V99.8975Z" fill="#FF3D45"/>
<path d="M50.7911 101.439H39.2217V102.224H50.7911V101.439Z" fill="#FF3D45"/>
<path d="M61.6324 71.8356C61.5417 71.7261 61.4338 71.6289 61.3085 71.5561C61.1098 71.4345 60.872 71.3657 60.6213 71.3657H44.089C43.8341 71.3657 43.5963 71.4345 43.3976 71.5561C43.2723 71.6333 43.1598 71.7305 43.0736 71.84C42.9095 72.0388 42.8145 72.2899 42.8145 72.5615V82.238C42.8145 82.8987 43.3848 83.4338 44.089 83.4338H60.6213C61.3213 83.4338 61.8959 82.8987 61.8959 82.238V72.5615C61.8959 72.2856 61.7966 72.0384 61.6324 71.8356ZM44.089 71.7709H60.6213C60.7164 71.7709 60.8072 71.7872 60.8937 71.8153L52.3554 77.1541L43.8124 71.8153C43.8989 71.7869 43.9893 71.7709 44.089 71.7709ZM61.4641 82.2377C61.4641 82.6716 61.0838 83.0283 60.6213 83.0283H44.089C43.6223 83.0283 43.2463 82.6716 43.2463 82.2377V72.5611C43.2463 72.3707 43.3196 72.1964 43.4364 72.0624L52.3554 77.6404L61.2739 72.0624C61.3907 72.1964 61.4641 72.3704 61.4641 72.5611V82.2377Z" fill="white"/>
<path d="M47.1387 71.3654C47.1387 73.2946 45.4714 74.8587 43.415 74.8587C41.3586 74.8587 39.6914 73.2946 39.6914 71.3654C39.6914 69.4362 41.3586 67.8721 43.415 67.8721C45.4714 67.8721 47.1387 69.4362 47.1387 71.3654Z" fill="#FF3D45"/>
<path d="M43.2855 71.0911C43.2855 71.5843 43.1745 71.9527 42.9534 72.1955C42.7318 72.4386 42.3966 72.5602 41.9477 72.5602C41.7894 72.5602 41.6695 72.5522 41.588 72.5362V72.1114C41.6904 72.1354 41.7971 72.1474 41.9093 72.1474C42.0978 72.1474 42.253 72.1216 42.3749 72.0695C42.4967 72.0179 42.5898 71.936 42.6538 71.8246C42.7182 71.7132 42.7555 71.5599 42.7652 71.3648H42.7435C42.6728 71.4722 42.5914 71.5476 42.4986 71.5909C42.4059 71.6342 42.2907 71.656 42.1518 71.656C41.9193 71.656 41.7362 71.5862 41.6024 71.4464C41.4685 71.3066 41.4014 71.1122 41.4014 70.8633C41.4014 70.595 41.4828 70.3831 41.645 70.2273C41.8076 70.0716 42.0284 69.9937 42.3085 69.9937C42.5056 69.9937 42.6783 70.037 42.8261 70.1236C42.9739 70.2106 43.0872 70.3362 43.1664 70.5011C43.2459 70.666 43.2855 70.8629 43.2855 71.0911ZM42.3198 70.4181C42.203 70.4181 42.1118 70.4556 42.0458 70.5309C41.9803 70.6063 41.9473 70.7147 41.9473 70.8563C41.9473 70.9775 41.9772 71.0733 42.0365 71.1439C42.0963 71.2145 42.1867 71.2502 42.3085 71.2502C42.423 71.2502 42.5207 71.2152 42.6022 71.145C42.6837 71.0747 42.7248 70.9939 42.7248 70.9026C42.7248 70.7668 42.6868 70.6521 42.6108 70.5582C42.5347 70.465 42.4377 70.4181 42.3198 70.4181Z" fill="white"/>
<path d="M45.4193 71.0911C45.4193 71.5843 45.3083 71.9527 45.0872 72.1955C44.8656 72.4386 44.5304 72.5602 44.0815 72.5602C43.9232 72.5602 43.8033 72.5522 43.7218 72.5362V72.1114C43.8242 72.1354 43.9309 72.1474 44.043 72.1474C44.2316 72.1474 44.3868 72.1216 44.5086 72.0695C44.6305 72.0179 44.7236 71.936 44.7876 71.8246C44.852 71.7132 44.8893 71.5599 44.899 71.3648H44.8772C44.8066 71.4722 44.7252 71.5476 44.6324 71.5909C44.5401 71.6342 44.4245 71.656 44.2855 71.656C44.0531 71.656 43.87 71.5862 43.7361 71.4464C43.6023 71.3066 43.5352 71.1122 43.5352 70.8633C43.5352 70.595 43.6166 70.3831 43.7788 70.2273C43.9414 70.0716 44.1622 69.9937 44.4423 69.9937C44.6394 69.9937 44.8121 70.037 44.9599 70.1236C45.1077 70.2106 45.221 70.3362 45.3002 70.5011C45.3797 70.666 45.4193 70.8629 45.4193 71.0911ZM44.4539 70.4181C44.3372 70.4181 44.246 70.4556 44.18 70.5309C44.1144 70.6063 44.0815 70.7147 44.0815 70.8563C44.0815 70.9775 44.1113 71.0733 44.1707 71.1439C44.2305 71.2145 44.3209 71.2502 44.4427 71.2502C44.5571 71.2502 44.6549 71.2152 44.7364 71.145C44.8179 71.0747 44.859 70.9939 44.859 70.9026C44.859 70.7668 44.821 70.6521 44.7449 70.5582C44.6689 70.465 44.5719 70.4181 44.4539 70.4181Z" fill="white"/>
<path d="M87.7042 53.9473H73.2353C72.7041 53.9473 72.2734 54.3513 72.2734 54.8496V67.8739C72.2734 68.3722 72.7041 68.7763 73.2353 68.7763H78.2801C78.6192 68.7763 78.9331 68.9437 79.1065 69.2171L80.4696 71.3654L81.8326 69.2171C82.006 68.9437 82.3199 68.7763 82.659 68.7763H87.7038C88.235 68.7763 88.6657 68.3722 88.6657 67.8739V54.8496C88.6661 54.3509 88.2354 53.9473 87.7042 53.9473Z" stroke="white" stroke-width="0.9732" stroke-miterlimit="10"/>
<path d="M85.8088 61.3222C85.8088 64.0883 83.4187 66.3309 80.4703 66.3309C77.5219 66.3309 75.1318 64.0886 75.1318 61.3222C75.1318 58.5562 77.5219 56.314 80.4703 56.314C83.4187 56.314 85.8088 58.5566 85.8088 61.3222Z" fill="#FF3D45"/>
<path d="M79.7661 62.1461V61.8891C79.7661 61.667 79.8165 61.4738 79.9178 61.3092C80.0191 61.1451 80.2041 60.9703 80.473 60.7851C80.7322 60.6114 80.9029 60.4702 80.9856 60.3614C81.0682 60.2529 81.1093 60.131 81.1093 59.997C81.1093 59.8467 81.05 59.732 80.9316 59.6534C80.8133 59.5748 80.648 59.5351 80.4358 59.5351C80.0656 59.5351 79.6439 59.6487 79.1701 59.8754L78.7666 59.115C79.3168 58.8257 79.9003 58.6812 80.5173 58.6812C81.0255 58.6812 81.4294 58.7958 81.7294 59.0248C82.0293 59.2541 82.1787 59.5595 82.1787 59.9413C82.1787 60.1961 82.117 60.416 81.9936 60.6009C81.8702 60.7862 81.6359 60.9944 81.2905 61.2259C81.0535 61.3904 80.9037 61.5153 80.8408 61.6008C80.778 61.6867 80.7466 61.7988 80.7466 61.9375V62.1461H79.7661ZM79.6477 63.3334C79.6477 63.1391 79.7032 62.992 79.8142 62.8923C79.9252 62.7929 80.087 62.743 80.2992 62.743C80.5037 62.743 80.6624 62.794 80.7745 62.8959C80.8866 62.9978 80.9429 63.1434 80.9429 63.3334C80.9429 63.5162 80.8862 63.6603 80.7726 63.7659C80.6589 63.8711 80.501 63.9238 80.2988 63.9238C80.0912 63.9238 79.931 63.8722 79.8177 63.7695C79.7044 63.6661 79.6477 63.5209 79.6477 63.3334Z" fill="white"/>
<path d="M107.827 62.635C110.517 60.1106 114.88 60.1106 117.571 62.635C120.262 65.1593 120.262 69.2521 117.571 71.7764C114.88 74.3008 110.517 74.3008 107.827 71.7764C105.136 69.2521 105.136 65.1593 107.827 62.635Z" stroke="#FF3D45" stroke-width="0.9732" stroke-miterlimit="10"/>
<path d="M111.352 66.9933C112.023 66.606 113.39 66.6304 114.035 66.9933C114.318 67.1625 114.447 67.5254 114.292 67.8159C114.06 68.2272 114.396 68.7354 114.911 68.7354H116.355C116.717 68.7354 117.026 68.4449 117.052 68.082V67.1625C117.052 66.1947 115.118 65.4448 112.693 65.4448C110.269 65.4448 108.361 66.2191 108.335 67.1625V68.082C108.335 68.4209 108.644 68.711 109.031 68.7354H110.476C110.991 68.7354 111.327 68.2272 111.094 67.8159C110.94 67.5254 111.043 67.1385 111.352 66.9933Z" fill="#FF3D45"/>
</g>
<mask id="mask15_91_683" style="mask-type:luminance" maskUnits="userSpaceOnUse" x="11" y="6" width="172" height="160">
<path d="M88.5159 165.374C54.647 164.131 16.3739 148.53 12.0978 113.202C9.60021 92.5657 17.2015 73.3032 27.797 55.6285C37.4602 39.5091 48.1286 24.4948 65.3318 14.7597C80.3058 6.2861 98.4972 4.55419 115.152 9.33023C132.179 14.2129 146.672 25.0234 157.947 37.716C169.114 50.2868 179.571 66.1244 181.937 82.6052C184.436 100.02 176.066 117.122 164.578 130.365C146.136 151.623 118.452 166.473 88.5159 165.374Z" fill="white"/>
</mask>
<g mask="url(#mask15_91_683)">
<path d="M157.491 126.354C157.467 126.239 155.123 114.639 159.849 100.506L160.029 100.559C155.318 114.647 157.653 126.205 157.676 126.32L157.491 126.354Z" fill="white"/>
<path d="M159.898 100.852L159.855 100.773C159.841 100.747 158.454 98.1227 161.375 96.342L161.473 96.2827L161.514 96.3843C162.772 99.432 160.01 100.798 159.982 100.812L159.898 100.852ZM161.379 96.5517C158.976 98.0841 159.773 100.163 159.982 100.61C160.43 100.362 162.372 99.1139 161.379 96.5517Z" fill="white"/>
<path d="M159.962 105.747C159.132 105.747 158.521 105.491 158.508 105.485L158.422 105.448L158.461 105.368C158.475 105.341 159.816 102.695 163.114 103.75L163.224 103.785L163.165 103.879C162.206 105.395 160.934 105.747 159.962 105.747ZM158.677 105.36C159.161 105.537 161.408 106.199 162.941 103.882C160.173 103.057 158.922 104.929 158.677 105.36Z" fill="white"/>
<path d="M158.631 105.501L158.538 105.492C158.506 105.489 155.405 105.152 155.402 101.884V101.775L155.516 101.797C158.926 102.467 158.644 105.384 158.642 105.413L158.631 105.501ZM155.592 101.994C155.655 104.72 157.947 105.225 158.46 105.303C158.482 104.816 158.424 102.608 155.592 101.994Z" fill="white"/>
<path d="M158.501 111.003C157.918 111.003 157.51 110.885 157.499 110.882L157.409 110.855L157.438 110.77C157.448 110.742 158.439 107.966 161.848 108.635L161.961 108.657L161.914 108.757C161.028 110.652 159.506 111.003 158.501 111.003ZM157.651 110.738C158.154 110.859 160.47 111.26 161.693 108.787C158.842 108.284 157.839 110.284 157.651 110.738Z" fill="white"/>
<path d="M157.525 110.886C157.377 110.886 154.368 110.841 153.952 107.661L153.938 107.553L154.054 107.563C157.525 107.839 157.622 110.767 157.623 110.796L157.625 110.885L157.53 110.886C157.529 110.886 157.528 110.886 157.525 110.886ZM154.154 107.749C154.568 110.447 156.909 110.688 157.428 110.707C157.388 110.221 157.045 108.036 154.154 107.749Z" fill="white"/>
<path d="M157.872 116.166C157.361 116.166 157.01 116.076 157 116.073L156.909 116.049L156.935 115.964C156.944 115.935 157.839 113.126 161.267 113.694L161.382 113.712L161.339 113.814C160.482 115.823 158.871 116.166 157.872 116.166ZM157.149 115.925C157.657 116.031 159.984 116.358 161.119 113.85C158.285 113.442 157.324 115.474 157.149 115.925Z" fill="white"/>
<path d="M156.978 116.078C156.564 116.078 153.84 115.962 153.341 112.965L153.322 112.857L153.438 112.862C156.917 113.032 157.117 115.955 157.119 115.984L157.124 116.072L157.03 116.077C157.028 116.077 157.01 116.078 156.978 116.078ZM153.547 113.046C154.051 115.696 156.41 115.89 156.923 115.9C156.864 115.414 156.443 113.243 153.547 113.046Z" fill="white"/>
<path d="M157.475 121.125C157.192 121.125 157.013 121.097 157.005 121.095L156.912 121.08L156.929 120.992C156.934 120.963 157.527 118.085 160.999 118.329L161.114 118.337L161.082 118.442C160.346 120.835 158.382 121.125 157.475 121.125ZM157.135 120.934C157.651 120.991 160.003 121.103 160.867 118.499C157.966 118.353 157.258 120.46 157.135 120.934Z" fill="white"/>
<path d="M156.669 121.115C155.818 121.115 153.731 120.85 153.035 118.343L153.006 118.237L153.122 118.232C156.598 118.07 157.11 120.966 157.115 120.995L157.13 121.083L157.036 121.096C157.03 121.097 156.892 121.115 156.669 121.115ZM153.248 118.405C154.039 121.027 156.393 120.976 156.91 120.931C156.803 120.463 156.175 118.403 153.395 118.403C153.347 118.403 153.298 118.403 153.248 118.405Z" fill="white"/>
<path d="M163.256 126.34L163.067 126.335C163.07 126.242 163.453 116.925 171.266 110.13L171.395 110.26C163.639 117.005 163.259 126.248 163.256 126.34Z" fill="white"/>
<path d="M171.106 110.407L171.102 110.319C171.101 110.289 170.996 107.362 174.441 106.875L174.557 106.859L174.55 106.968C174.35 110.231 171.233 110.402 171.201 110.403L171.106 110.407ZM174.353 107.068C171.525 107.525 171.305 109.738 171.292 110.218C171.811 110.166 174.126 109.783 174.353 107.068Z" fill="white"/>
<path d="M171.904 113.17C170.384 113.17 169.374 112.185 169.359 112.17L169.295 112.105L169.364 112.045C169.386 112.024 171.69 110.048 174.324 112.188L174.411 112.259L174.319 112.325C173.436 112.955 172.614 113.17 171.904 113.17ZM169.567 112.114C169.944 112.448 171.76 113.855 174.11 112.25C171.874 110.508 169.967 111.802 169.567 112.114Z" fill="white"/>
<path d="M169.468 112.229L169.384 112.188C169.357 112.174 166.618 110.768 167.926 107.738L167.97 107.637L168.066 107.698C170.957 109.521 169.526 112.125 169.511 112.151L169.468 112.229ZM168.058 107.907C167.022 110.455 168.944 111.731 169.388 111.985C169.604 111.542 170.435 109.475 168.058 107.907Z" fill="white"/>
<path d="M168.965 116.438C167.633 116.438 166.685 115.688 166.67 115.676L166.599 115.618L166.66 115.551C166.68 115.528 168.753 113.336 171.608 115.206L171.704 115.268L171.619 115.343C170.676 116.175 169.753 116.438 168.965 116.438ZM166.87 115.6C167.283 115.896 169.246 117.116 171.403 115.288C168.986 113.776 167.233 115.25 166.87 115.6Z" fill="white"/>
<path d="M166.784 115.724L166.696 115.691C166.667 115.681 163.786 114.55 164.75 111.409L164.782 111.304L164.885 111.356C167.964 112.885 166.831 115.615 166.819 115.642L166.784 115.724ZM164.9 111.565C164.154 114.2 166.208 115.281 166.677 115.489C166.843 115.027 167.439 112.89 164.9 111.565Z" fill="white"/>
<path d="M166.587 120.3C165.479 120.3 164.657 119.804 164.642 119.795L164.563 119.747L164.615 119.673C164.633 119.648 166.387 117.225 169.476 118.734L169.579 118.785L169.505 118.869C168.527 119.987 167.466 120.3 166.587 120.3ZM164.83 119.696C165.279 119.939 167.394 120.912 169.283 118.841C166.68 117.633 165.141 119.305 164.83 119.696Z" fill="white"/>
<path d="M164.761 119.83L164.67 119.807C164.639 119.8 161.627 119.027 162.152 115.795L162.17 115.688L162.279 115.726C165.541 116.871 164.793 119.715 164.785 119.744L164.761 119.83ZM162.322 115.932C161.944 118.635 164.129 119.459 164.623 119.61C164.724 119.132 165.022 116.94 162.322 115.932Z" fill="white"/>
<path d="M164.857 124.255C164.049 124.255 163.455 124.013 163.441 124.008L163.355 123.972L163.394 123.891C163.407 123.864 164.716 121.204 168.027 122.225L168.138 122.259L168.08 122.353C167.125 123.902 165.835 124.255 164.857 124.255ZM163.61 123.881C164.096 124.053 166.35 124.69 167.856 122.359C165.076 121.563 163.85 123.449 163.61 123.881Z" fill="white"/>
<path d="M163.565 124.023L163.471 124.015C163.44 124.012 160.334 123.708 160.294 120.44L160.292 120.331L160.406 120.352C163.824 120.986 163.577 123.906 163.574 123.936L163.565 124.023ZM160.485 120.548C160.579 123.273 162.878 123.754 163.391 123.827C163.408 123.34 163.323 121.133 160.485 120.548Z" fill="white"/>
<path d="M160.4 125.862H151.873L153.053 149.081H160.4H167.747L168.926 125.862H160.4Z" fill="#25396B"/>
<path d="M168.044 130.878C167.32 130.878 166.968 130.264 166.657 129.722C166.371 129.224 166.1 128.753 165.603 128.753C165.105 128.753 164.835 129.224 164.549 129.722C164.238 130.264 163.885 130.878 163.163 130.878C162.441 130.878 162.088 130.264 161.777 129.722C161.492 129.224 161.222 128.753 160.725 128.753C160.228 128.753 159.958 129.224 159.672 129.722C159.361 130.264 159.009 130.878 158.286 130.878C157.564 130.878 157.212 130.264 156.901 129.722C156.615 129.224 156.345 128.753 155.848 128.753C155.351 128.753 155.081 129.224 154.795 129.722C154.485 130.264 154.132 130.878 153.41 130.878C152.687 130.878 152.335 130.264 152.024 129.722C151.739 129.224 151.468 128.753 150.972 128.753V128.398C151.694 128.398 152.046 129.013 152.357 129.554C152.643 130.053 152.913 130.524 153.409 130.524C153.906 130.524 154.177 130.053 154.462 129.554C154.773 129.013 155.125 128.398 155.848 128.398C156.57 128.398 156.922 129.013 157.233 129.554C157.519 130.053 157.789 130.524 158.285 130.524C158.782 130.524 159.053 130.053 159.339 129.554C159.649 129.013 160.002 128.398 160.724 128.398C161.447 128.398 161.798 129.013 162.11 129.554C162.396 130.053 162.665 130.524 163.162 130.524C163.659 130.524 163.929 130.053 164.215 129.555C164.526 129.013 164.879 128.398 165.602 128.398C166.325 128.398 166.677 129.013 166.988 129.554C167.275 130.053 167.545 130.524 168.043 130.524C168.54 130.524 168.811 130.053 169.097 129.554C169.408 129.013 169.761 128.398 170.484 128.398V128.753C169.986 128.753 169.716 129.224 169.429 129.722C169.12 130.264 168.767 130.878 168.044 130.878Z" fill="#FF3D45"/>
<path d="M170.485 138.711C169.763 138.711 169.411 138.097 169.1 137.556C168.814 137.057 168.544 136.586 168.047 136.586C167.551 136.586 167.28 137.057 166.995 137.556C166.684 138.097 166.332 138.711 165.61 138.711C164.887 138.711 164.535 138.097 164.224 137.555C163.938 137.057 163.668 136.586 163.171 136.586C162.674 136.586 162.404 137.057 162.118 137.556C161.807 138.097 161.455 138.711 160.732 138.711C160.01 138.711 159.658 138.097 159.347 137.555C159.061 137.057 158.791 136.586 158.295 136.586C157.798 136.586 157.527 137.057 157.241 137.556C156.93 138.097 156.578 138.711 155.855 138.711C155.132 138.711 154.779 138.097 154.468 137.556C154.182 137.057 153.911 136.586 153.414 136.586C152.916 136.586 152.645 137.057 152.359 137.556C152.048 138.097 151.696 138.711 150.973 138.711V138.357C151.47 138.357 151.741 137.886 152.027 137.387C152.338 136.846 152.691 136.232 153.414 136.232C154.137 136.232 154.489 136.846 154.801 137.387C155.087 137.886 155.357 138.357 155.855 138.357C156.352 138.357 156.622 137.886 156.908 137.387C157.219 136.846 157.572 136.232 158.294 136.232C159.016 136.232 159.368 136.846 159.679 137.387C159.965 137.886 160.235 138.357 160.732 138.357C161.229 138.357 161.499 137.886 161.785 137.388C162.095 136.846 162.448 136.232 163.171 136.232C163.893 136.232 164.245 136.846 164.556 137.387C164.842 137.886 165.112 138.357 165.609 138.357C166.106 138.357 166.376 137.886 166.662 137.387C166.973 136.846 167.325 136.232 168.047 136.232C168.77 136.232 169.122 136.846 169.433 137.387C169.719 137.886 169.989 138.357 170.486 138.357L170.485 138.711Z" fill="#FF3D45"/>
<path d="M170.485 133.192H150.972V133.547H170.485V133.192Z" fill="#FF3D45"/>
</g>
<path d="M108.579 136.723C108.362 136.723 108.147 136.634 108 136.463C107.743 136.163 107.793 135.725 108.114 135.483C114.788 130.446 114.866 121.994 114.866 121.909C114.866 121.524 115.198 121.212 115.609 121.212C116.019 121.212 116.352 121.524 116.352 121.909C116.352 122.282 116.269 131.118 109.044 136.569C108.907 136.672 108.742 136.723 108.579 136.723Z" fill="#5175A8"/>
<path d="M119.581 119.349V120.958C119.581 121.433 119.164 121.823 118.659 121.823H100.581C100.075 121.823 99.6592 121.433 99.6592 120.958V119.349C99.6592 118.875 100.075 118.484 100.581 118.484H118.659C119.164 118.484 119.581 118.875 119.581 119.349Z" fill="#5175A8"/>
<path d="M119.581 119.349V120.958C119.581 121.433 119.165 121.823 118.659 121.823H105.241C104.736 121.823 104.319 121.433 104.319 120.958V119.349C104.319 118.875 104.736 118.484 105.241 118.484H118.659C119.165 118.484 119.581 118.875 119.581 119.349Z" fill="#2C4B75"/>
<path d="M140.637 142.187L142.701 136.606L131.315 135.646L126.582 138.047L105.99 138.287L107.213 142.187H140.637Z" fill="#273D73"/>
<path d="M125.947 139.726L126.71 142.187H140.638L142.701 136.606L129.972 135.646L125.947 139.726Z" fill="#1B2A4F"/>
<path d="M138.092 116.702C137.983 116.86 137.874 117.037 137.765 117.232C135.168 121.781 132.471 134.7 132.471 134.7L131.093 134.645L129.526 134.58C130.29 128.459 135.029 116.582 135.029 116.582L136.873 116.656L137.052 116.665H137.081L138.092 116.702Z" fill="#5175A8"/>
<path d="M137.766 117.232C135.168 121.78 132.471 134.7 132.471 134.7L131.093 134.645L130.359 134.282C130.359 134.105 134.583 118.926 136.368 116.944C136.536 116.758 136.705 116.665 136.873 116.656L137.052 116.665H137.081C137.319 116.73 137.547 116.934 137.766 117.232Z" fill="#3A5782"/>
<path d="M136.754 132.713C129.268 132.341 125.56 136.127 125.56 136.127L100.166 135.587C100.166 135.587 107.077 132.35 114.751 131.988C121.651 131.662 134.771 132.527 136.754 132.713Z" fill="#5175A8"/>
<path d="M125.947 139.726L100.167 139.01V135.587L125.56 136.127L125.729 137.652L125.947 139.726Z" fill="#5175A8"/>
<path d="M145.32 134.686V139.187C145.32 139.187 138.608 133.067 125.947 139.727L125.729 137.653L125.561 136.127C125.561 136.127 129.269 132.342 136.754 132.714C136.804 132.714 136.844 132.723 136.883 132.723C139.302 132.853 142.118 133.42 145.32 134.686Z" fill="#2C4B75"/>
<path d="M153.01 102.328L154.343 104.329L149.145 119.584L121.15 118.833L119.551 117.458L153.01 102.328Z" fill="#2C4B75"/>
<path d="M119.551 117.458C119.551 117.458 123.416 103.453 125.548 102.203C127.681 100.952 151.943 101.953 153.01 102.328C154.076 102.703 147.812 118.083 147.812 118.083L119.551 117.458Z" fill="#5175A8"/>
<path d="M135.441 142.188H116.226V144.481H135.441V142.188Z" fill="#1B2A4F"/>
<path d="M126.71 144.373H124.695V155.606H126.71V144.373Z" fill="#1B2A4F"/>
<path d="M129.972 155.606H121.433V159.567H129.972V155.606Z" fill="#273D73"/>
<path d="M129.973 155.606H125.367V159.567H129.973V155.606Z" fill="#1B2A4F"/>
<path d="M124.807 164.809L124.407 157.106L125.367 155.606L126.71 157.106L125.926 164.809H124.807Z" fill="#1B2A4F"/>
<path d="M129.972 156.866V159.566L148.595 163.913C148.595 163.095 148.033 162.37 147.204 162.117L129.972 156.866Z" fill="#1B2A4F"/>
<path d="M144.013 165.687C144.013 166.748 144.929 167.607 146.06 167.607C147.19 167.607 148.107 166.748 148.107 165.687C148.107 164.627 147.19 163.767 146.06 163.767C144.929 163.767 144.013 164.627 144.013 165.687Z" fill="#1B2A4F"/>
<path d="M127.413 165.687C127.413 166.748 126.497 167.607 125.366 167.607C124.236 167.607 123.319 166.748 123.319 165.687C123.319 164.627 124.236 163.767 125.366 163.767C126.497 163.767 127.413 164.627 127.413 165.687Z" fill="#1B2A4F"/>
<path d="M125.481 163.416H125.251C123.914 163.416 122.83 164.433 122.83 165.687H127.903C127.903 164.433 126.819 163.416 125.481 163.416Z" fill="#273D73"/>
<path d="M146.175 163.02H145.945C144.607 163.02 143.523 164.037 143.523 165.291H148.596C148.596 164.037 147.512 163.02 146.175 163.02Z" fill="#273D73"/>
<path d="M121.406 156.866V159.566L102.782 163.913C102.782 163.095 103.344 162.37 104.174 162.117L121.406 156.866Z" fill="#1B2A4F"/>
<path d="M107.366 165.687C107.366 166.748 106.449 167.607 105.319 167.607C104.188 167.607 103.271 166.748 103.271 165.687C103.271 164.627 104.188 163.767 105.319 163.767C106.449 163.767 107.366 164.627 107.366 165.687Z" fill="#1B2A4F"/>
<path d="M105.204 163.02H105.434C106.771 163.02 107.855 164.037 107.855 165.291H102.782C102.782 164.037 103.866 163.02 105.204 163.02Z" fill="#273D73"/>
<path d="M107.151 164.876V168.425C107.151 169.648 106.379 170.753 105.183 171.239C104.486 171.523 103.711 171.862 103.051 172.212C103.051 172.212 96.473 175.258 94.3731 175.258C92.9344 175.258 90.6821 174.996 89.4044 174.327C88.3378 173.768 88.7017 172.354 89.1553 171.535C89.6853 170.578 90.6972 170.405 91.6715 169.941C93.2716 169.178 95.2372 168.595 96.6918 167.607C96.8579 167.493 97.9718 165.3 98.4817 164.28C98.6404 163.969 98.7385 163.767 98.7385 163.767L98.9574 163.795L107.151 164.876Z" fill="#FF3D45"/>
<path d="M107.152 164.876V168.425C107.152 169.648 106.379 170.753 105.184 171.239C104.486 171.523 103.712 171.862 103.051 172.212C99.0164 174.08 94.2125 176.493 89.7024 174.595C88.0267 173.89 88.6288 172.338 88.8554 172.232C89.4619 172.723 90.4877 173.062 91.0441 173.228C92.1123 173.547 93.2685 173.791 94.3961 173.739C94.4795 173.735 94.5629 173.729 94.6463 173.721C97.2421 173.461 104.075 169.513 104.075 169.513L101.372 168.992L104.147 168.304V166.246C104.147 166.246 99.6158 165.4 98.4829 164.28L98.9586 163.795L107.152 164.876Z" fill="#912327"/>
<path d="M121.406 123.558L111.83 122.498C111.83 122.498 98.5879 122.749 93.4298 124.166L92.584 132.863H129.74H130.095C130.095 132.863 131.954 131.506 131.953 127.05L121.406 123.558Z" fill="#1A2954"/>
<path d="M130.095 132.863L114.843 137.78L108.043 165.287C108.043 165.287 107.314 165.305 106.196 165.273C104.089 165.209 100.589 164.975 97.9531 164.121C97.9531 164.121 102.681 138.534 102.76 138.12C102.836 137.702 105.516 134.223 105.902 133.908C106.287 133.593 115.769 130.252 115.769 130.252L130.095 132.863Z" fill="#253B7A"/>
<path d="M130.094 132.863C127.125 136.435 114.843 137.78 114.843 137.78L108.042 165.287C108.042 165.287 107.314 165.305 106.196 165.273L112.513 136.961C109.987 134.209 105.901 133.908 105.901 133.908C106.287 133.593 115.768 130.252 115.768 130.252L130.094 132.863Z" fill="#1A2954"/>
<path d="M127.259 129.561L125.85 132.862L124.827 135.257L92.5838 132.862C92.5838 132.862 90.0991 128.08 90.5371 127.244C90.6807 126.975 90.9488 124.846 93.4297 124.166C93.4297 124.166 106.925 126.415 107.941 126.344C108.957 126.277 127.259 129.561 127.259 129.561Z" fill="#253B7A"/>
<path d="M95.4629 132.258L122.337 134.301L122.728 132.863L95.4629 132.258Z" fill="#1A2954"/>
<path d="M127.81 129.086L124.575 136.011L119.186 143.896C119.186 143.896 117.416 143.344 116.921 142.901C116.498 142.522 115.558 141.47 115.746 140.067C115.807 139.596 115.995 139.089 116.373 138.551C116.962 137.715 121.123 134.502 122.003 132.617C122.271 132.036 124.299 129.815 126.3 129.39C126.379 129.369 126.459 129.355 126.538 129.344C127.225 129.146 127.81 129.086 127.81 129.086Z" fill="#FF3D45"/>
<path d="M119.187 143.896C119.187 143.896 116.367 141.291 118.179 138.891C119.991 136.492 124.328 133.257 124.827 132.612C125.326 131.966 126.715 128.945 127.811 129.084C128.907 129.224 129.02 132.944 128.781 134.101C128.542 135.257 126.197 137.038 125.61 137.936C125.022 138.833 121.964 145.61 119.187 143.896Z" fill="#912327"/>
<path d="M116.665 114.66L114.31 113.393C114.31 113.393 114.178 113.433 113.949 113.502C112.478 113.953 106.969 115.635 106.189 115.788C105.312 115.955 102.856 116.592 102.705 116.629C102.701 116.632 102.697 116.632 102.697 116.632C102.495 116.727 99.7907 118.041 99.5928 118.136C99.3911 118.23 98.6888 119.592 98.6422 119.872C98.5918 120.156 98.5918 120.811 98.5918 120.811C98.5918 120.811 99.069 120.949 99.6316 121.102C99.6976 121.117 99.7635 121.139 99.8334 121.157C100.303 121.284 100.8 121.412 101.106 121.477C101.207 121.499 101.288 121.514 101.343 121.517C101.37 121.521 101.401 121.521 101.436 121.517H101.44C101.995 121.481 103.446 120.858 103.446 120.858C103.446 120.858 103.741 118.926 103.896 118.838C104.284 118.62 104.641 118.511 104.963 118.46H104.964C104.955 118.818 105.038 119.427 105.099 119.627C105.174 119.873 105.562 120.061 105.562 120.061C105.562 120.061 105.962 120.05 106.112 119.662C106.263 119.274 106.299 118.851 106.262 118.464C106.677 118.464 107.314 118.005 107.314 118.005C107.314 118.005 111.143 117.583 112.42 117.161C113.696 116.738 117.716 115.435 117.716 115.435L116.665 114.66Z" fill="#FFCBAD"/>
<path d="M117.716 115.435C117.716 115.435 113.697 116.738 112.42 117.16C111.144 117.582 107.314 118.005 107.314 118.005C107.314 118.005 106.678 118.463 106.263 118.463C106.294 117.714 106.903 117.455 106.903 117.455C106.903 117.455 109.456 117.43 110.457 117.335C111.458 117.24 115.063 115.788 115.253 115.515C115.443 115.242 113.949 113.502 113.949 113.502C114.178 113.433 114.31 113.393 114.31 113.393L116.665 114.66L117.716 115.435Z" fill="#FFA294"/>
<path d="M121.845 101.275L121.736 103.154L121.468 107.755L117.864 115.926L115.252 114.277L113.735 113.32L119.218 104.162L121.845 101.275Z" fill="#FFFEFD"/>
<path d="M121.736 103.154L121.469 107.755L117.864 115.926L115.253 114.278L116.564 114.001C116.564 114.001 118.966 109.728 119.117 109.036C119.269 108.344 121.345 102.939 121.345 102.939L121.736 103.154Z" fill="#C9D5E1"/>
<path d="M104.963 117.714V118.46C104.641 118.511 104.284 118.62 103.896 118.838C103.741 118.926 103.446 120.859 103.446 120.859L103.097 120.414C103.097 120.414 103.097 119.308 103.198 119.097C103.298 118.886 103.147 118.744 103.574 118.463C103.997 118.183 104.672 117.877 104.672 117.877L104.963 117.714Z" fill="#FFA294"/>
<path d="M101.436 121.518C101.401 121.521 101.37 121.521 101.343 121.518C101.289 121.514 101.207 121.499 101.106 121.477L101.118 121.001L101.409 119.941C101.386 120.058 101.32 120.371 101.32 120.578C101.32 120.83 101.343 121.485 101.436 121.518Z" fill="#FFA294"/>
<path d="M99.8918 120.415L99.8336 121.157C99.7638 121.139 99.6978 121.117 99.6318 121.103C99.7133 120.859 99.8918 120.415 99.8918 120.415Z" fill="#FFA294"/>
<path d="M140.546 102.189L140.383 104.035L140.092 107.333C140.092 107.333 139.933 107.613 139.665 108.086C139.075 109.12 137.966 111.075 136.895 112.978C135.475 115.486 134.121 117.907 134.086 118.042C134.012 118.322 131.952 127.051 131.952 127.051C131.952 127.051 124.622 125.86 123.649 125.791C123.458 125.777 122.896 125.646 122.112 125.438C118.865 124.59 111.83 122.497 111.83 122.497C111.83 122.497 118.616 114.238 118.616 113.954C118.616 113.674 121.619 101.487 121.844 101.276C122.069 101.065 127.175 99.7251 127.175 99.7251L133.686 99.9581L134.986 100.005L140.546 102.189Z" fill="#FFFEFD"/>
<path d="M134.986 100.005L133.686 99.958L132.022 102.928L132.786 103.551L135.211 106.346L133.419 114.143L130.093 118.486L129.527 123.633L125.562 124.932L122.112 125.438C122.896 125.645 123.459 125.777 123.649 125.791C124.623 125.86 131.952 127.051 131.952 127.051C131.952 127.051 134.012 118.322 134.086 118.042C134.121 117.907 135.475 115.486 136.895 112.978C136.689 112.971 136.565 112.967 136.565 112.967C136.565 112.967 137.993 105.149 138.292 104.231C138.591 103.318 140.546 102.189 140.546 102.189L134.986 100.005Z" fill="#C9D5E1"/>
<path d="M135.211 99.7249C135.211 99.7249 133.298 102.4 132.022 102.928C132.01 102.932 132.003 102.935 131.991 102.939C130.726 103.452 129.496 103.103 128.767 102.473C128.029 101.836 127.176 99.7249 127.176 99.7249L128.767 99.7831L129.069 99.3645L129.845 98.2798L132.623 98.4909L135.211 99.7249Z" fill="#FFCBAD"/>
<path d="M135.211 99.7249C135.211 99.7249 133.299 102.4 132.022 102.928C132.01 102.932 132.003 102.935 131.991 102.939C131.227 102.349 130.167 101.512 129.981 101.276C129.795 101.039 129.36 100.06 129.069 99.3645L129.845 98.2798L132.623 98.4909L135.211 99.7249Z" fill="#FFA294"/>
<path d="M131.833 82.3223C131.833 82.3223 129.993 83.1325 129.393 84.6471C128.792 86.1617 129.179 89.8218 129.179 89.8218L131.608 85.9506L131.833 82.3223Z" fill="#061951"/>
<path d="M128.116 91.9393C128.116 91.9393 127.928 89.9668 128.116 89.4383C128.303 88.9098 128.867 87.9939 129.317 88.1701C129.768 88.3463 129.242 90.1077 129.317 90.3541C129.393 90.6005 128.116 91.9393 128.116 91.9393Z" fill="#FFA294"/>
<path d="M139.382 94.1924L136.6 97.9998C136.6 97.9998 136.138 98.2583 135.521 98.5859C134.97 98.8771 134.295 99.2265 133.705 99.4922C133.205 99.7215 132.766 99.8963 132.51 99.9363C131.754 100.053 130.217 99.6524 129.919 99.5141C129.616 99.3721 128.227 96.4819 127.967 95.3208C127.703 94.1596 127.742 92.751 128.114 91.9392C128.491 91.1275 129.503 89.3694 129.767 88.3466C130.031 87.3237 130.594 86.654 131.606 85.9514C132.623 85.2453 136.037 85.3508 137.651 86.3737C139.269 87.3965 139.944 87.6404 140.282 89.191C140.62 90.7417 140.321 92.7837 139.382 94.1924Z" fill="#FFCBAD"/>
<path d="M132.566 92.7124C132.483 92.8314 132.418 92.953 132.353 93.0811C132.314 93.1594 132.269 93.2347 132.224 93.3105C132.151 93.2511 132.068 93.2038 131.969 93.1802C131.804 93.1408 131.626 93.1638 131.476 93.2402C131.121 93.4222 131.029 93.8969 131.319 94.1688C131.479 94.3187 131.71 94.3894 131.931 94.3581C132.066 94.3388 132.062 94.1287 131.931 94.1058C131.781 94.0796 131.619 94.0483 131.527 93.9395C131.446 93.8445 131.45 93.6938 131.524 93.5813C131.583 93.4903 131.7 93.4339 131.814 93.4288C131.94 93.4229 132.077 93.4612 132.14 93.5802C132.176 93.6486 132.293 93.6621 132.346 93.6053C132.456 93.4874 132.521 93.3447 132.584 93.2005C132.647 93.0589 132.687 92.9213 132.709 92.7699C132.722 92.6895 132.618 92.6378 132.566 92.7124Z" fill="#FFA294"/>
<path d="M131.924 96.3251C131.761 96.2622 131.593 96.2108 131.42 96.1763C131.101 96.1122 130.733 96.0954 130.471 96.3098C130.399 96.3684 130.495 96.4878 130.573 96.4351C130.809 96.2767 131.154 96.3295 131.417 96.3921C131.566 96.4278 131.712 96.4747 131.853 96.5326C131.955 96.5745 132.137 96.7 132.249 96.6436C132.274 96.6313 132.29 96.6036 132.29 96.5774C132.288 96.4398 132.033 96.3674 131.924 96.3251Z" fill="#FF8085"/>
<path d="M135.163 92.3394C135.149 92.2772 135.074 92.2247 135.006 92.2277C134.957 92.2298 134.908 92.2415 134.872 92.2764C134.855 92.2932 134.841 92.3132 134.828 92.3325C134.813 92.3547 134.8 92.3776 134.788 92.4013C134.758 92.4606 134.732 92.5218 134.709 92.5836C134.69 92.635 134.672 92.6863 134.652 92.7376C134.647 92.7511 134.642 92.7649 134.636 92.778C134.635 92.782 134.633 92.7857 134.631 92.7897C134.622 92.8137 134.608 92.8374 134.595 92.8596C134.554 92.9302 134.574 93.0303 134.654 93.0696C134.733 93.1089 134.831 93.0882 134.877 93.0146C134.942 92.9127 134.983 92.7991 135.029 92.6892C135.034 92.6768 135.04 92.6645 135.045 92.6524C135.046 92.6495 135.047 92.6463 135.049 92.6433C135.06 92.6197 135.071 92.5964 135.083 92.5735C135.096 92.5512 135.109 92.5298 135.123 92.509C135.131 92.4977 135.14 92.4872 135.147 92.4755C135.173 92.4322 135.173 92.3871 135.163 92.3394Z" fill="#061951"/>
<path d="M136.239 91.439C136.226 91.4201 136.209 91.3968 136.193 91.3819C136.17 91.3604 136.144 91.3513 136.116 91.3389C136.081 91.3229 136.047 91.3047 136.012 91.288C135.976 91.2705 135.94 91.2526 135.905 91.2326C135.888 91.2224 135.871 91.2122 135.854 91.2013C135.845 91.1951 135.836 91.1889 135.826 91.1828C135.826 91.182 135.826 91.1824 135.825 91.1817C135.794 91.1565 135.763 91.1311 135.735 91.1019C135.73 91.0961 135.724 91.0899 135.719 91.0841C135.718 91.083 135.718 91.0834 135.718 91.0834C135.717 91.0819 135.718 91.0827 135.716 91.0808C135.705 91.0663 135.695 91.0514 135.686 91.0357C135.681 91.0281 135.677 91.02 135.672 91.0124C135.671 91.0106 135.671 91.0084 135.669 91.0066C135.665 90.9866 135.653 90.9633 135.645 90.9451C135.646 90.9462 135.645 90.9447 135.641 90.9341C135.639 90.9269 135.636 90.9196 135.634 90.9123C135.631 90.9025 135.629 90.8926 135.626 90.8825C135.626 90.8795 135.625 90.8766 135.625 90.8737C135.625 90.8726 135.625 90.8734 135.625 90.8719L135.624 90.8712C135.624 90.8697 135.624 90.8683 135.624 90.8668C135.624 90.869 135.624 90.8686 135.624 90.8704C135.618 90.8184 135.586 90.7758 135.527 90.7685C135.472 90.7616 135.42 90.7933 135.404 90.8439C135.39 90.8905 135.381 90.9407 135.382 90.9895C135.383 91.0463 135.405 91.099 135.43 91.15C135.469 91.2323 135.533 91.3061 135.603 91.3677C135.676 91.4314 135.759 91.4867 135.845 91.5329C135.891 91.558 135.943 91.5762 135.993 91.5948C136.023 91.6061 136.052 91.6177 136.085 91.6181C136.111 91.6185 136.142 91.613 136.168 91.6054C136.239 91.5839 136.283 91.5023 136.239 91.439Z" fill="#061951"/>
<path d="M131.592 90.857C131.649 90.8236 131.741 90.8381 131.786 90.8862C131.818 90.9215 131.842 90.9622 131.84 91.0107C131.84 91.0336 131.834 91.0572 131.828 91.0798C131.821 91.1049 131.812 91.1297 131.802 91.1541C131.777 91.2152 131.747 91.2749 131.715 91.3335C131.689 91.3819 131.662 91.4296 131.636 91.478C131.629 91.4908 131.622 91.5039 131.616 91.517C131.614 91.5206 131.612 91.5246 131.61 91.5283C131.598 91.5516 131.59 91.577 131.581 91.6011C131.555 91.6775 131.464 91.7328 131.379 91.7059C131.294 91.6793 131.242 91.5985 131.267 91.5159C131.301 91.4016 131.36 91.2953 131.414 91.1883C131.419 91.1763 131.426 91.1643 131.431 91.1522C131.433 91.1493 131.434 91.1461 131.436 91.1432C131.446 91.1195 131.457 91.0955 131.466 91.0711C131.474 91.0478 131.482 91.0238 131.488 90.9997C131.492 90.9866 131.493 90.9732 131.497 90.9604C131.513 90.9142 131.547 90.8825 131.592 90.857Z" fill="#061951"/>
<path d="M131.545 89.5048C131.569 89.5004 131.599 89.4964 131.622 89.4972C131.654 89.4979 131.679 89.5092 131.707 89.5194C131.744 89.5325 131.781 89.543 131.819 89.555C131.857 89.5674 131.896 89.5794 131.935 89.5892C131.955 89.594 131.975 89.5983 131.995 89.6024C132.006 89.6045 132.017 89.6064 132.028 89.6082C132.029 89.6082 132.029 89.6082 132.03 89.6082C132.071 89.6122 132.112 89.6155 132.154 89.6144C132.162 89.614 132.17 89.6136 132.178 89.6133C132.18 89.6133 132.179 89.6133 132.18 89.6133C132.181 89.6129 132.18 89.6129 132.183 89.6129C132.202 89.6104 132.22 89.6071 132.239 89.6027C132.248 89.6005 132.257 89.5983 132.266 89.5954C132.268 89.5947 132.271 89.594 132.273 89.5932C132.291 89.5827 132.317 89.5743 132.337 89.5674C132.336 89.5678 132.337 89.567 132.348 89.5623C132.355 89.559 132.363 89.5558 132.37 89.5521C132.38 89.5474 132.389 89.5423 132.398 89.5368C132.401 89.5354 132.403 89.5336 132.406 89.5321C132.407 89.5314 132.407 89.5317 132.408 89.531L132.408 89.5306C132.41 89.5299 132.411 89.5292 132.412 89.5281C132.41 89.5295 132.411 89.5292 132.409 89.5303C132.453 89.4986 132.509 89.491 132.555 89.5255C132.598 89.5583 132.609 89.6155 132.582 89.661C132.556 89.7032 132.523 89.7436 132.485 89.7767C132.44 89.8153 132.384 89.8364 132.328 89.855C132.237 89.8848 132.136 89.8928 132.04 89.8874C131.941 89.8819 131.841 89.8637 131.746 89.8371C131.694 89.8226 131.644 89.8004 131.596 89.7793C131.566 89.7665 131.538 89.7549 131.514 89.7327C131.496 89.7156 131.479 89.6904 131.467 89.6679C131.434 89.6053 131.466 89.5186 131.545 89.5048Z" fill="#061951"/>
<path d="M138.329 94.8278C138.223 94.9334 136.19 97.1702 135.819 97.4523L132.295 99.5806L132.289 99.5835H132.291L132.29 99.5838L132.291 99.5835C132.307 99.582 133.195 99.5074 133.422 99.5147C133.488 99.5147 133.588 99.5074 133.705 99.4928C134.295 99.2271 134.97 98.8777 135.521 98.5865L135.465 98.3229C136.33 97.6583 137.627 96.6413 137.771 96.3967C137.99 96.0265 139.004 94.2749 139.004 94.2749C139.004 94.2749 138.435 94.7223 138.329 94.8278Z" fill="#FFA294"/>
<path d="M138.329 94.8277C138.329 94.8277 137.728 93.031 138.366 91.27C138.366 91.27 134.048 89.1213 133.185 87.1134C133.185 87.1134 133.335 88.2054 133.785 88.734C133.785 88.734 131.16 87.4651 130.708 86.6905C130.708 86.6905 129.617 83.3133 131.832 82.3228C134.048 81.3324 135.55 82.6752 135.55 82.6752C135.55 82.6752 137.54 81.7947 139.868 83.1684C142.196 84.5421 142.722 87.1841 142.984 88.8046C143.247 90.4251 142.384 93.7011 142.083 94.4408C141.783 95.1804 139.079 97.6865 139.079 97.6865L138.329 94.8277Z" fill="#061951"/>
<path d="M143.549 117.336C143.549 117.336 142.986 118.024 142.458 118.253C142.299 118.322 141.923 118.373 141.477 118.406C140.448 118.486 139.04 118.486 139.04 118.486C139.04 118.486 137.802 117.983 137.065 117.623C136.824 117.507 136.638 117.401 136.565 117.336C136.565 117.336 136.565 117.332 136.561 117.328C136.545 117.314 136.537 117.296 136.533 117.263C136.502 117.092 136.592 116.691 136.747 116.185C136.797 116.025 136.856 115.85 136.921 115.668C137.391 114.358 138.179 112.731 138.718 112.582C139.152 112.462 139.994 112.651 140.739 112.877C140.84 112.906 140.941 112.938 141.034 112.968C141.263 113.044 141.477 113.117 141.655 113.182C141.849 113.251 142.004 113.313 142.097 113.346C142.159 113.372 142.194 113.386 142.194 113.386C142.194 113.386 142.218 113.426 142.26 113.499C142.536 113.987 143.614 115.985 143.549 117.336Z" fill="#FFCBAD"/>
<path d="M143.549 117.335C143.549 117.335 142.986 118.023 142.458 118.253C142.299 118.322 141.923 118.373 141.477 118.405C141.593 118.111 141.729 117.743 141.795 117.477C141.919 116.96 141.694 115.927 141.597 115.388C141.562 115.195 141.461 114.878 141.353 114.551C141.345 114.536 141.341 114.522 141.337 114.507C141.314 114.442 141.29 114.38 141.271 114.314C141.093 113.808 140.914 113.342 140.914 113.342L141.655 113.182L141.872 113.135L142.097 113.346L142.26 113.499C142.536 113.987 143.615 115.985 143.549 117.335Z" fill="#FFA294"/>
<path d="M143.548 117.335C143.548 117.335 142.497 114.027 141.519 113.532C141.046 113.291 139.87 113.153 138.784 113.073C138.508 113.051 138.237 113.037 137.985 113.022C137.538 112.997 137.15 112.986 136.894 112.978C136.689 112.971 136.564 112.967 136.564 112.967C136.564 112.967 137.992 105.149 138.291 104.231C138.59 103.318 140.545 102.189 140.545 102.189L141.271 103.089L141.744 103.671C141.744 103.671 143.471 111.209 143.622 112.196C143.773 113.182 143.773 115.577 143.847 115.927C143.925 116.28 143.548 117.335 143.548 117.335Z" fill="#FFFEFD"/>
<path d="M143.847 115.927C143.451 115.221 143.246 112.687 143.246 112.687L143.032 113.71C143.032 113.71 141.333 112.618 141.05 112.054C140.766 111.49 139.665 108.086 139.665 108.086C139.699 106.881 139.793 104.989 140.037 104.515C140.099 104.392 140.223 104.224 140.382 104.035C140.623 103.751 140.941 103.416 141.271 103.089L140.545 102.189C140.545 102.189 138.59 103.318 138.291 104.231C137.992 105.149 136.564 112.967 136.564 112.967C136.564 112.967 136.689 112.971 136.894 112.978C136.948 112.98 137.008 112.982 137.072 112.984C137.281 112.99 137.544 112.999 137.837 113.014C138.007 113.023 138.186 113.033 138.372 113.045C138.374 113.045 138.376 113.045 138.378 113.045C138.511 113.053 138.646 113.062 138.783 113.073C139.54 113.128 140.339 113.211 140.914 113.339C141.166 113.393 141.375 113.459 141.519 113.532C142.497 114.027 143.548 117.335 143.548 117.335C143.548 117.335 143.925 116.28 143.847 115.927Z" fill="#C9D5E1"/>
<path d="M141.19 116.094C140.957 116.738 140.596 117.335 140.355 117.619C139.905 118.147 139.04 118.486 139.04 118.486C139.04 118.486 138.163 118.475 137.438 118.147C137.057 117.98 136.72 117.721 136.565 117.335C136.565 117.335 136.553 117.31 136.534 117.263C136.429 117.019 136.091 116.171 135.963 115.046C135.812 113.71 134.966 108.039 134.846 106.557C134.725 105.08 133.755 100.308 133.81 99.9654C133.86 99.6196 134.272 98.7969 134.423 98.644C134.574 98.4912 136.6 97.4538 137.465 96.2125C138.33 94.9676 139.381 93.2059 139.607 93.1367C139.715 93.104 140.033 93.1658 140.371 93.2714C140.511 93.3151 140.654 93.366 140.786 93.4243C140.984 93.508 141.151 93.599 141.24 93.6864L141.256 93.7009C141.519 93.9812 141.29 95.2516 141.05 95.6374C140.805 96.0269 139.944 97.6467 139.905 97.8214C139.866 97.9998 137.088 100.005 137.088 100.111C137.088 100.217 137.127 102.684 137.391 103.704C137.593 104.501 139.676 110.023 140.74 112.876C140.802 113.04 140.86 113.197 140.914 113.342C141.124 113.907 141.275 114.314 141.333 114.485C141.488 114.944 141.387 115.537 141.19 116.094Z" fill="#FFCBAD"/>
<path d="M136.913 104.09C136.913 104.09 138.892 109.212 138.992 109.493C139.054 109.667 139.77 110.846 140.312 111.727C139.198 108.748 137.568 104.404 137.391 103.703C137.128 102.684 137.089 100.216 137.089 100.111C137.089 100.005 139.867 97.9994 139.906 97.8211C139.944 97.6464 140.806 96.0266 141.05 95.6371C141.291 95.2512 141.52 93.9809 141.256 93.7006L141.24 93.686C140.922 94.232 140.278 95.3532 140.15 95.5679C139.979 95.8482 139.38 97.4036 139.38 97.4036C139.38 97.4036 137.078 99.2782 136.737 99.4893C136.399 99.7004 135.312 100.053 135.312 100.053L136.239 100.781L136.913 104.09Z" fill="#FFA294"/>
<path d="M140.786 93.4244C140.686 93.6355 140.546 93.9303 140.414 94.207C140.189 94.6802 139.479 95.2116 139.39 95.2771C139.452 95.197 139.952 94.5673 140.038 94.3344C140.111 94.1451 140.29 93.5481 140.371 93.2715C140.511 93.3152 140.655 93.3661 140.786 93.4244Z" fill="#FFA294"/>
<path d="M135.741 139.871C135.48 139.871 135.22 139.764 135.044 139.558C134.734 139.197 134.794 138.668 135.18 138.377C143.226 132.305 143.319 122.117 143.319 122.015C143.319 121.551 143.721 121.175 144.215 121.175C144.709 121.175 145.11 121.551 145.11 122.015C145.11 122.465 145.01 133.114 136.302 139.686C136.137 139.811 135.938 139.871 135.741 139.871Z" fill="#273D73"/>
<path d="M148.681 119.349V120.958C148.681 121.433 148.265 121.823 147.759 121.823H129.682C129.176 121.823 128.76 121.433 128.76 120.958V119.349C128.76 118.875 129.176 118.484 129.682 118.484H147.759C148.265 118.484 148.681 118.875 148.681 119.349Z" fill="#5175A8"/>
<path d="M148.682 119.349V120.958C148.682 121.433 148.265 121.823 147.76 121.823H134.342C133.836 121.823 133.42 121.433 133.42 120.958V119.349C133.42 118.875 133.836 118.484 134.342 118.484H147.76C148.265 118.484 148.682 118.875 148.682 119.349Z" fill="#2C4B75"/>
</g>
<defs>
<clipPath id="clip0_91_683">
<rect width="194" height="182" fill="white"/>
</clipPath>
</defs>
</svg>
