<svg width="164" height="20" viewBox="0 0 164 20" fill="none" xmlns="http://www.w3.org/2000/svg">
<g clip-path="url(#clip0_53_1944)">
<path d="M18.028 3.35919C17.3488 3.68003 16.193 4.28169 15.6121 4.39669C15.5896 4.40253 15.5713 4.41003 15.5496 4.41586C14.8721 3.74753 13.9438 3.33336 12.9163 3.33336C10.8455 3.33336 9.16629 5.01253 9.16629 7.08336C9.16629 7.19253 9.15712 7.39336 9.16629 7.50003C6.48462 7.50003 4.52629 6.10086 3.06045 4.30253C2.86462 4.06086 2.65629 4.18669 2.61295 4.35836C2.51545 4.74669 2.48212 5.39586 2.48212 5.85919C2.48212 7.02669 3.39462 8.17336 4.81545 8.88419C4.55379 8.95169 4.26545 9.00003 3.96545 9.00003C3.61212 9.00003 3.20545 8.90753 2.84962 8.72086C2.71795 8.65169 2.43379 8.67086 2.51795 9.00753C2.85545 10.3567 4.39545 11.3042 5.77129 11.58C5.45879 11.7642 4.79212 11.7267 4.48545 11.7267C4.37212 11.7267 3.97795 11.7 3.72295 11.6684C3.49045 11.64 3.13295 11.7 3.43212 12.1534C4.07462 13.1259 5.52795 13.7367 6.77879 13.76C5.62712 14.6634 3.74379 14.9934 1.93962 14.9934C1.57462 14.985 1.59295 15.4009 1.88712 15.555C3.21795 16.2534 5.39795 16.6667 6.95545 16.6667C13.1471 16.6667 16.6663 11.9475 16.6663 7.49919C16.6663 7.42753 16.6646 7.27753 16.6621 7.12669C16.6621 7.11169 16.6663 7.09753 16.6663 7.08253C16.6663 7.06003 16.6596 7.03836 16.6596 7.01586C16.6571 6.90253 16.6546 6.79669 16.6521 6.74169C17.143 6.38753 17.8946 5.77253 18.2746 5.30169C18.4038 5.14169 18.2996 4.94753 18.1238 5.00836C17.6713 5.16586 16.8888 5.47086 16.3988 5.52919C17.3796 4.88003 17.8646 4.31503 18.2813 3.68753C18.4238 3.47336 18.2455 3.25586 18.028 3.35919Z" fill="#616161"/>
<path d="M53.6894 3.46958C52.2071 1.72478 50.1581 0.777641 48.0654 0.777641C43.6185 0.777641 40.0436 4.91525 40.0872 9.95013C40.0872 11.5453 40.4796 13.0907 41.1335 14.4865L40 19.2224L44.2289 17.9761C45.406 18.7238 46.7139 19.0728 48.0218 19.0728C52.4251 19.0728 56 14.9352 56 9.90027C56 7.45759 55.1717 5.16452 53.6894 3.46958ZM48.0654 17.5274C46.8883 17.5274 45.7112 17.1785 44.7085 16.4806L44.4469 16.331L41.9183 17.0788L42.5722 14.2373L42.3978 13.9382C40.4796 10.3988 41.3951 5.71286 44.5341 3.51945C47.673 1.326 51.7275 2.37285 53.6458 5.96212C55.564 9.55133 54.6485 14.1875 51.5095 16.3809C50.5068 17.1286 49.2861 17.5274 48.0654 17.5274ZM51.9019 11.994L51.4224 11.7447C51.4224 11.7447 50.7248 11.3958 50.2888 11.1465C50.2452 11.1465 50.2016 11.0967 50.1581 11.0967C50.0272 11.0967 49.9401 11.1465 49.8528 11.1964C49.8528 11.1964 49.8093 11.2463 49.1989 12.0439C49.1553 12.1436 49.0681 12.1934 48.9809 12.1934H48.9373C48.8938 12.1934 48.8065 12.1436 48.7629 12.0937L48.545 11.994C48.0654 11.7447 47.6295 11.4457 47.2807 11.0469C47.1935 10.9471 47.0627 10.8475 46.9755 10.7477C46.6703 10.3988 46.3651 10 46.1472 9.55133L46.1035 9.45167C46.0599 9.4018 46.0599 9.35193 46.0164 9.25227C46.0164 9.15253 46.0164 9.05287 46.0599 9.003C46.0599 9.003 46.2343 8.75373 46.3651 8.6042C46.4523 8.50446 46.4959 8.35493 46.5831 8.25526C46.6703 8.10566 46.7139 7.90626 46.6703 7.75673C46.6267 7.50746 46.1035 6.16152 45.9728 5.86239C45.8855 5.71286 45.7984 5.66299 45.6676 5.61312H45.5368C45.4496 5.61312 45.3188 5.61312 45.188 5.61312C45.1008 5.61312 45.0136 5.66299 44.9265 5.66299L44.8828 5.71285C44.7956 5.76272 44.7085 5.86239 44.6212 5.91226C44.5341 6.01192 44.4905 6.11166 44.4033 6.21132C44.0981 6.65999 43.9237 7.20839 43.9237 7.75673C43.9237 8.15553 44.0109 8.55433 44.1417 8.90326L44.1853 9.05287C44.5777 10 45.1008 10.8475 45.7984 11.5952L45.9728 11.7946C46.1035 11.9442 46.2343 12.0439 46.3215 12.1934C47.2371 13.0907 48.2834 13.7388 49.4605 14.0877C49.5913 14.1376 49.7657 14.1376 49.8965 14.1875C50.0272 14.1875 50.2016 14.1875 50.3325 14.1875C50.5504 14.1875 50.812 14.0877 50.9864 13.9881C51.1172 13.8883 51.2044 13.8883 51.2915 13.7887L51.3788 13.6889C51.4659 13.5892 51.5531 13.5394 51.6403 13.4397C51.7275 13.34 51.8147 13.2403 51.8583 13.1406C51.9455 12.9412 51.9891 12.6919 52.0327 12.4427C52.0327 12.343 52.0327 12.1934 52.0327 12.0937C52.0327 12.0937 51.9891 12.0439 51.9019 11.994Z" fill="#616161"/>
<path d="M77.0138 9.02692C80.9723 7.05126 83.6119 5.74875 84.9327 5.11939C88.7037 3.32261 89.4873 3.01047 89.9981 3.0001C90.1104 2.99794 90.3616 3.02982 90.5243 3.18102C90.6616 3.30874 90.6994 3.48126 90.7175 3.60229C90.7356 3.72339 90.7581 3.99919 90.7402 4.21467C90.5358 6.67434 89.6517 12.6434 89.2018 15.3983C89.0114 16.564 88.6366 16.9548 88.2738 16.9931C87.4852 17.0762 86.8864 16.3961 86.1227 15.8225C84.9275 14.9251 84.2524 14.3664 83.0923 13.4907C81.7516 12.4786 82.6207 11.9224 83.3848 11.0133C83.5847 10.7754 87.0591 7.15512 87.1264 6.82675C87.1348 6.78564 87.1426 6.63254 87.0632 6.55172C86.9838 6.4709 86.8666 6.49852 86.7821 6.52047C86.6622 6.55165 84.753 7.99728 81.0543 10.8574C80.5124 11.2837 80.0216 11.4913 79.5818 11.4804C79.0969 11.4685 78.1643 11.1664 77.471 10.9083C76.6206 10.5916 75.9447 10.4242 76.0036 9.8864C76.0342 9.60627 76.371 9.31978 77.0138 9.02692Z" fill="#616161"/>
<path d="M125.351 7.49999H122.413V5.83332C122.413 4.97332 122.483 4.43165 123.716 4.43165H125.273V1.78166C124.515 1.70332 123.753 1.66499 122.991 1.66666C120.73 1.66666 119.08 3.04749 119.08 5.58249V7.49999H116.58V10.8333L119.08 10.8325V18.3333H122.413V10.8308L124.968 10.83L125.351 7.49999Z" fill="#616161"/>
<path d="M163.46 5.53567C163.386 5.14217 163.24 4.78343 163.038 4.49519C162.836 4.20695 162.585 3.99927 162.31 3.89283C161.301 3.5 157.241 3.5 157.241 3.5C157.241 3.5 153.18 3.51192 152.171 3.90475C151.896 4.01121 151.645 4.2189 151.443 4.50714C151.241 4.79538 151.095 5.1541 151.021 5.54759C150.716 8.10722 150.597 12.0072 151.029 14.4643C151.104 14.8578 151.249 15.2165 151.451 15.5048C151.653 15.793 151.904 16.0007 152.18 16.1072C153.189 16.5 157.249 16.5 157.249 16.5C157.249 16.5 161.309 16.5 162.318 16.1072C162.594 16.0007 162.845 15.793 163.047 15.5048C163.249 15.2165 163.394 14.8578 163.469 14.4643C163.79 11.9012 163.89 8.00345 163.46 5.53567Z" fill="#616161"/>
<path d="M155.747 12.5L158.872 10L155.747 7.49997V12.5Z" fill="white"/>
</g>
<defs>
<clipPath id="clip0_53_1944">
<rect width="163.747" height="20" fill="white"/>
</clipPath>
</defs>
</svg>
