<svg width="33" height="40" viewBox="0 0 33 40" fill="none" xmlns="http://www.w3.org/2000/svg">
<path d="M20.0869 39.2591C20.0869 39.3565 20.0683 39.4529 20.0322 39.5429C19.9961 39.6328 19.9432 39.7145 19.8765 39.7833C19.8098 39.8521 19.7306 39.9067 19.6435 39.9438C19.5564 39.981 19.463 40.0001 19.3687 40H13.6301C13.4457 39.991 13.2718 39.909 13.1444 39.771C13.017 39.6331 12.9459 39.4498 12.9459 39.2591C12.9459 39.0685 13.017 38.8852 13.1444 38.7473C13.2718 38.6093 13.4457 38.5273 13.6301 38.5183H19.3695C19.5597 38.5185 19.7421 38.5966 19.8765 38.7355C20.011 38.8744 20.0867 39.0627 20.0869 39.2591ZM16.5002 17.7736C16.8808 17.7736 17.2458 17.6175 17.5149 17.3395C17.7841 17.0616 17.9353 16.6846 17.9353 16.2915C17.9353 15.8984 17.7841 15.5214 17.5149 15.2435C17.2458 14.9655 16.8808 14.8094 16.5002 14.8094C16.1196 14.8094 15.7546 14.9655 15.4854 15.2435C15.2163 15.5214 15.0651 15.8984 15.0651 16.2915C15.0651 16.6846 15.2163 17.0616 15.4854 17.3395C15.7546 17.6175 16.1196 17.7736 16.5002 17.7736ZM32.9489 26.4788L30.7299 36.7774C30.6523 37.1462 30.4843 37.4883 30.242 37.7708C29.9997 38.0533 29.6912 38.2668 29.3461 38.3908C29.0034 38.5163 28.6355 38.5496 28.2769 38.4877C27.9184 38.4257 27.581 38.2705 27.2965 38.0366L22.2123 34.0732H10.7881L5.70467 38.0366C5.42024 38.2705 5.08286 38.4257 4.72429 38.4877C4.36572 38.5496 3.99779 38.5163 3.65514 38.3908C3.31004 38.2667 3.00157 38.0532 2.75926 37.7707C2.51696 37.4882 2.34894 37.1462 2.27131 36.7774L0.0507159 26.4788C-0.0202864 26.1471 -0.0166924 25.8029 0.0612216 25.4728C0.139136 25.1427 0.289295 24.8354 0.50016 24.5746L5.76358 18.0494C6.35423 8.17169 13.2645 1.99487 15.1817 0.465667C15.5589 0.163809 16.0226 0 16.4998 0C16.977 0 17.4407 0.163809 17.8179 0.465667C19.7351 1.99571 26.6454 8.17253 27.2368 18.0503L32.501 24.5754C32.7117 24.8364 32.8616 25.1437 32.9392 25.4738C33.0169 25.8039 33.0202 26.1472 32.9489 26.4788ZM10.9608 32.5915H22.0396C31.9354 14.901 19.5487 3.70575 16.9408 1.62986C16.8148 1.52843 16.6596 1.47335 16.4998 1.47335C16.34 1.47335 16.1848 1.52843 16.0588 1.62986C13.4509 3.70575 1.06499 14.901 10.9608 32.5915ZM9.61169 33.1332C7.01669 28.4355 5.9064 24.1679 5.73937 20.3787L1.59997 25.5163C1.52975 25.6035 1.47985 25.7061 1.45411 25.8164C1.42837 25.9266 1.42747 26.0415 1.4515 26.1521L3.66805 36.4557C3.69429 36.5789 3.75051 36.693 3.83139 36.7874C3.91228 36.8819 4.01515 36.9534 4.13028 36.9953C4.24541 37.0372 4.36898 37.048 4.48931 37.0268C4.60963 37.0056 4.72273 36.953 4.81789 36.8741L4.83403 36.8616L9.61088 33.1348L9.61169 33.1332ZM31.3996 25.5163L27.2602 20.3778C27.1005 24.1671 25.991 28.4347 23.3952 33.134L28.1736 36.8608L28.1898 36.8733C28.285 36.9518 28.398 37.004 28.5182 37.025C28.6383 37.0459 28.7617 37.035 28.8766 36.9931C28.9915 36.9513 29.0943 36.8799 29.1751 36.7858C29.256 36.6916 29.3123 36.5778 29.3388 36.4549L31.5554 26.1513C31.5785 26.0401 31.5764 25.9249 31.5494 25.8146C31.5224 25.7043 31.4712 25.602 31.3996 25.5155V25.5163Z" fill="#0072FF"/>
</svg>
