<svg width="133" height="19" viewBox="0 0 133 19" fill="none" xmlns="http://www.w3.org/2000/svg">
<path d="M10.7777 0.231874L13.7374 5.71603L20.3534 6.59566C20.4374 6.60704 20.5162 6.63957 20.581 6.68957C20.6458 6.73957 20.694 6.80506 20.7201 6.87868C20.7463 6.95229 20.7494 7.0311 20.729 7.10622C20.7087 7.18135 20.6658 7.24981 20.6051 7.30389L15.8185 11.5718L16.9487 17.5993C16.9632 17.6755 16.9541 17.7539 16.9223 17.8256C16.8904 17.8973 16.8372 17.9594 16.7686 18.005C16.7 18.0505 16.6188 18.0776 16.5342 18.0832C16.4496 18.0888 16.3649 18.0727 16.2898 18.0367L10.3718 15.1914L4.45385 18.0375C4.37881 18.0736 4.29415 18.0899 4.20949 18.0844C4.12484 18.0788 4.04357 18.0518 3.97494 18.0063C3.90631 17.9608 3.85307 17.8986 3.82126 17.8269C3.78944 17.7552 3.78034 17.6768 3.79499 17.6006L4.9251 11.5718L0.137235 7.30389C0.0765271 7.24981 0.0335917 7.18135 0.0132641 7.10622C-0.00706361 7.0311 -0.00397615 6.95229 0.0221788 6.87868C0.0483337 6.80506 0.0965173 6.73957 0.161303 6.68957C0.226089 6.63957 0.304904 6.60704 0.388872 6.59566L7.00494 5.71603L9.96596 0.231874C10.0029 0.162379 10.0605 0.103769 10.1323 0.0627598C10.2041 0.0217505 10.2871 0 10.3718 0C10.4565 0 10.5395 0.0217505 10.6113 0.0627598C10.6831 0.103769 10.7408 0.162379 10.7777 0.231874Z" fill="#2563EB"/>
<path d="M38.7796 0.231874L41.7393 5.71603L48.3554 6.59566C48.4393 6.60704 48.5182 6.63957 48.5829 6.68957C48.6477 6.73957 48.6959 6.80506 48.7221 6.87868C48.7482 6.95229 48.7513 7.0311 48.731 7.10622C48.7107 7.18135 48.6677 7.24981 48.607 7.30389L43.8205 11.5718L44.9506 17.5993C44.9652 17.6755 44.956 17.7539 44.9242 17.8256C44.8924 17.8973 44.8392 17.9594 44.7706 18.005C44.702 18.0505 44.6208 18.0776 44.5361 18.0832C44.4515 18.0888 44.3668 18.0727 44.2918 18.0367L38.3738 15.1914L32.4558 18.0375C32.3808 18.0736 32.2961 18.0899 32.2114 18.0844C32.1268 18.0788 32.0455 18.0518 31.9769 18.0063C31.9083 17.9608 31.855 17.8986 31.8232 17.8269C31.7914 17.7552 31.7823 17.6768 31.7969 17.6006L32.9271 11.5718L28.1392 7.30389C28.0785 7.24981 28.0355 7.18135 28.0152 7.10622C27.9949 7.0311 27.998 6.95229 28.0241 6.87868C28.0503 6.80506 28.0985 6.73957 28.1633 6.68957C28.228 6.63957 28.3069 6.60704 28.3908 6.59566L35.0069 5.71603L37.9679 0.231874C38.0048 0.162379 38.0625 0.103769 38.1343 0.0627598C38.2061 0.0217505 38.2891 0 38.3738 0C38.4585 0 38.5415 0.0217505 38.6133 0.0627598C38.6851 0.103769 38.7427 0.162379 38.7796 0.231874Z" fill="#2563EB"/>
<path d="M66.7826 0.231874L69.7422 5.71603L76.3583 6.59566C76.4423 6.60704 76.5211 6.63957 76.5859 6.68957C76.6507 6.73957 76.6988 6.80506 76.725 6.87868C76.7512 6.95229 76.7542 7.0311 76.7339 7.10622C76.7136 7.18135 76.6706 7.24981 76.6099 7.30389L71.8234 11.5718L72.9535 17.5993C72.9681 17.6755 72.959 17.7539 72.9271 17.8256C72.8953 17.8973 72.8421 17.9594 72.7735 18.005C72.7049 18.0505 72.6237 18.0776 72.5391 18.0832C72.4544 18.0888 72.3698 18.0727 72.2947 18.0367L66.3767 15.1914L60.4587 18.0375C60.3837 18.0736 60.299 18.0899 60.2144 18.0844C60.1297 18.0788 60.0485 18.0518 59.9798 18.0063C59.9112 17.9608 59.8579 17.8986 59.8261 17.8269C59.7943 17.7552 59.7852 17.6768 59.7999 17.6006L60.93 11.5718L56.1421 7.30389C56.0814 7.24981 56.0385 7.18135 56.0181 7.10622C55.9978 7.0311 56.0009 6.95229 56.0271 6.87868C56.0532 6.80506 56.1014 6.73957 56.1662 6.68957C56.231 6.63957 56.3098 6.60704 56.3938 6.59566L63.0098 5.71603L65.9708 0.231874C66.0078 0.162379 66.0654 0.103769 66.1372 0.0627598C66.209 0.0217505 66.292 0 66.3767 0C66.4614 0 66.5444 0.0217505 66.6162 0.0627598C66.688 0.103769 66.7456 0.162379 66.7826 0.231874Z" fill="#2563EB"/>
<path d="M94.7845 0.231874L97.7442 5.71603L104.36 6.59566C104.444 6.60704 104.523 6.63957 104.588 6.68957C104.653 6.73957 104.701 6.80506 104.727 6.87868C104.753 6.95229 104.756 7.0311 104.736 7.10622C104.716 7.18135 104.673 7.24981 104.612 7.30389L99.8254 11.5718L100.955 17.5993C100.97 17.6755 100.961 17.7539 100.929 17.8256C100.897 17.8973 100.844 17.9594 100.775 18.005C100.707 18.0505 100.626 18.0776 100.541 18.0832C100.456 18.0888 100.372 18.0727 100.297 18.0367L94.3787 15.1914L88.4607 18.0375C88.3856 18.0736 88.301 18.0899 88.2163 18.0844C88.1317 18.0788 88.0504 18.0518 87.9818 18.0063C87.9131 17.9608 87.8599 17.8986 87.8281 17.8269C87.7963 17.7552 87.7872 17.6768 87.8018 17.6006L88.9319 11.5718L84.1441 7.30389C84.0834 7.24981 84.0404 7.18135 84.0201 7.10622C83.9998 7.0311 84.0029 6.95229 84.029 6.87868C84.0552 6.80506 84.1034 6.73957 84.1681 6.68957C84.2329 6.63957 84.3117 6.60704 84.3957 6.59566L91.0118 5.71603L93.9728 0.231874C94.0097 0.162379 94.0674 0.103769 94.1392 0.0627598C94.2109 0.0217505 94.2939 0 94.3787 0C94.4634 0 94.5464 0.0217505 94.6182 0.0627598C94.6899 0.103769 94.7476 0.162379 94.7845 0.231874Z" fill="#2563EB"/>
<path d="M122.785 0.231874L125.745 5.71603L132.361 6.59566C132.445 6.60704 132.524 6.63957 132.589 6.68957C132.654 6.73957 132.702 6.80506 132.728 6.87868C132.754 6.95229 132.757 7.0311 132.737 7.10622C132.717 7.18135 132.674 7.24981 132.613 7.30389L127.826 11.5718L128.956 17.5993C128.971 17.6755 128.962 17.7539 128.93 17.8256C128.898 17.8973 128.845 17.9594 128.776 18.005C128.708 18.0505 128.627 18.0776 128.542 18.0832C128.457 18.0888 128.373 18.0727 128.298 18.0367L122.38 15.1914L116.462 18.0375C116.387 18.0736 116.302 18.0899 116.217 18.0844C116.133 18.0788 116.051 18.0518 115.983 18.0063C115.914 17.9608 115.861 17.8986 115.829 17.8269C115.797 17.7552 115.788 17.6768 115.803 17.6006L116.933 11.5718L112.145 7.30389C112.084 7.24981 112.041 7.18135 112.021 7.10622C112.001 7.0311 112.004 6.95229 112.03 6.87868C112.056 6.80506 112.104 6.73957 112.169 6.68957C112.234 6.63957 112.313 6.60704 112.397 6.59566L119.013 5.71603L121.974 0.231874C122.011 0.162379 122.068 0.103769 122.14 0.0627598C122.212 0.0217505 122.295 0 122.38 0C122.464 0 122.547 0.0217505 122.619 0.0627598C122.691 0.103769 122.749 0.162379 122.785 0.231874Z" fill="#2563EB"/>
</svg>
