<svg width="206" height="206" viewBox="0 0 206 206" fill="none" xmlns="http://www.w3.org/2000/svg">
<path d="M107.505 151.068C141.775 151.068 169.556 126.226 169.556 95.5824C169.556 64.9385 141.775 40.0967 107.505 40.0967C73.2352 40.0967 45.4541 64.9385 45.4541 95.5824C45.4541 126.226 73.2352 151.068 107.505 151.068Z" fill="#F5F5FF"/>
<path d="M132.397 160.063H129.451C116.462 160.063 105.933 149.534 105.933 136.545V118.403C105.933 105.415 116.462 94.8853 129.451 94.8853H132.397C145.386 94.8853 155.916 105.415 155.916 118.403V136.545C155.916 149.534 145.386 160.063 132.397 160.063Z" fill="#545FAC"/>
<path d="M132.397 160.063H129.451C116.462 160.063 105.933 149.534 105.933 136.545V118.403C105.933 105.415 116.462 94.8853 129.451 94.8853H132.397C145.386 94.8853 155.916 105.415 155.916 118.403V136.545C155.916 149.534 145.386 160.063 132.397 160.063Z" fill="#545FAC"/>
<path d="M128.531 160.064H122.015C109.738 160.064 99.7852 150.111 99.7852 137.834V117.115C99.7852 104.838 109.738 94.8853 122.015 94.8853H128.531C140.808 94.8853 150.761 104.838 150.761 117.115V137.834C150.761 150.111 140.808 160.064 128.531 160.064Z" fill="#3F4781"/>
<path d="M105.447 76.7681C105.447 76.7681 98.3817 98.3486 96.2266 107.341" stroke="black" stroke-miterlimit="10" stroke-linecap="round"/>
<path d="M135.332 68.8472C135.332 68.8472 131.186 65.22 130.988 65.1343C130.789 65.0486 128.405 62.94 125.586 63.2613L131.359 76.3316C131.359 76.3316 129.19 78.158 129.613 79.2671C130.036 80.3762 131.572 78.5576 132.363 78.221C133.154 77.8844 134.464 76.3489 134.844 75.6856C135.224 75.0223 135.332 68.8472 135.332 68.8472Z" fill="#BA6F4C"/>
<path d="M128.78 67.7095C128.78 67.7095 130.277 71.1064 132.298 71.9152" stroke="black" stroke-miterlimit="10" stroke-linecap="round"/>
<path d="M126.435 66.6987C126.435 66.6987 141.479 86.595 141.964 98.7268C141.964 98.7268 128.74 120.726 98.168 104.105L103.627 77.2538L126.435 66.6987Z" fill="black"/>
<path d="M128.416 69.3677C128.416 69.3677 137.313 81.9848 143.621 94.6019" stroke="black" stroke-miterlimit="10" stroke-linecap="round"/>
<path d="M128.619 94.7227C128.619 94.7227 147.544 91.0831 156.401 92.0538C156.401 92.0538 161.86 98.2412 163.923 102.245L147.989 112.273C147.989 112.273 149.85 136.942 143.42 152.834H83.3672C83.3672 152.834 86.8597 118.842 89.7973 113.163C91.6171 109.645 93.2346 105.763 101.808 102.609C110.381 99.4545 111.877 96.5429 111.877 96.5429L128.619 94.7227Z" fill="#9EC68A"/>
<path d="M128.006 95.0806C128.006 95.0806 130.138 94.8185 130.681 98.1298" stroke="black" stroke-miterlimit="10" stroke-linecap="round"/>
<path d="M111.805 99.4302C111.805 99.4302 109.36 101.608 111.356 104.977" stroke="black" stroke-miterlimit="10" stroke-linecap="round"/>
<path d="M95.7412 115.59L99.6235 120.807" stroke="black" stroke-miterlimit="10" stroke-linecap="round"/>
<path d="M117.942 104.065C113.744 104.065 112.604 98.1939 112.604 93.9952L112.726 84.937H127.931V96.3037C127.931 100.502 122.141 104.065 117.942 104.065Z" fill="#BA6F4C"/>
<path d="M126.512 84.9365H112.726L112.604 93.9952C112.604 96.5623 113.032 99.7525 114.323 101.846C121.982 100.58 125.343 93.027 126.512 84.9365Z" fill="black"/>
<path d="M134.844 75.6857L161.436 103.883C161.436 103.883 166.915 101.922 170.15 97.7157C173.385 93.51 166.551 86.2308 157.493 80.4076C148.434 74.5844 134.786 68.397 134.786 68.397C134.786 68.397 134.521 70.3474 134.844 75.6857Z" fill="#BA6F4C"/>
<path d="M141.681 122.303C141.681 122.303 140.225 137.114 126.961 136.313" stroke="black" stroke-miterlimit="10" stroke-linecap="round"/>
<path d="M106.816 91.8457C107.271 92.4765 107.484 93.4611 107.324 94.5167C107.069 96.2059 105.957 97.439 104.841 97.2701C103.725 97.1016 103.027 95.5953 103.282 93.9057C103.434 92.8983 103.891 92.0537 104.471 91.5713" stroke="white" stroke-miterlimit="10" stroke-linecap="round"/>
<path d="M100.099 74.0486C100.099 74.0486 99.7343 98.3414 113.414 100.019C125.312 101.478 127.176 81.5161 126.322 73.9411C125.469 66.3661 122.098 62.382 112.795 62.5262C99.0326 62.7392 100.099 74.0486 100.099 74.0486Z" fill="#BA6F4C"/>
<path d="M124.858 78.7089L125.213 80.5963C125.213 80.5963 132.955 81.6345 134.928 80.4076C134.928 80.4076 130.539 68.5741 127.528 65C124.516 61.4259 120.237 58.0858 110.786 59.4195C101.335 60.7531 99.0581 69.8126 99.0581 69.8126C99.0581 69.8126 96.7933 76.0503 100.999 83.2487C100.999 83.2487 101.042 75.0038 102.86 72.603C102.86 72.603 111.565 82.3897 124.858 78.7089Z" fill="black"/>
<path d="M128.589 85.8537C127.999 88.6092 125.991 90.5155 124.104 90.1109C122.217 89.7067 121.166 87.1449 121.757 84.3895C122.348 81.634 124.356 79.7277 126.243 80.1323C128.129 80.5364 129.18 83.0983 128.589 85.8537Z" fill="#BA6F4C"/>
<path d="M126.654 83.4677C126.654 83.4677 124.849 81.9181 124.05 84.9846C124.05 84.9846 125.115 86.1143 124.523 87.083C124.523 87.083 125.529 87.2766 125.973 86.2758" stroke="black" stroke-miterlimit="10" stroke-linecap="round" stroke-linejoin="round"/>
<path d="M125.961 84.6631C125.961 84.6631 125.833 83.999 125.126 83.2734" stroke="black" stroke-miterlimit="10" stroke-linecap="round" stroke-linejoin="round"/>
<path d="M114.459 86.592C114.482 87.2759 114.169 87.842 113.758 87.856C113.348 87.87 112.996 87.3266 112.973 86.6427C112.95 85.9588 113.264 85.3927 113.674 85.3787C114.084 85.3647 114.436 85.9081 114.459 86.592Z" fill="black"/>
<path d="M105.561 87.7986C105.584 88.4825 105.27 89.0486 104.86 89.0626C104.449 89.0766 104.098 88.5332 104.074 87.8492C104.051 87.1649 104.365 86.5992 104.776 86.5852C105.186 86.5712 105.538 87.1146 105.561 87.7986Z" fill="black"/>
<path d="M104.402 84.2954C104.402 84.2954 104.085 85.6855 102.818 85.3003" stroke="black" stroke-miterlimit="10" stroke-linecap="round"/>
<path d="M114.408 83.2988C114.408 83.2988 112.562 83.9044 111.49 82.6865" stroke="black" stroke-miterlimit="10" stroke-linecap="round"/>
<path d="M107.174 89.9496C107.174 89.9496 106.861 91.1354 107.471 91.3117C108.082 91.488 108.896 91.7233 109.663 91.231C110.429 90.7386 111.203 90.9743 110.503 89.9492" stroke="black" stroke-miterlimit="10" stroke-linecap="round"/>
<path d="M125.829 78.0416C110.3 85.3208 102.698 72.8047 102.698 72.8047C102.698 72.8047 102.172 73.5731 105.691 78.3045" stroke="black" stroke-miterlimit="10" stroke-linecap="round"/>
<path d="M127.753 88.1597C128.358 88.5733 128.862 89.3775 129.059 90.3647C129.375 91.9443 128.785 93.3937 127.741 93.6018C126.697 93.8102 125.596 92.6987 125.28 91.1195C125.092 90.1781 125.226 89.2824 125.586 88.6689" stroke="white" stroke-miterlimit="10" stroke-linecap="round"/>
<path d="M115.639 96.1585C115.639 96.1585 115.912 94.6016 117.276 94.6016" stroke="black" stroke-miterlimit="10" stroke-linecap="round"/>
<path d="M150.254 91.8926C150.254 91.8926 149.041 105.561 161.436 103.883L150.254 91.8926Z" fill="#BA6F4C"/>
<path d="M150.254 91.8926C150.254 91.8926 153.974 97.0286 157.857 97.7562" stroke="black" stroke-miterlimit="10" stroke-linecap="round"/>
<path d="M142.207 152.956C142.207 152.956 147.501 135.494 146.938 112.193C146.938 112.193 146.672 112.058 145.919 111.638C144.826 111.029 143.107 109.872 141.479 107.947" stroke="black" stroke-miterlimit="10" stroke-linecap="round"/>
<path d="M158.422 104.146C158.422 104.146 149.243 110.98 146.938 112.193" stroke="black" stroke-miterlimit="10" stroke-linecap="round"/>
<path d="M130.55 95.5293C130.55 95.5293 132.87 105.519 120.486 107.839C109.833 109.834 109.785 100.131 109.785 100.131" stroke="black" stroke-miterlimit="10" stroke-linecap="round"/>
<path d="M123.928 102.208C123.928 102.208 125.368 102.901 125.31 106.155" stroke="black" stroke-miterlimit="10" stroke-linecap="round"/>
<path d="M126.359 100.113C126.359 100.113 127.856 101.067 127.8 104.49" stroke="black" stroke-miterlimit="10" stroke-linecap="round"/>
<path d="M128.006 97.3442C128.006 97.3442 129.679 98.3112 129.615 102.058" stroke="black" stroke-miterlimit="10" stroke-linecap="round"/>
<path d="M113.517 100.59C113.517 100.59 111.684 102.984 113.181 106.688" stroke="black" stroke-miterlimit="10" stroke-linecap="round"/>
<path d="M115.077 102.788C115.077 102.788 114.142 104.847 115.874 107.848" stroke="black" stroke-miterlimit="10" stroke-linecap="round"/>
<path d="M117.987 104.256C117.987 104.256 117.88 106.643 118.484 108.017" stroke="black" stroke-miterlimit="10" stroke-linecap="round"/>
<path d="M121.234 103.695C121.234 103.695 122.055 105.006 121.885 107.455" stroke="black" stroke-miterlimit="10" stroke-linecap="round"/>
<path d="M127.211 105.014C127.211 105.014 122.88 110.757 115.248 110.757" stroke="black" stroke-miterlimit="10" stroke-linecap="round"/>
<path d="M160.669 164.097H19.0879L37.1623 152.814H178.743L160.669 164.097Z" fill="#C6D3F7"/>
<path d="M57.2844 147.997C55.7303 146.903 53.6629 146.344 51.5316 146.325C48.728 146.299 44.9013 146.871 43.6377 147.016C42.8594 147.106 42.8471 145.915 40.4896 149.029C39.5581 150.259 39.3105 150.57 39.1869 150.995C39.0633 151.419 39.4052 156.258 40.5976 156.636C40.6346 156.648 40.6647 156.63 40.7006 156.627C40.7628 157.018 41.0779 157.647 41.3725 158.023C41.5608 158.264 42.6555 158.759 42.9995 156.94C42.9995 156.94 43.2673 158.418 44.0925 158.942C44.9491 159.486 45.3364 158.476 45.4369 157.664C45.5465 158.368 46.0772 159.544 46.8113 159.279C48.2509 158.762 47.5319 154.541 47.5319 154.541L49.2199 151.495L51.6157 152.059C51.6157 152.059 56.6124 154.267 58.5443 151.365C59.4292 150.036 58.5245 148.87 57.2844 147.997Z" fill="#BA6F4C"/>
<path d="M42.7247 148.136L40.3545 151.54L40.8901 156.423" stroke="black" stroke-miterlimit="10" stroke-linecap="round"/>
<path d="M44.5281 148.841L42.6543 152.667L42.9991 156.941" stroke="black" stroke-miterlimit="10" stroke-linecap="round"/>
<path d="M47.0902 149.554L45.3066 153.175L45.4319 157.056" stroke="black" stroke-miterlimit="10" stroke-linecap="round"/>
<path d="M54.0792 152.001C54.0792 152.001 51.3922 154.811 52.149 155.988C52.9059 157.166 59.4015 151.747 58.0892 151.096C56.1673 150.143 54.0792 152.001 54.0792 152.001Z" fill="#BA6F4C"/>
<path d="M52.7109 150.863C52.7109 150.863 53.8266 151.53 53.357 152.815" stroke="black" stroke-miterlimit="10" stroke-linecap="round"/>
<path d="M114.667 153.866L127.504 154.154C127.888 154.162 128.194 154.475 128.194 154.859V155.897C128.194 156.175 128.031 156.426 127.778 156.54L117.943 160.963L115.104 161.084L114.667 153.866Z" fill="#8796FF"/>
<path d="M127.777 154.801L117.942 159.224L115.104 159.345V161.084L117.942 160.963L127.777 156.54C128.031 156.426 128.194 156.174 128.194 155.897V154.859C128.194 154.73 128.157 154.611 128.096 154.507C128.023 154.633 127.916 154.739 127.777 154.801Z" fill="#E1E7F7"/>
<path d="M116.317 161.085H57.3305C56.3887 161.085 55.5803 160.395 55.4081 159.444L47.5772 122.445C47.3531 121.21 49.3138 119.594 50.537 119.594H109.523C110.465 119.594 111.273 120.283 111.445 121.235L118.239 158.709C118.463 159.944 117.54 161.085 116.317 161.085Z" fill="white"/>
<path d="M106.781 122.202L109.758 119.615C109.68 119.605 109.603 119.593 109.523 119.593H50.537C49.3134 119.593 47.3531 121.209 47.5772 122.444L48.6105 127.327L71.76 128.005L106.781 122.202Z" fill="#8796FF"/>
<path d="M118.239 158.709L111.583 121.994C111.032 122.276 110.201 122.882 109.814 124.083C109.349 125.522 109.667 149.788 109.842 161.085H116.317C117.54 161.085 118.463 159.944 118.239 158.709Z" fill="#E1E7F7"/>
<path d="M115.104 161.085H56.1177C55.1759 161.085 54.3675 160.413 54.1953 159.487L47.4018 122.999C47.1777 121.796 48.101 120.686 49.3242 120.686H108.31C109.252 120.686 110.06 121.357 110.233 122.283L117.026 158.771C117.25 159.974 116.327 161.085 115.104 161.085Z" fill="#545FAC"/>
<path d="M82.1486 148.857C84.5395 147.717 85.2392 144.195 83.7115 140.989C82.1837 137.784 79.007 136.109 76.6162 137.248C74.2253 138.387 73.5256 141.91 75.0533 145.115C76.5811 148.321 79.7577 149.996 82.1486 148.857Z" fill="#7584F1"/>
<path d="M160.669 164.097H19.0879V167.029H160.669V164.097Z" fill="#7584F1"/>
<path d="M160.669 167.029L178.743 155.746V152.814L160.669 164.097V167.029Z" fill="#8AA5EB"/>
<path d="M107.54 103.199C107.54 103.199 110.907 116.107 118.091 116.332" stroke="black" stroke-miterlimit="10" stroke-linecap="round"/>
<path d="M167.089 134.35C167.089 134.35 165.862 133.882 167.429 130.822C168.917 127.917 170.543 125.192 174.155 122.964C174.155 122.964 173.813 128.961 171.579 131.268C169.346 133.575 167.089 134.35 167.089 134.35Z" fill="#7E9E6E"/>
<path d="M176.672 134.75C176.672 134.75 172.93 137.26 166.021 137.523C166.021 137.523 166.323 136.609 169.224 135.161C172.123 133.712 177.349 133.817 176.672 134.75Z" fill="#7E9E6E"/>
<path d="M176.672 134.751C176.672 134.751 171.644 133.935 166.021 137.523C166.021 137.523 165.448 137.931 164.967 139.072" stroke="black" stroke-miterlimit="10" stroke-linecap="round"/>
<path d="M174.005 139.925C174.005 139.925 170.282 144.621 163.374 144.884C163.374 144.884 164.294 141.817 167.194 140.369C170.094 138.92 174.682 138.992 174.005 139.925Z" fill="#7E9E6E"/>
<path d="M174.005 139.925C174.005 139.925 169.215 139.45 163.375 144.884C163.375 144.884 162.691 145.544 162.209 146.684" stroke="black" stroke-miterlimit="10" stroke-linecap="round"/>
<path d="M163.921 138.969C163.921 138.969 163.062 139.729 161.18 138.735C159.298 137.741 158.162 134.278 156.633 134.295C156.633 134.295 160.45 134.106 163.921 138.969Z" fill="#7E9E6E"/>
<path d="M161.009 150.884C162.288 146.001 164.21 140.263 167.089 134.35C167.089 134.35 167.776 132.755 170.318 128.31C172.859 123.864 174.155 122.964 174.155 122.964" stroke="black" stroke-miterlimit="10" stroke-linecap="round"/>
<path d="M157.09 134.317C157.09 134.317 160.783 134.57 163.922 138.968C164.682 140.034 164.136 141.345 163.681 142.357" stroke="black" stroke-miterlimit="10" stroke-linecap="round"/>
<path d="M156.348 148.341L158.141 158.229C158.141 158.835 160.054 159.326 162.415 159.326C164.775 159.326 166.688 158.835 166.688 158.229L168.482 148.341H156.348Z" fill="#545FAC"/>
<path d="M168.482 148.341C168.482 148.947 165.766 149.438 162.415 149.438C159.064 149.438 156.348 148.947 156.348 148.341C156.348 147.735 159.064 147.244 162.415 147.244C165.766 147.244 168.482 147.735 168.482 148.341Z" fill="black"/>
<path d="M145.119 28.9741C137.866 29.1719 131.865 34.9811 131.448 42.2245C131.202 46.4837 132.853 50.3594 135.631 53.0938C136.041 53.498 136.232 54.074 136.136 54.6417L135.093 60.8151L141.511 57.0754C141.877 56.8624 142.308 56.7841 142.723 56.8678C144.292 57.1842 145.954 57.2427 147.667 56.9831C154.008 56.0223 158.955 50.773 159.54 44.3866C160.32 35.8739 153.521 28.745 145.119 28.9741Z" fill="#D3DDF7"/>
<path d="M145.126 49.3489C144.932 49.3489 144.782 49.2871 144.678 49.1639C144.574 49.0407 144.522 48.8689 144.522 48.6476C144.522 48.44 144.577 48.2711 144.688 48.1413C144.798 48.0115 144.944 47.9464 145.126 47.9464C145.334 47.9464 145.487 48.0082 145.584 48.1314C145.682 48.255 145.73 48.4268 145.73 48.6476C145.73 48.8425 145.678 49.0081 145.574 49.1445C145.47 49.2805 145.322 49.3489 145.126 49.3489ZM145.007 44.4976C144.992 44.095 144.977 43.6826 144.962 43.2603C144.947 42.8384 144.936 42.4161 144.929 41.9938C144.921 41.5719 144.925 41.1398 144.94 40.6981V35.5547H145.428L145.451 40.6985C145.451 41.1402 145.447 41.5719 145.44 41.9942C145.432 42.4165 145.421 42.8388 145.407 43.2607C145.391 43.683 145.377 44.0954 145.362 44.498L145.007 44.4976Z" fill="black"/>
<path d="M40.6926 75.8797C39.9935 75.8809 39.3162 75.6366 38.7785 75.1896L37.2871 73.9491C36.7502 73.5029 36.1133 73.2639 35.4611 73.2651L28.069 73.2767C27.3982 73.2779 26.8552 73.8222 26.8564 74.4929L26.8585 75.9015L26.8981 101.254C26.8997 102.412 27.8395 103.349 28.9972 103.347L65.8461 103.289C66.7463 103.288 67.4751 102.557 67.4739 101.656L67.436 77.4684C67.4347 76.5681 66.7034 75.8393 65.8032 75.8405L40.6926 75.8797Z" fill="#D3DDF7"/>
<path d="M63.1221 82.0048H55.6508C55.0782 82.0048 54.6143 81.5409 54.6143 80.9682C54.6143 80.3955 55.0782 79.9316 55.6508 79.9316H63.1221C63.6947 79.9316 64.1587 80.3955 64.1587 80.9682C64.1587 81.5409 63.6943 82.0048 63.1221 82.0048Z" stroke="black" stroke-miterlimit="10" stroke-linecap="round"/>
<path d="M38.3623 76.8032H66.0046" stroke="black" stroke-miterlimit="10" stroke-linecap="round"/>
<path d="M51.8574 86.4927L42.875 95.4755" stroke="black" stroke-miterlimit="10" stroke-linecap="round" stroke-linejoin="round"/>
<path d="M51.8574 95.4755L42.875 86.4927" stroke="black" stroke-miterlimit="10" stroke-linecap="round" stroke-linejoin="round"/>
<path d="M127.931 96.3037C127.931 100.502 122.141 104.065 117.942 104.065" stroke="black" stroke-miterlimit="10" stroke-linecap="round"/>
</svg>
