<svg width="34" height="40" viewBox="0 0 34 40" fill="none" xmlns="http://www.w3.org/2000/svg">
<path d="M29.6 0H4C2.93913 0 1.92172 0.421427 1.17157 1.17157C0.421427 1.92172 0 2.93913 0 4V36C0 37.0609 0.421427 38.0783 1.17157 38.8284C1.92172 39.5786 2.93913 40 4 40H29.6C30.6609 40 31.6783 39.5786 32.4284 38.8284C33.1786 38.0783 33.6 37.0609 33.6 36V4C33.6 2.93913 33.1786 1.92172 32.4284 1.17157C31.6783 0.421427 30.6609 0 29.6 0ZM32 36C32 36.6365 31.7471 37.247 31.2971 37.6971C30.847 38.1471 30.2365 38.4 29.6 38.4H4C3.36348 38.4 2.75303 38.1471 2.30294 37.6971C1.85286 37.247 1.6 36.6365 1.6 36V4C1.6 3.36348 1.85286 2.75303 2.30294 2.30294C2.75303 1.85286 3.36348 1.6 4 1.6H29.6C30.2365 1.6 30.847 1.85286 31.2971 2.30294C31.7471 2.75303 32 3.36348 32 4V36ZM18.4 8C18.4 8.21012 18.3586 8.41817 18.2782 8.61229C18.1978 8.80641 18.0799 8.9828 17.9314 9.13137C17.7828 9.27994 17.6064 9.3978 17.4123 9.47821C17.2182 9.55861 17.0101 9.6 16.8 9.6C16.5899 9.6 16.3818 9.55861 16.1877 9.47821C15.9936 9.3978 15.8172 9.27994 15.6686 9.13137C15.5201 8.9828 15.4022 8.80641 15.3218 8.61229C15.2414 8.41817 15.2 8.21012 15.2 8C15.2 7.57565 15.3686 7.16869 15.6686 6.86863C15.9687 6.56857 16.3757 6.4 16.8 6.4C17.2243 6.4 17.6313 6.56857 17.9314 6.86863C18.2314 7.16869 18.4 7.57565 18.4 8Z" fill="black"/>
</svg>
