<svg width="32" height="33" viewBox="0 0 32 33" fill="none" xmlns="http://www.w3.org/2000/svg">
<path d="M32 16.1586C32 7.23446 24.8366 0 16 0C7.16344 0 0 7.23446 0 16.1586C0 25.0828 7.16344 32.3172 16 32.3172C24.8366 32.3172 32 25.0828 32 16.1586Z" fill="url(#paint0_linear_53_1539)"/>
<path d="M7.39974 15.6981C12.1103 13.6384 15.2514 12.2806 16.8232 11.6245C21.3106 9.75136 22.2431 9.42596 22.8508 9.41514C22.9845 9.41289 23.2833 9.44612 23.477 9.60375C23.6405 9.7369 23.6854 9.91674 23.7069 10.0429C23.7285 10.1692 23.7553 10.4567 23.7339 10.6813C23.4908 13.2455 22.4386 19.4682 21.9032 22.3401C21.6767 23.5554 21.2307 23.9628 20.799 24.0027C19.8606 24.0893 19.148 23.3803 18.2392 22.7824C16.817 21.8469 16.0136 21.2644 14.6331 20.3515C13.0377 19.2964 14.0719 18.7165 14.9811 17.7688C15.219 17.5208 19.3535 13.7467 19.4336 13.4044C19.4435 13.3615 19.4529 13.2019 19.3584 13.1177C19.2639 13.0334 19.1244 13.0622 19.0238 13.0851C18.8812 13.1176 16.6092 14.6247 12.2079 17.6063C11.563 18.0507 10.9789 18.2672 10.4556 18.2558C9.87866 18.2433 8.76886 17.9285 7.94381 17.6593C6.93188 17.3292 6.12758 17.1547 6.19761 16.594C6.23409 16.302 6.63479 16.0034 7.39974 15.6981Z" fill="white"/>
<defs>
<linearGradient id="paint0_linear_53_1539" x1="16" y1="0" x2="16" y2="32.0775" gradientUnits="userSpaceOnUse">
<stop stop-color="#2AABEE"/>
<stop offset="1" stop-color="#229ED9"/>
</linearGradient>
</defs>
</svg>
