<svg width="48" height="40" viewBox="0 0 48 40" fill="none" xmlns="http://www.w3.org/2000/svg">
<path d="M40 16.19C40.0001 16.3151 39.9756 16.439 39.9278 16.5546C39.88 16.6702 39.8099 16.7753 39.7215 16.8638C39.6331 16.9523 39.5281 17.0225 39.4125 17.0704C39.297 17.1183 39.1731 17.143 39.048 17.143H29.524C29.2714 17.143 29.0291 17.0426 28.8505 16.864C28.6719 16.6854 28.5715 16.4431 28.5715 16.1905C28.5715 15.9379 28.6719 15.6956 28.8505 15.517C29.0291 15.3384 29.2714 15.238 29.524 15.238H39.048C39.1732 15.2379 39.2972 15.2624 39.4129 15.3103C39.5285 15.3581 39.6336 15.4283 39.7222 15.5168C39.8107 15.6054 39.8809 15.7105 39.9287 15.8261C39.9766 15.9418 40.0011 16.0658 40.001 16.191L40 16.19ZM39.048 22.857H29.524C29.2714 22.857 29.0291 22.9574 28.8505 23.136C28.6719 23.3146 28.5715 23.5569 28.5715 23.8095C28.5715 24.0621 28.6719 24.3044 28.8505 24.483C29.0291 24.6616 29.2714 24.762 29.524 24.762H39.048C39.3006 24.762 39.5429 24.6616 39.7215 24.483C39.9001 24.3044 40.0005 24.0621 40.0005 23.8095C40.0005 23.5569 39.9001 23.3146 39.7215 23.136C39.5429 22.9574 39.3006 22.857 39.048 22.857ZM47.62 2.857V37.143C47.62 37.5183 47.5461 37.8899 47.4024 38.2366C47.2588 38.5832 47.0483 38.8983 46.7829 39.1636C46.5174 39.4289 46.2024 39.6393 45.8556 39.7828C45.5089 39.9263 45.1373 40.0001 44.762 40H2.858C2.48273 40.0001 2.11111 39.9263 1.76437 39.7828C1.41762 39.6393 1.10255 39.4289 0.837149 39.1636C0.571747 38.8983 0.361212 38.5832 0.217572 38.2366C0.0739316 37.8899 -2.29876e-08 37.5183 0 37.143V2.857C-2.29876e-08 2.48173 0.0739316 2.11013 0.217572 1.76344C0.361212 1.41675 0.571747 1.10175 0.837149 0.836442C1.10255 0.571132 1.41762 0.360708 1.76437 0.217189C2.11111 0.0736704 2.48273 -0.000131176 2.858 1.75025e-07H44.762C45.1373 -0.000131176 45.5089 0.0736704 45.8556 0.217189C46.2024 0.360708 46.5174 0.571132 46.7829 0.836442C47.0483 1.10175 47.2588 1.41675 47.4024 1.76344C47.5461 2.11013 47.62 2.48173 47.62 2.857ZM45.715 2.857C45.715 2.7319 45.6903 2.60802 45.6424 2.49245C45.5945 2.37689 45.5243 2.2719 45.4358 2.18348C45.3473 2.09507 45.2422 2.02496 45.1266 1.97718C45.011 1.9294 44.8871 1.90487 44.762 1.905H2.858C2.7329 1.90487 2.609 1.9294 2.49338 1.97718C2.37776 2.02496 2.2727 2.09507 2.18419 2.18348C2.09568 2.2719 2.02547 2.37689 1.97756 2.49245C1.92966 2.60802 1.905 2.7319 1.905 2.857V37.143C1.905 37.2681 1.92966 37.392 1.97756 37.5075C2.02547 37.6231 2.09568 37.7281 2.18419 37.8165C2.2727 37.9049 2.37776 37.975 2.49338 38.0228C2.609 38.0706 2.7329 38.0951 2.858 38.095H44.762C44.8871 38.0951 45.011 38.0706 45.1266 38.0228C45.2422 37.975 45.3473 37.9049 45.4358 37.8165C45.5243 37.7281 45.5945 37.6231 45.6424 37.5075C45.6903 37.392 45.715 37.2681 45.715 37.143V2.857ZM24.73 29.286C24.767 29.4087 24.7787 29.5377 24.7647 29.6651C24.7506 29.7925 24.7109 29.9158 24.648 30.0275C24.5851 30.1392 24.5003 30.237 24.3987 30.3152C24.2971 30.3933 24.1807 30.4501 24.0566 30.4822C23.9325 30.5143 23.8032 30.5209 23.6764 30.5018C23.5497 30.4827 23.4281 30.4382 23.319 30.3709C23.2098 30.3037 23.1154 30.2151 23.0413 30.1104C22.9673 30.0058 22.9151 29.8873 22.888 29.762C22.157 26.905 19.285 24.762 16.19 24.762C13.095 24.762 10.238 26.905 9.492 29.762C9.46316 29.8856 9.4099 30.0021 9.33535 30.1048C9.26081 30.2075 9.16649 30.2943 9.05794 30.36C8.94938 30.4257 8.82879 30.4691 8.70324 30.4875C8.57769 30.5059 8.44972 30.4991 8.32686 30.4674C8.20399 30.4356 8.08871 30.3796 7.98779 30.3027C7.88687 30.2258 7.80235 30.1295 7.7392 30.0194C7.67604 29.9093 7.63553 29.7878 7.62004 29.6618C7.60455 29.5359 7.6144 29.4081 7.649 29.286C7.98859 28.0436 8.60171 26.8929 9.44348 25.9181C10.2852 24.9432 11.3344 24.169 12.514 23.652C11.3184 22.8618 10.4092 21.7073 9.92126 20.3598C9.43334 19.0122 9.39265 17.5433 9.80522 16.1707C10.2178 14.7982 11.0617 13.5952 12.2117 12.74C13.3618 11.8848 14.7568 11.423 16.19 11.423C17.6232 11.423 19.0182 11.8848 20.1683 12.74C21.3183 13.5952 22.1622 14.7982 22.5748 16.1707C22.9874 17.5433 22.9467 19.0122 22.4587 20.3598C21.9708 21.7073 21.0616 22.8618 19.866 23.652C21.0462 24.168 22.0958 24.9419 22.9375 25.9169C23.7793 26.8919 24.3918 28.0431 24.73 29.286ZM16.19 22.857C17.4527 22.857 18.6637 22.3554 19.5565 21.4625C20.4494 20.5697 20.951 19.3587 20.951 18.096C20.951 16.8333 20.4494 15.6223 19.5565 14.7295C18.6637 13.8366 17.4527 13.335 16.19 13.335C14.9273 13.335 13.7163 13.8366 12.8235 14.7295C11.9306 15.6223 11.429 16.8333 11.429 18.096C11.429 19.3587 11.9306 20.5697 12.8235 21.4625C13.7163 22.3554 14.9273 22.857 16.19 22.857Z" fill="black"/>
</svg>
