<svg width="32" height="33" viewBox="0 0 32 33" fill="none" xmlns="http://www.w3.org/2000/svg">
<path d="M32 16.1586C32 7.23446 24.8366 0 16 0C7.16344 0 0 7.23446 0 16.1586C0 25.0828 7.16344 32.3172 16 32.3172C24.8366 32.3172 32 25.0828 32 16.1586Z" fill="#0DC143"/>
<path d="M23.1229 8.99355C21.4015 7.21846 19.022 6.25488 16.5918 6.25488C11.4278 6.25488 7.27623 10.4643 7.32688 15.5866C7.32688 17.2095 7.78254 18.7817 8.54195 20.2017L7.22559 25.0197L12.1366 23.7518C13.5035 24.5125 15.0224 24.8676 16.5412 24.8676C21.6547 24.8676 25.8062 20.6582 25.8062 15.5358C25.8062 13.0508 24.8443 10.7179 23.1229 8.99355ZM16.5918 23.2954C15.2249 23.2954 13.8579 22.9404 12.6935 22.2303L12.3897 22.0782L9.45328 22.8389L10.2127 19.9481L10.0102 19.6439C7.78254 16.043 8.84568 11.2758 12.491 9.04428C16.1362 6.81275 20.8447 7.87777 23.0723 11.5293C25.2999 15.1809 24.2368 19.8975 20.5915 22.1289C19.4271 22.8897 18.0094 23.2954 16.5918 23.2954ZM21.0472 17.6659L20.4903 17.4123C20.4903 17.4123 19.6802 17.0573 19.1739 16.8037C19.1233 16.8037 19.0726 16.7531 19.022 16.7531C18.8701 16.7531 18.7689 16.8037 18.6676 16.8545C18.6676 16.8545 18.617 16.9052 17.9082 17.7167C17.8576 17.8181 17.7563 17.8688 17.655 17.8688H17.6044C17.5538 17.8688 17.4525 17.8181 17.4019 17.7674L17.1488 17.6659C16.5918 17.4123 16.0856 17.1081 15.6806 16.7023C15.5793 16.6009 15.4274 16.4995 15.3261 16.398C14.9717 16.043 14.6174 15.6373 14.3642 15.1809L14.3136 15.0795C14.2629 15.0287 14.2629 14.978 14.2123 14.8766C14.2123 14.7751 14.2123 14.6737 14.2629 14.623C14.2629 14.623 14.4654 14.3694 14.6174 14.2173C14.7186 14.1158 14.7692 13.9637 14.8705 13.8623C14.9717 13.7101 15.0224 13.5072 14.9717 13.3551C14.9211 13.1015 14.3136 11.7322 14.1617 11.4279C14.0604 11.2758 13.9592 11.225 13.8073 11.1743H13.6554C13.5542 11.1743 13.4023 11.1743 13.2504 11.1743C13.1491 11.1743 13.0479 11.225 12.9466 11.225L12.896 11.2758C12.7947 11.3265 12.6935 11.4279 12.5922 11.4786C12.491 11.58 12.4403 11.6815 12.3391 11.7829C11.9846 12.2393 11.7821 12.7972 11.7821 13.3551C11.7821 13.7608 11.8834 14.1665 12.0353 14.5215L12.0859 14.6737C12.5416 15.6373 13.1491 16.4995 13.9592 17.2602L14.1617 17.4631C14.3136 17.6153 14.4654 17.7167 14.5667 17.8688C15.6299 18.7817 16.845 19.441 18.2119 19.796C18.3639 19.8467 18.5664 19.8467 18.7182 19.8975C18.8701 19.8975 19.0726 19.8975 19.2246 19.8975C19.4777 19.8975 19.7815 19.796 19.984 19.6946C20.1358 19.5931 20.2371 19.5931 20.3383 19.4917L20.4396 19.3903C20.5409 19.2888 20.6421 19.2381 20.7434 19.1367C20.8447 19.0353 20.9459 18.9338 20.9965 18.8324C21.0978 18.6296 21.1484 18.376 21.199 18.1224C21.199 18.021 21.199 17.8688 21.199 17.7674C21.199 17.7674 21.1484 17.7167 21.0472 17.6659Z" fill="white"/>
</svg>
