<svg width="49" height="46" viewBox="0 0 49 46" fill="none" xmlns="http://www.w3.org/2000/svg">
<path d="M22.1953 3.54146C30.8256 2.30166 39.4621 1.13074 48.1046 0C48.1107 7.12884 48.1046 14.2519 48.1107 21.375C39.4743 21.4095 30.8378 21.53 22.1953 21.5587C22.1953 15.5491 22.1953 9.5453 22.1953 3.54146Z" fill="#3D7BBD"/>
<path d="M0.293945 6.41712C6.78957 5.47579 13.3096 4.66074 19.8357 3.8916C19.8357 9.8036 19.8357 15.7099 19.8418 21.6219C13.3279 21.6161 6.80787 21.708 0.293945 21.6907V6.41712Z" fill="#3D7BBD"/>
<path d="M0.293945 23.5499C6.80787 23.5327 13.3157 23.6303 19.8296 23.6188C19.8296 29.5423 19.8418 35.4715 19.8357 41.4007C13.3279 40.4938 6.80787 39.696 0.293945 38.8694V23.5499Z" fill="#3D7BBD"/>
<path d="M22.1592 23.792C30.8139 23.792 39.4564 23.792 48.1051 23.792C48.1173 30.8979 48.1051 38.0038 48.1051 45.1154C39.4808 43.8985 30.8383 42.7678 22.1958 41.6657C22.1897 35.7078 22.1714 29.7499 22.1592 23.792Z" fill="#3D7BBD"/>
</svg>
