<svg width="48" height="40" viewBox="0 0 48 40" fill="none" xmlns="http://www.w3.org/2000/svg">
<path d="M47.9934 5.47307C38.7287 9.07767 34.2702 7.05152 30.257 4.50879L25.6826 19.4323C29.6959 21.9865 34.5386 24.093 43.4312 20.3449L47.9934 5.47307Z" fill="#91C300"/>
<path d="M17.8634 35.475C13.8379 32.9208 9.46481 30.8258 0.175781 34.4419L4.72576 19.4897C14.0148 15.8736 18.4794 17.9227 22.4987 20.4827L17.8634 35.475Z" fill="#00B4F1"/>
<path d="M23.273 17.7852C20.8516 16.2527 18.2412 14.8177 14.539 14.789C12.0993 14.7718 9.19 15.4261 5.5 16.8611L10.0744 1.9491C19.3634 -1.66123 23.8219 0.382137 27.8412 2.94209L23.273 17.7852Z" fill="#F8682C"/>
<path d="M24.9137 21.9238C28.9331 24.4723 33.3977 26.4984 42.6745 22.8939L38.1001 37.7542C28.8233 41.3645 24.3648 39.3211 20.3516 36.7612L24.9137 21.9238Z" fill="#FFC300"/>
</svg>
