<svg width="48" height="46" viewBox="0 0 48 46" fill="none" xmlns="http://www.w3.org/2000/svg">
<path d="M22.0459 3.54146C30.6762 2.30166 39.3127 1.13074 47.9552 0C47.9613 7.12884 47.9552 14.2519 47.9613 21.375C39.3249 21.4095 30.6884 21.53 22.0459 21.5587C22.0459 15.5491 22.0459 9.54529 22.0459 3.54146Z" fill="#6CD1F6"/>
<path d="M0.143555 6.41711C6.63917 5.47579 13.1592 4.66074 19.6853 3.8916C19.6853 9.8036 19.6853 15.7099 19.6914 21.6218C13.1775 21.6161 6.65747 21.7079 0.143555 21.6907V6.41711Z" fill="#6CD1F6"/>
<path d="M0.143555 23.5499C6.65747 23.5327 13.1653 23.6303 19.6792 23.6188C19.6792 29.5422 19.6914 35.4715 19.6853 41.4007C13.1775 40.4938 6.65747 39.696 0.143555 38.8694V23.5499Z" fill="#6CD1F6"/>
<path d="M22.0088 23.791C30.6635 23.791 39.306 23.791 47.9547 23.791C47.9669 30.8969 47.9547 38.0028 47.9547 45.1144C39.3304 43.8975 30.6879 42.7668 22.0454 41.6648C22.0393 35.7068 22.021 29.7489 22.0088 23.791Z" fill="#6CD1F6"/>
</svg>
