<svg width="55" height="40" viewBox="0 0 55 40" fill="none" xmlns="http://www.w3.org/2000/svg">
<g clip-path="url(#clip0_53_1779)">
<path d="M54.07 19.2755L43.633 12.3195C43.502 12.2324 43.3499 12.1824 43.1928 12.1748C43.0356 12.1673 42.8794 12.2024 42.7407 12.2766C42.602 12.3508 42.486 12.4612 42.405 12.5961C42.3241 12.7309 42.2812 12.8852 42.281 13.0425V19.1295H14.456V7.82553C14.456 7.5948 14.5476 7.37351 14.7108 7.21035C14.8739 7.04719 15.0952 6.95553 15.326 6.95553H23.215C23.4348 8.47867 24.2234 9.86202 25.422 10.8272C26.6207 11.7923 28.1404 12.2676 29.6754 12.1574C31.2104 12.0472 32.6466 11.3597 33.6951 10.2332C34.7436 9.10676 35.3265 7.62496 35.3265 6.08603C35.3265 4.54711 34.7436 3.06531 33.6951 1.93884C32.6466 0.812371 31.2104 0.124856 29.6754 0.0146592C28.1404 -0.0955376 26.6207 0.379764 25.422 1.34491C24.2234 2.31005 23.4348 3.69339 23.215 5.21653H15.325C14.9823 5.21666 14.6431 5.28428 14.3266 5.41551C14.0101 5.54675 13.7226 5.73904 13.4804 5.9814C13.2382 6.22376 13.0462 6.51145 12.9152 6.82804C12.7842 7.14463 12.7168 7.48391 12.717 7.82653V19.1295H1.41297C1.18223 19.1295 0.960942 19.2212 0.797786 19.3843C0.634629 19.5475 0.542969 19.7688 0.542969 19.9995C0.542969 20.2303 0.634629 20.4516 0.797786 20.6147C0.960942 20.7779 1.18223 20.8695 1.41297 20.8695H12.717V32.1735C12.7168 32.5162 12.7842 32.8555 12.9153 33.1721C13.0464 33.4887 13.2385 33.7764 13.4808 34.0187C13.7231 34.261 14.0108 34.4531 14.3274 34.5842C14.644 34.7153 14.9833 34.7827 15.326 34.7825H23.152V37.3905C23.152 38.0823 23.4267 38.7458 23.9158 39.235C24.4048 39.7243 25.0682 39.9993 25.76 39.9995H32.717C33.0596 39.9997 33.3989 39.9323 33.7155 39.8012C34.0321 39.6701 34.3198 39.478 34.5621 39.2357C34.8044 38.9934 34.9966 38.7057 35.1276 38.3891C35.2587 38.0725 35.3261 37.7332 35.326 37.3905V30.4345C35.326 29.7426 35.0511 29.079 34.5618 28.5897C34.0725 28.1004 33.4089 27.8255 32.717 27.8255H25.761C25.4183 27.8254 25.0789 27.8928 24.7622 28.0238C24.4456 28.1549 24.1579 28.3471 23.9155 28.5893C23.6731 28.8316 23.4808 29.1193 23.3497 29.4359C23.2185 29.7525 23.151 30.0918 23.151 30.4345V33.0435H15.326C15.0952 33.0435 14.8739 32.9519 14.7108 32.7887C14.5476 32.6256 14.456 32.4043 14.456 32.1735V20.8695H42.282V26.9555C42.282 27.1129 42.3248 27.2673 42.4056 27.4024C42.4865 27.5374 42.6025 27.6479 42.7413 27.7222C42.88 27.7965 43.0363 27.8318 43.1935 27.8243C43.3507 27.8167 43.5029 27.7667 43.634 27.6795L54.069 20.7235C54.1882 20.6441 54.2859 20.5364 54.3536 20.4101C54.4212 20.2838 54.4566 20.1428 54.4566 19.9995C54.4566 19.8563 54.4212 19.7152 54.3536 19.5889C54.2859 19.4626 54.1892 19.355 54.07 19.2755ZM29.238 1.73953C29.809 1.73953 30.3744 1.852 30.9019 2.07051C31.4294 2.28901 31.9087 2.60928 32.3125 3.01303C32.7162 3.41678 33.0365 3.8961 33.255 4.42363C33.4735 4.95115 33.586 5.51655 33.586 6.08753C33.586 6.65852 33.4735 7.22392 33.255 7.75144C33.0365 8.27896 32.7162 8.75828 32.3125 9.16203C31.9087 9.56578 31.4294 9.88605 30.9019 10.1046C30.3744 10.3231 29.809 10.4355 29.238 10.4355C28.0848 10.4355 26.9789 9.97744 26.1635 9.16203C25.3481 8.34663 24.89 7.24069 24.89 6.08753C24.89 4.93437 25.3481 3.82844 26.1635 3.01303C26.9789 2.19763 28.0848 1.73953 29.238 1.73953ZM24.89 30.4345C24.89 30.2038 24.9816 29.9825 25.1448 29.8193C25.3079 29.6562 25.5292 29.5645 25.76 29.5645H32.716C32.9467 29.5645 33.168 29.6562 33.3312 29.8193C33.4943 29.9825 33.586 30.2038 33.586 30.4345V37.3905C33.586 37.6213 33.4943 37.8426 33.3312 38.0057C33.168 38.1689 32.9467 38.2605 32.716 38.2605H25.76C25.5292 38.2605 25.3079 38.1689 25.1448 38.0057C24.9816 37.8426 24.89 37.6213 24.89 37.3905V30.4345ZM44.02 25.3325V14.6665L52.02 19.9995L44.022 25.3325H44.02Z" fill="black"/>
</g>
<defs>
<clipPath id="clip0_53_1779">
<rect width="55" height="40" fill="white"/>
</clipPath>
</defs>
</svg>
